<svg width="48" height="48" viewBox="0 0 48 48" fill="none" xmlns="http://www.w3.org/2000/svg">
<g id="LockOpen">
<path id="Vector" d="M39 15H18V10.5C18 8.9087 18.6321 7.38258 19.7574 6.25736C20.8826 5.13214 22.4087 4.5 24 4.5C26.8819 4.5 29.475 6.5625 30.03 9.29813C30.1124 9.68469 30.344 10.0231 30.6746 10.2398C31.0051 10.4565 31.4078 10.534 31.7952 10.4555C32.1825 10.3769 32.5232 10.1487 32.7432 9.82029C32.9632 9.49192 33.0447 9.09 32.97 8.70187C32.1225 4.52812 28.35 1.5 24 1.5C21.6138 1.50248 19.3261 2.45149 17.6388 4.13878C15.9515 5.82607 15.0025 8.11381 15 10.5V15H9C8.20435 15 7.44129 15.3161 6.87868 15.8787C6.31607 16.4413 6 17.2044 6 18V39C6 39.7957 6.31607 40.5587 6.87868 41.1213C7.44129 41.6839 8.20435 42 9 42H39C39.7957 42 40.5587 41.6839 41.1213 41.1213C41.6839 40.5587 42 39.7957 42 39V18C42 17.2044 41.6839 16.4413 41.1213 15.8787C40.5587 15.3161 39.7957 15 39 15ZM39 39H9V18H39V39ZM26.25 28.5C26.25 28.945 26.118 29.38 25.8708 29.75C25.6236 30.12 25.2722 30.4084 24.861 30.5787C24.4499 30.749 23.9975 30.7936 23.561 30.7068C23.1246 30.62 22.7237 30.4057 22.409 30.091C22.0943 29.7763 21.88 29.3754 21.7932 28.939C21.7064 28.5025 21.751 28.0501 21.9213 27.639C22.0916 27.2278 22.38 26.8764 22.75 26.6292C23.12 26.382 23.555 26.25 24 26.25C24.5967 26.25 25.169 26.4871 25.591 26.909C26.0129 27.331 26.25 27.9033 26.25 28.5Z" fill="white"/>
</g>
</svg>
