<svg width="48" height="48" viewBox="0 0 48 48" fill="none" xmlns="http://www.w3.org/2000/svg">
<g id="HandDeposit">
<path id="Vector" d="M24 6.61985V23.9992C24 24.3971 23.842 24.7786 23.5607 25.0599C23.2794 25.3412 22.8978 25.4992 22.5 25.4992C22.1022 25.4992 21.7206 25.3412 21.4393 25.0599C21.158 24.7786 21 24.3971 21 23.9992V6.61985L17.5613 10.0605C17.4219 10.1998 17.2564 10.3104 17.0743 10.3858C16.8923 10.4612 16.6971 10.5001 16.5 10.5001C16.102 10.5001 15.7202 10.3419 15.4387 10.0605C15.2994 9.92111 15.1888 9.75566 15.1134 9.57357C15.038 9.39148 14.9992 9.19632 14.9992 8.99923C14.9992 8.60118 15.1573 8.21944 15.4387 7.93798L21.4387 1.93798C21.5781 1.79851 21.7435 1.68787 21.9256 1.61239C22.1077 1.5369 22.3029 1.49805 22.5 1.49805C22.6971 1.49805 22.8923 1.5369 23.0744 1.61239C23.2565 1.68787 23.4219 1.79851 23.5613 1.93798L29.5613 7.93798C29.8427 8.21944 30.0008 8.60118 30.0008 8.99923C30.0008 9.39727 29.8427 9.77902 29.5613 10.0605C29.2798 10.3419 28.898 10.5001 28.5 10.5001C28.102 10.5001 27.7202 10.3419 27.4387 10.0605L24 6.61985ZM36 23.178V17.9992C36 17.2036 35.6839 16.4405 35.1213 15.8779C34.5587 15.3153 33.7956 14.9992 33 14.9992H30C29.6022 14.9992 29.2206 15.1573 28.9393 15.4386C28.658 15.7199 28.5 16.1014 28.5 16.4992C28.5 16.8971 28.658 17.2786 28.9393 17.5599C29.2206 17.8412 29.6022 17.9992 30 17.9992H33V33.0742C32.1055 32.1604 30.9082 31.6045 29.6329 31.5109C28.3575 31.4172 27.0919 31.7922 26.0734 32.5655C25.055 33.3389 24.3538 34.4573 24.1015 35.7109C23.8492 36.9645 24.0631 38.2671 24.7031 39.3742L24.7481 39.4455L28.9219 45.8205C29.1397 46.1534 29.4808 46.3862 29.8703 46.4676C30.2597 46.549 30.6655 46.4723 30.9984 46.2545C31.3314 46.0367 31.5641 45.6956 31.6455 45.3062C31.7269 44.9167 31.6503 44.5109 31.4325 44.178L27.2831 37.8424C26.989 37.3229 26.9132 36.708 27.0725 36.1327C27.2318 35.5574 27.6131 35.069 28.1325 34.7748C28.6519 34.4807 29.2669 34.4049 29.8422 34.5642C30.4174 34.7235 30.9059 35.1048 31.2 35.6242C31.2131 35.6486 31.2281 35.673 31.2431 35.6955L33.2456 38.7536C33.4226 39.0235 33.682 39.2292 33.9852 39.34C34.2884 39.4508 34.6193 39.4608 34.9286 39.3685C35.2379 39.2763 35.5093 39.0867 35.7023 38.828C35.8953 38.5693 35.9997 38.2552 36 37.9324V26.9992C37.4138 28.308 38.543 29.8939 39.3172 31.6581C40.0914 33.4223 40.494 35.327 40.5 37.2536V44.9992C40.5 45.397 40.658 45.7786 40.9393 46.0599C41.2206 46.3412 41.6022 46.4992 42 46.4992C42.3978 46.4992 42.7794 46.3412 43.0607 46.0599C43.342 45.7786 43.5 45.397 43.5 44.9992V37.2461C43.4915 34.4674 42.8037 31.733 41.4965 29.281C40.1893 26.8289 38.3023 24.7338 36 23.178ZM15 14.9992H12C11.2044 14.9992 10.4413 15.3153 9.87868 15.8779C9.31607 16.4405 9 17.2036 9 17.9992V37.4992C9 37.897 9.15804 38.2786 9.43934 38.5599C9.72064 38.8412 10.1022 38.9992 10.5 38.9992C10.8978 38.9992 11.2794 38.8412 11.5607 38.5599C11.842 38.2786 12 37.897 12 37.4992V17.9992H15C15.3978 17.9992 15.7794 17.8412 16.0607 17.5599C16.342 17.2786 16.5 16.8971 16.5 16.4992C16.5 16.1014 16.342 15.7199 16.0607 15.4386C15.7794 15.1573 15.3978 14.9992 15 14.9992Z" fill="white"/>
</g>
</svg>
