<svg width="48" height="48" viewBox="0 0 48 48" fill="none" xmlns="http://www.w3.org/2000/svg">
<g id="Group 2554">
<path id="Vector" d="M24 0C37.2542 0 48 10.7458 48 24C48 37.2542 37.2538 48 24 48C10.7462 48 0 37.2571 0 24C0 10.7429 10.7443 0 24 0Z" fill="#53AE94"/>
<path id="Vector_2" d="M26.9613 20.7991V17.2289H35.1256V11.7891H12.8939V17.2289H21.0592V20.7963C14.4232 21.1011 9.43359 22.4153 9.43359 23.9897C9.43359 25.5641 14.4256 26.8783 21.0592 27.1851V38.6211H26.9632V27.1841C33.5872 26.8783 38.5667 25.5651 38.5667 23.9921C38.5667 22.4191 33.5872 21.1059 26.9632 20.8001L26.9613 20.7991ZM26.9632 26.2155V26.2126C26.7966 26.2231 25.9408 26.2745 24.0352 26.2745C22.5117 26.2745 21.4398 26.2313 21.0621 26.2116V26.2164C15.1994 25.9567 10.8232 24.9358 10.8232 23.7142C10.8232 22.4926 15.1998 21.4731 21.0621 21.2129V25.1993C21.4461 25.2257 22.5443 25.2905 24.0602 25.2905C25.8808 25.2905 26.7962 25.2147 26.9642 25.1993V21.2129C32.8154 21.4735 37.1814 22.4955 37.1814 23.7127C37.1814 24.93 32.8134 25.9524 26.9642 26.2131" fill="white"/>
</g>
</svg>
