<svg width="97" height="96" viewBox="0 0 97 96" fill="none" xmlns="http://www.w3.org/2000/svg">
<rect x="0.332031" width="96" height="96" rx="48" fill="#2169FC"/>
<path d="M72.332 48C72.332 48.5304 72.1213 49.0391 71.7462 49.4142C71.3712 49.7893 70.8625 50 70.332 50H50.332V70C50.332 70.5304 50.1213 71.0391 49.7462 71.4142C49.3712 71.7893 48.8625 72 48.332 72C47.8016 72 47.2929 71.7893 46.9178 71.4142C46.5427 71.0391 46.332 70.5304 46.332 70V50H26.332C25.8016 50 25.2929 49.7893 24.9178 49.4142C24.5427 49.0391 24.332 48.5304 24.332 48C24.332 47.4696 24.5427 46.9609 24.9178 46.5858C25.2929 46.2107 25.8016 46 26.332 46H46.332V26C46.332 25.4696 46.5427 24.9609 46.9178 24.5858C47.2929 24.2107 47.8016 24 48.332 24C48.8625 24 49.3712 24.2107 49.7462 24.5858C50.1213 24.9609 50.332 25.4696 50.332 26V46H70.332C70.8625 46 71.3712 46.2107 71.7462 46.5858C72.1213 46.9609 72.332 47.4696 72.332 48Z" fill="white"/>
</svg>
