<svg width="48" height="48" viewBox="0 0 48 48" fill="none" xmlns="http://www.w3.org/2000/svg">
<g id="bitcoin-btc-logo 1" clip-path="url(#clip0_13301_8134)">
<g id="Layer_x0020_1">
<g id="_1421344023328">
<path id="Vector" d="M47.2766 29.8057C44.0712 42.663 31.0489 50.4877 18.1901 47.2815C5.33666 44.0761 -2.48802 31.053 0.718765 18.1967C3.92273 5.33806 16.9451 -2.48721 29.7999 0.718162C42.6577 3.92353 50.4819 16.9481 47.2762 29.8059L47.2764 29.8057H47.2766Z" fill="#F7931A"/>
<path id="Vector_2" d="M34.5274 20.6568C35.0051 17.463 32.5735 15.7461 29.2485 14.6008L30.3271 10.2745L27.6935 9.61822L26.6435 13.8307C25.9511 13.658 25.2401 13.4953 24.5334 13.334L25.5911 9.09373L22.9591 8.4375L21.8799 12.7625C21.3069 12.632 20.7442 12.5031 20.1982 12.3673L20.2013 12.3537L16.5695 11.4467L15.8689 14.2596C15.8689 14.2596 17.8228 14.7075 17.7817 14.735C18.8481 15.0012 19.041 15.7072 19.0089 16.2668L17.7802 21.1955C17.8537 21.2142 17.9489 21.2412 18.054 21.2834C17.9662 21.2616 17.8727 21.2378 17.7757 21.2145L16.0534 28.119C15.9231 28.443 15.5923 28.9293 14.8467 28.7446C14.8731 28.7829 12.9325 28.267 12.9325 28.267L11.625 31.2816L15.0522 32.136C15.6898 32.2958 16.3146 32.4631 16.9299 32.6204L15.8401 36.9964L18.4706 37.6527L19.5499 33.3231C20.2685 33.5182 20.9659 33.6982 21.6487 33.8678L20.573 38.1769L23.2068 38.8332L24.2965 34.4654C28.7873 35.3153 32.1641 34.9726 33.5854 30.9107C34.7307 27.6403 33.5284 25.754 31.1658 24.5238C32.8866 24.127 34.1827 22.9952 34.5283 20.6572L34.5275 20.6566L34.5274 20.6568ZM28.5102 29.0945C27.6963 32.3648 22.19 30.597 20.4048 30.1537L21.851 24.3562C23.6361 24.8019 29.3608 25.6838 28.5103 29.0945H28.5102ZM29.3247 20.6094C28.5822 23.5842 23.9993 22.0729 22.5126 21.7023L23.8238 16.4444C25.3105 16.8149 30.0981 17.5066 29.3249 20.6094H29.3247Z" fill="white"/>
</g>
</g>
</g>
<defs>
<clipPath id="clip0_13301_8134">
<rect width="48" height="48" fill="white"/>
</clipPath>
</defs>
</svg>
