<svg width="96" height="96" viewBox="0 0 96 96" fill="none" xmlns="http://www.w3.org/2000/svg">
<rect width="96" height="96" rx="48" fill="#2169FC"/>
<path d="M65.4175 62.5925C65.7908 62.9673 66.0003 63.4748 66.0003 64.0037C66.0003 64.5327 65.7908 65.0402 65.4175 65.415C65.145 65.6825 58.705 72 48 72C38.6525 72 31.8675 66.4 28 62.0375V68C28 68.5304 27.7893 69.0391 27.4142 69.4142C27.0391 69.7893 26.5304 70 26 70C25.4696 70 24.9609 69.7893 24.5858 69.4142C24.2107 69.0391 24 68.5304 24 68V56C24 55.4696 24.2107 54.9609 24.5858 54.5858C24.9609 54.2107 25.4696 54 26 54H38C38.5304 54 39.0391 54.2107 39.4142 54.5858C39.7893 54.9609 40 55.4696 40 56C40 56.5304 39.7893 57.0391 39.4142 57.4142C39.0391 57.7893 38.5304 58 38 58H29.86C32.94 61.8375 39.25 68 48 68C57 68 62.535 62.635 62.59 62.58C62.9667 62.2069 63.4761 61.9986 64.0063 62.0009C64.5365 62.0033 65.0441 62.216 65.4175 62.5925ZM70 26C69.4696 26 68.9609 26.2107 68.5858 26.5858C68.2107 26.9609 68 27.4696 68 28V33.9625C64.1325 29.6 57.3475 24 48 24C37.295 24 30.855 30.3175 30.585 30.585C30.2091 30.9596 29.9973 31.4682 29.9964 31.999C29.9955 32.5297 30.2054 33.0391 30.58 33.415C30.9546 33.7909 31.4632 34.0027 31.994 34.0036C32.5247 34.0045 33.0341 33.7946 33.41 33.42C33.465 33.365 39 28 48 28C56.75 28 63.06 34.1625 66.14 38H58C57.4696 38 56.9609 38.2107 56.5858 38.5858C56.2107 38.9609 56 39.4696 56 40C56 40.5304 56.2107 41.0391 56.5858 41.4142C56.9609 41.7893 57.4696 42 58 42H70C70.5304 42 71.0391 41.7893 71.4142 41.4142C71.7893 41.0391 72 40.5304 72 40V28C72 27.4696 71.7893 26.9609 71.4142 26.5858C71.0391 26.2107 70.5304 26 70 26Z" fill="white"/>
</svg>
