<svg width="48" height="48" viewBox="0 0 48 48" fill="none" xmlns="http://www.w3.org/2000/svg">
<rect x="0.25" y="0.25" width="47.5" height="47.5" rx="23.75" fill="#ECEFF0"/>
<rect x="0.25" y="0.25" width="47.5" height="47.5" rx="23.75" stroke="#C9CBCE" stroke-width="0.5"/>
<path d="M23.9944 3.75L23.7227 4.67299V31.4537L23.9944 31.7248L36.4254 24.3767L23.9944 3.75Z" fill="#343434"/>
<path d="M23.9939 3.75L11.5625 24.3767L23.9939 31.7248V18.7262V3.75Z" fill="#8C8C8C"/>
<path d="M23.993 34.0767L23.8398 34.2635V43.8032L23.993 44.2502L36.4316 26.7324L23.993 34.0767Z" fill="#3C3C3B"/>
<path d="M23.9939 44.2502V34.0767L11.5625 26.7324L23.9939 44.2502Z" fill="#8C8C8C"/>
<path d="M23.9961 31.7242L36.4271 24.3761L23.9961 18.7256V31.7242Z" fill="#141414"/>
<path d="M11.5625 24.3761L23.9939 31.7242V18.7256L11.5625 24.3761Z" fill="#393939"/>
</svg>
