<svg width="97" height="96" viewBox="0 0 97 96" fill="none" xmlns="http://www.w3.org/2000/svg">
<rect x="0.664062" width="96" height="96" rx="48" fill="#2169FC"/>
<path d="M73.496 23.1707C72.993 22.668 72.3651 22.3085 71.677 22.1292C70.9889 21.9499 70.2654 21.9573 69.581 22.1507H69.5435L21.5585 36.7107C20.7774 36.9353 20.0833 37.3926 19.5685 38.0215C19.0538 38.6505 18.7429 39.4214 18.6772 40.2315C18.6115 41.0416 18.7941 41.8525 19.2008 42.5562C19.6074 43.26 20.2188 43.8231 20.9535 44.1707L42.3585 54.3082L52.496 75.7132C52.8161 76.3986 53.3256 76.9782 53.9644 77.3836C54.6031 77.7889 55.3445 78.003 56.101 78.0007C56.216 78.0007 56.331 77.9957 56.446 77.9857C57.2533 77.9203 58.0212 77.6096 58.6469 77.0953C59.2725 76.5809 59.7258 75.8875 59.946 75.1082L74.496 27.1232C74.496 27.1107 74.496 27.0982 74.496 27.0857C74.6919 26.4031 74.7025 25.6807 74.5267 24.9926C74.351 24.3046 73.9952 23.6757 73.496 23.1707ZM56.1235 73.9632L56.111 73.9982L46.271 53.2257L58.081 41.4132C58.4403 41.035 58.6376 40.5315 58.6309 40.01C58.6242 39.4885 58.4141 38.9902 58.0453 38.6214C57.6765 38.2526 57.1782 38.0425 56.6567 38.0358C56.1352 38.0291 55.6317 38.2264 55.2535 38.5857L43.441 50.3957L22.666 40.5557H22.701L70.666 26.0007L56.1235 73.9632Z" fill="white"/>
</svg>
