<svg width="48" height="48" viewBox="0 0 48 48" fill="none" xmlns="http://www.w3.org/2000/svg">
<g id="Crypto" clip-path="url(#clip0_11968_6542)">
<path id="Vector" d="M24 48C37.3001 48 48 37.3001 48 24C48 10.6999 37.3001 0 24 0C10.6999 0 0 10.6999 0 24C0 37.3001 10.6999 48 24 48Z" fill="#2775CA"/>
<path id="Vector_2" d="M30.5952 27.8002C30.5952 24.3003 28.4952 23.1003 24.2952 22.6004C21.2952 22.2003 20.6952 21.4004 20.6952 20.0002C20.6952 18.6 21.6953 17.7003 23.6952 17.7003C25.4952 17.7003 26.4953 18.3003 26.9952 19.8003C27.0953 20.1003 27.3953 20.3002 27.6953 20.3002H29.2952C29.6952 20.3002 29.9952 20.0002 29.9952 19.6004V19.5003C29.5952 17.3002 27.7952 15.6003 25.4952 15.4004V13.0004C25.4952 12.6003 25.1952 12.3003 24.6953 12.2002H23.1953C22.7952 12.2002 22.4952 12.5002 22.3952 13.0004V15.3003C19.3952 15.7004 17.4953 17.7003 17.4953 20.2004C17.4953 23.5004 19.4952 24.8002 23.6952 25.3004C26.4953 25.8003 27.3953 26.4003 27.3953 28.0004C27.3953 29.6004 25.9952 30.7004 24.0953 30.7004C21.4952 30.7004 20.5952 29.6002 20.2952 28.1002C20.1953 27.7004 19.8953 27.5002 19.5953 27.5002H17.8952C17.4953 27.5002 17.1953 27.8002 17.1953 28.2003V28.3004C17.5952 30.8002 19.1952 32.6002 22.4952 33.1004V35.5004C22.4952 35.9002 22.7952 36.2002 23.2952 36.3003H24.7952C25.1952 36.3003 25.4952 36.0003 25.5953 35.5004V33.1004C28.5953 32.6002 30.5952 30.5002 30.5952 27.8002Z" fill="white"/>
<path id="Vector_3" d="M18.902 38.2998C11.102 35.5 7.10187 26.8 10.002 19.0998C11.502 14.8998 14.802 11.6999 18.902 10.1999C19.302 10 19.502 9.7 19.502 9.19984V7.79992C19.502 7.39984 19.302 7.09984 18.902 7C18.8019 7 18.602 7 18.5019 7.09984C9.00195 10.0998 3.80187 20.2 6.80187 29.6999C8.60187 35.2998 12.902 39.5999 18.5019 41.3999C18.902 41.5998 19.302 41.3999 19.4019 40.9998C19.502 40.9 19.502 40.7999 19.502 40.6V39.1998C19.502 38.8998 19.202 38.5 18.902 38.2998ZM29.502 7.09984C29.102 6.89992 28.7019 7.09984 28.602 7.49992C28.502 7.6 28.502 7.69984 28.502 7.9V9.29992C28.502 9.7 28.802 10.0998 29.102 10.3C36.902 13.0998 40.902 21.7998 38.0019 29.5C36.5019 33.7 33.2019 36.8999 29.102 38.3999C28.7019 38.5998 28.502 38.8998 28.502 39.4V40.7999C28.502 41.2 28.7019 41.5 29.102 41.5998C29.202 41.5998 29.402 41.5998 29.502 41.5C39.002 38.5 44.202 28.3998 41.202 18.8999C39.402 13.1999 35.0019 8.89984 29.502 7.09984Z" fill="white"/>
</g>
<defs>
<clipPath id="clip0_11968_6542">
<rect width="48" height="48" fill="white"/>
</clipPath>
</defs>
</svg>
