<svg width="97" height="96" viewBox="0 0 97 96" fill="none" xmlns="http://www.w3.org/2000/svg">
<rect x="0.332031" width="96" height="96" rx="48" fill="#2169FC"/>
<path d="M75.7469 42.5866L55.7469 22.5866C55.4673 22.3067 55.111 22.116 54.7231 22.0386C54.3352 21.9613 53.933 22.0007 53.5675 22.1519C53.2019 22.303 52.8894 22.5592 52.6695 22.8881C52.4495 23.2169 52.3321 23.6035 52.3319 23.9991V34.0866C45.8469 34.6416 38.6844 37.8166 32.7919 42.8141C25.6969 48.8341 21.2794 56.5916 20.3519 64.6566C20.2794 65.2836 20.4065 65.9175 20.7152 66.4681C21.0238 67.0187 21.4983 67.4579 22.071 67.7232C22.6437 67.9885 23.2856 68.0664 23.9051 67.9458C24.5247 67.8252 25.0905 67.5123 25.5219 67.0516C28.2719 64.1241 38.0569 54.8666 52.3319 54.0516V63.9991C52.3321 64.3947 52.4495 64.7813 52.6695 65.1101C52.8894 65.4389 53.2019 65.6951 53.5675 65.8463C53.933 65.9975 54.3352 66.0369 54.7231 65.9595C55.111 65.8821 55.4673 65.6914 55.7469 65.4116L75.7469 45.4116C76.1209 45.0366 76.331 44.5287 76.331 43.9991C76.331 43.4695 76.1209 42.9615 75.7469 42.5866ZM56.3319 59.1716V51.9991C56.3319 51.4686 56.1212 50.9599 55.7461 50.5849C55.371 50.2098 54.8623 49.9991 54.3319 49.9991C47.3119 49.9991 40.4744 51.8316 34.0094 55.4491C30.7167 57.2996 27.6489 59.5244 24.8669 62.0791C26.3169 56.1191 29.9719 50.4516 35.3794 45.8641C41.1844 40.9416 48.2694 37.9991 54.3319 37.9991C54.8623 37.9991 55.371 37.7884 55.7461 37.4133C56.1212 37.0382 56.3319 36.5295 56.3319 35.9991V28.8291L71.5044 43.9991L56.3319 59.1716Z" fill="white"/>
</svg>
