<svg width="48" height="48" viewBox="0 0 48 48" fill="none" xmlns="http://www.w3.org/2000/svg">
<g id="Credits">
<path id="Vector" d="M24 48C37.2548 48 48 37.2548 48 24C48 10.7452 37.2548 0 24 0C10.7452 0 0 10.7452 0 24C0 37.2548 10.7452 48 24 48Z" fill="black"/>
<path id="Vector_2" d="M32.2815 29.2326C32.0824 29.1439 31.8665 29.0987 31.6485 29.1004C31.4599 29.1006 31.2727 29.1325 31.0947 29.1948C30.7651 29.3393 30.4715 29.5548 30.2349 29.826C30.1371 29.9289 30.033 30.0254 29.9231 30.1152C28.4113 31.249 27.0147 31.7744 25.3234 31.8424V16.6468C26.822 16.8471 27.9048 17.4462 28.536 18.4326C28.6709 18.662 28.7866 18.9022 28.8818 19.1508C29.0253 19.55 29.2272 19.9257 29.4809 20.2657C29.5092 20.3016 29.6226 20.4263 29.6434 20.4547C29.9162 20.7157 30.2807 20.8589 30.6582 20.8534C30.8631 20.8572 31.0662 20.8161 31.2536 20.7332C31.4409 20.6503 31.6079 20.5275 31.7429 20.3734C32.0291 19.9863 32.1732 19.5125 32.1511 19.0317C32.1511 18.7671 32.1719 18.5933 32.1814 18.4648C32.2051 18.2131 32.2013 17.9597 32.17 17.7089C32.0094 16.3312 31.6239 16.0667 30.4258 15.4411L30.0478 15.2427C28.2204 14.2619 27.147 14.0371 25.3347 13.7971C25.5143 10.9983 26.0661 10.0175 26.6481 9.39012C26.8298 9.20463 27.0477 9.05856 27.2883 8.96102C27.5289 8.86348 27.787 8.81656 28.0466 8.82319C28.1388 8.82315 28.2309 8.82883 28.3225 8.8402C27.7555 9.82288 27.901 10.8604 28.7004 11.5388C29.1599 11.8866 29.7251 12.0655 30.301 12.0452C30.813 12.0654 31.3174 11.9174 31.7373 11.6238C32.7672 10.8018 32.7672 9.33721 32.1757 8.45469C31.486 7.46225 30.4378 6.77654 29.2522 6.54225C28.1637 6.31265 27.0325 6.39261 25.9871 6.77304C24.9417 7.15348 24.0237 7.81918 23.3373 8.69469L23.2636 8.7854C22.7703 9.37878 21.4966 10.9114 21.387 13.7838C15.5666 15.0424 12.3672 18.6254 12.3672 23.913C12.3672 27.1445 13.5502 32.7949 21.3889 34.7508C21.3889 34.8585 21.3889 34.9662 21.3889 35.0701C21.353 36.1832 21.3284 36.9882 20.684 38.2204C20.5098 38.5153 20.2607 38.7591 19.9621 38.927C19.6635 39.0949 19.3258 39.181 18.9833 39.1766C18.8564 39.1776 18.7297 39.1656 18.6053 39.1407C18.7537 38.8232 18.8219 38.474 18.8037 38.124C18.7949 37.8272 18.7179 37.5365 18.5786 37.2743C18.4393 37.0122 18.2415 36.7856 18.0006 36.6122C17.9849 36.601 17.9685 36.5909 17.9514 36.5819C17.5493 36.3467 17.0943 36.2167 16.6286 36.204C16.0722 36.2123 15.5397 36.4316 15.1387 36.8174C14.7377 37.2033 14.4982 37.727 14.4686 38.2827C14.4604 38.6516 14.5254 39.0185 14.6601 39.362C14.7947 39.7055 14.9962 40.0189 15.2529 40.284C15.6613 40.7623 16.1713 41.1435 16.7457 41.3998C17.3201 41.6561 17.9444 41.781 18.5732 41.7656C19.0813 41.76 19.5876 41.7049 20.085 41.6012C22.2639 41.0645 23.8532 39.683 24.8094 37.4947C25.1382 36.7388 25.2516 35.4632 25.2875 34.7848C26.4795 34.6597 27.6445 34.3485 28.7401 33.8626C31.0381 32.8062 31.7637 32.0616 32.3307 31.4645L32.4799 31.3095C33.0261 30.7426 32.9996 30.2304 32.8806 29.8884C32.7754 29.5992 32.56 29.3635 32.2815 29.2326ZM21.4003 24.2852C21.4003 26.7797 21.4003 29.2648 21.4003 31.712C18.9436 30.9958 17.2636 28.1007 17.2636 24.4175C17.2636 21.4034 18.0025 17.707 21.421 16.7243C21.4059 19.2339 21.4022 21.7643 21.4003 24.2852Z" fill="white"/>
</g>
</svg>
