<svg width="48" height="48" viewBox="0 0 48 48" fill="none" xmlns="http://www.w3.org/2000/svg">
<g id="Flag_of_Europe 2" clip-path="url(#clip0_13301_4460)">
<path id="Vector" d="M66 -4H-18V52H66V-4Z" fill="#003399"/>
<g id="Group">
<g id="s">
<g id="c">
<path id="t" d="M23.9922 2.23438L23.0308 5.19322L24.5102 5.67391L23.9922 2.23438Z" fill="#FFCC00"/>
<path id="Vector_2" d="M23.9922 2.23438L24.9536 5.19322L23.4742 5.67391L23.9922 2.23438Z" fill="#FFCC00"/>
</g>
<g id="a">
<g id="c_2">
<path id="t_2" d="M26.9609 4.38672H23.8498V5.94227L26.9609 4.38672Z" fill="#FFCC00"/>
<path id="Vector_3" d="M26.9609 4.38672L24.444 6.21538L23.5297 4.95691L26.9609 4.38672Z" fill="#FFCC00"/>
</g>
<g id="c_3">
<path id="t_3" d="M25.8203 7.8623L24.8589 4.90346L23.3795 5.38416L25.8203 7.8623Z" fill="#FFCC00"/>
<path id="Vector_4" d="M25.8203 7.8623L23.3034 6.03364L24.2177 4.77517L25.8203 7.8623Z" fill="#FFCC00"/>
</g>
</g>
<g id="a_2">
<g id="c_4">
<path id="t_4" d="M21.0312 4.38672H24.1424V5.94227L21.0312 4.38672Z" fill="#FFCC00"/>
<path id="Vector_5" d="M21.0312 4.38672L23.5482 6.21538L24.4625 4.95691L21.0312 4.38672Z" fill="#FFCC00"/>
</g>
<g id="c_5">
<path id="t_5" d="M22.1719 7.8623L23.1333 4.90346L24.6127 5.38416L22.1719 7.8623Z" fill="#FFCC00"/>
<path id="Vector_6" d="M22.1719 7.8623L24.6888 6.03364L23.7745 4.77517L22.1719 7.8623Z" fill="#FFCC00"/>
</g>
</g>
</g>
<g id="s_2">
<g id="c_6">
<path id="t_6" d="M23.9922 39.5703L23.0308 42.5292L24.5102 43.0098L23.9922 39.5703Z" fill="#FFCC00"/>
<path id="Vector_7" d="M23.9922 39.5703L24.9536 42.5292L23.4742 43.0098L23.9922 39.5703Z" fill="#FFCC00"/>
</g>
<g id="a_3">
<g id="c_7">
<path id="t_7" d="M26.9609 41.7188H23.8498V43.2743L26.9609 41.7188Z" fill="#FFCC00"/>
<path id="Vector_8" d="M26.9609 41.7188L24.444 43.5474L23.5297 42.2889L26.9609 41.7188Z" fill="#FFCC00"/>
</g>
<g id="c_8">
<path id="t_8" d="M25.8203 45.2002L24.8589 42.2414L23.3795 42.722L25.8203 45.2002Z" fill="#FFCC00"/>
<path id="Vector_9" d="M25.8203 45.2002L23.3034 43.3715L24.2177 42.1131L25.8203 45.2002Z" fill="#FFCC00"/>
</g>
</g>
<g id="a_4">
<g id="c_9">
<path id="t_9" d="M21.0312 41.7188H24.1424V43.2743L21.0312 41.7188Z" fill="#FFCC00"/>
<path id="Vector_10" d="M21.0312 41.7188L23.5482 43.5474L24.4625 42.2889L21.0312 41.7188Z" fill="#FFCC00"/>
</g>
<g id="c_10">
<path id="t_10" d="M22.1719 45.2002L23.1333 42.2414L24.6127 42.722L22.1719 45.2002Z" fill="#FFCC00"/>
<path id="Vector_11" d="M22.1719 45.2002L24.6888 43.3715L23.7745 42.1131L22.1719 45.2002Z" fill="#FFCC00"/>
</g>
</g>
</g>
<g id="l">
<g id="s_3">
<g id="c_11">
<path id="t_11" d="M5.33594 20.8848L4.37455 23.8436L5.85397 24.3243L5.33594 20.8848Z" fill="#FFCC00"/>
<path id="Vector_12" d="M5.33594 20.8848L6.29732 23.8436L4.8179 24.3243L5.33594 20.8848Z" fill="#FFCC00"/>
</g>
<g id="a_5">
<g id="c_12">
<path id="t_12" d="M8.29688 23.043H5.18576V24.5985L8.29688 23.043Z" fill="#FFCC00"/>
<path id="Vector_13" d="M8.29688 23.043L5.77993 24.8716L4.8656 23.6132L8.29688 23.043Z" fill="#FFCC00"/>
</g>
<g id="c_13">
<path id="t_13" d="M7.15625 26.5186L6.19486 23.5597L4.71544 24.0404L7.15625 26.5186Z" fill="#FFCC00"/>
<path id="Vector_14" d="M7.15625 26.5186L4.63931 24.6899L5.55364 23.4314L7.15625 26.5186Z" fill="#FFCC00"/>
</g>
</g>
<g id="a_6">
<g id="c_14">
<path id="t_14" d="M2.36719 23.043H5.4783V24.5985L2.36719 23.043Z" fill="#FFCC00"/>
<path id="Vector_15" d="M2.36719 23.043L4.88413 24.8716L5.79846 23.6132L2.36719 23.043Z" fill="#FFCC00"/>
</g>
<g id="c_15">
<path id="t_15" d="M3.5 26.5186L4.46139 23.5597L5.94081 24.0404L3.5 26.5186Z" fill="#FFCC00"/>
<path id="Vector_16" d="M3.5 26.5186L6.01694 24.6899L5.10261 23.4314L3.5 26.5186Z" fill="#FFCC00"/>
</g>
</g>
</g>
<g id="s_4">
<g id="c_16">
<path id="t_16" d="M12.8281 10.3496L15.3451 8.52094L14.4307 7.26247L12.8281 10.3496Z" fill="#FFCC00"/>
<path id="Vector_17" d="M12.8281 10.3496L13.7895 7.39077L15.2689 7.87146L12.8281 10.3496Z" fill="#FFCC00"/>
</g>
<g id="a_7">
<g id="c_17">
<path id="t_17" d="M11.7031 6.87793L14.2201 8.7066L15.1344 7.44812L11.7031 6.87793Z" fill="#FFCC00"/>
<path id="Vector_18" d="M11.7031 6.87793H14.8142V8.43348L11.7031 6.87793Z" fill="#FFCC00"/>
</g>
<g id="c_18">
<path id="t_18" d="M14.6484 4.72168L13.6871 7.68052L15.1665 8.16122L14.6484 4.72168Z" fill="#FFCC00"/>
<path id="Vector_19" d="M14.6484 4.72168L15.6098 7.68052L14.1304 8.16122L14.6484 4.72168Z" fill="#FFCC00"/>
</g>
</g>
<g id="a_8">
<g id="c_19">
<path id="t_19" d="M16.4922 10.3486L13.9752 8.51997L14.8896 7.2615L16.4922 10.3486Z" fill="#FFCC00"/>
<path id="Vector_20" d="M16.4922 10.3486L15.5308 7.38979L14.0514 7.87048L16.4922 10.3486Z" fill="#FFCC00"/>
</g>
<g id="c_20">
<path id="t_20" d="M17.6172 6.87793L15.1002 8.7066L14.1859 7.44812L17.6172 6.87793Z" fill="#FFCC00"/>
<path id="Vector_21" d="M17.6172 6.87793H14.5061V8.43348L17.6172 6.87793Z" fill="#FFCC00"/>
</g>
</g>
</g>
<g id="s_5">
<g id="c_21">
<path id="t_21" d="M9.64844 17.1885L8.68705 14.2296L7.20763 14.7103L9.64844 17.1885Z" fill="#FFCC00"/>
<path id="Vector_22" d="M9.64844 17.1885L7.1315 15.3598L8.04583 14.1013L9.64844 17.1885Z" fill="#FFCC00"/>
</g>
<g id="a_9">
<g id="c_22">
<path id="t_22" d="M5.99219 17.1826L8.50913 15.354L7.5948 14.0955L5.99219 17.1826Z" fill="#FFCC00"/>
<path id="Vector_23" d="M5.99219 17.1826L6.95357 14.2238L8.433 14.7045L5.99219 17.1826Z" fill="#FFCC00"/>
</g>
<g id="c_23">
<path id="t_23" d="M4.86719 13.7061L7.38413 15.5347L8.29846 14.2762L4.86719 13.7061Z" fill="#FFCC00"/>
<path id="Vector_24" d="M4.86719 13.7061H7.9783V15.2616L4.86719 13.7061Z" fill="#FFCC00"/>
</g>
</g>
<g id="a_10">
<g id="c_24">
<path id="t_24" d="M10.7812 13.7061L8.26431 15.5347L7.34997 14.2762L10.7812 13.7061Z" fill="#FFCC00"/>
<path id="Vector_25" d="M10.7812 13.7061H7.67014V15.2616L10.7812 13.7061Z" fill="#FFCC00"/>
</g>
<g id="c_25">
<path id="t_25" d="M7.82812 11.5596L8.78951 14.5184L7.31009 14.9991L7.82812 11.5596Z" fill="#FFCC00"/>
<path id="Vector_26" d="M7.82812 11.5596L6.86674 14.5184L8.34616 14.9991L7.82812 11.5596Z" fill="#FFCC00"/>
</g>
</g>
</g>
<g id="s_6">
<g id="c_26">
<path id="t_26" d="M10.7891 32.377H7.67795V33.9325L10.7891 32.377Z" fill="#FFCC00"/>
<path id="Vector_27" d="M10.7891 32.377L8.27212 34.2056L7.35779 32.9471L10.7891 32.377Z" fill="#FFCC00"/>
</g>
<g id="a_11">
<g id="c_27">
<path id="t_27" d="M9.65625 35.8477L8.69486 32.8888L7.21544 33.3695L9.65625 35.8477Z" fill="#FFCC00"/>
<path id="Vector_28" d="M9.65625 35.8477L7.13931 34.019L8.05364 32.7605L9.65625 35.8477Z" fill="#FFCC00"/>
</g>
<g id="c_28">
<path id="t_28" d="M6 35.8516L8.51694 34.0229L7.60261 32.7644L6 35.8516Z" fill="#FFCC00"/>
<path id="Vector_29" d="M6 35.8516L6.96139 32.8927L8.44081 33.3734L6 35.8516Z" fill="#FFCC00"/>
</g>
</g>
<g id="a_12">
<g id="c_29">
<path id="t_29" d="M7.83594 30.2295L8.79732 33.1883L7.3179 33.669L7.83594 30.2295Z" fill="#FFCC00"/>
<path id="Vector_30" d="M7.83594 30.2295L6.87455 33.1883L8.35397 33.669L7.83594 30.2295Z" fill="#FFCC00"/>
</g>
<g id="c_30">
<path id="t_30" d="M4.875 32.377H7.98611V33.9325L4.875 32.377Z" fill="#FFCC00"/>
<path id="Vector_31" d="M4.875 32.377L7.39194 34.2056L8.30628 32.9471L4.875 32.377Z" fill="#FFCC00"/>
</g>
</g>
</g>
<g id="s_7">
<g id="c_31">
<path id="t_31" d="M17.625 39.2148H14.5139V40.7704L17.625 39.2148Z" fill="#FFCC00"/>
<path id="Vector_32" d="M17.625 39.2148L15.1081 41.0435L14.1937 39.785L17.625 39.2148Z" fill="#FFCC00"/>
</g>
<g id="a_13">
<g id="c_32">
<path id="t_32" d="M16.4844 42.6855L15.523 39.7267L14.0436 40.2074L16.4844 42.6855Z" fill="#FFCC00"/>
<path id="Vector_33" d="M16.4844 42.6855L13.9674 40.8569L14.8818 39.5984L16.4844 42.6855Z" fill="#FFCC00"/>
</g>
<g id="c_33">
<path id="t_33" d="M12.8281 42.6787L15.3451 40.85L14.4307 39.5916L12.8281 42.6787Z" fill="#FFCC00"/>
<path id="Vector_34" d="M12.8281 42.6787L13.7895 39.7199L15.2689 40.2006L12.8281 42.6787Z" fill="#FFCC00"/>
</g>
</g>
<g id="a_14">
<g id="c_34">
<path id="t_34" d="M14.6562 37.0645L15.6176 40.0233L14.1382 40.504L14.6562 37.0645Z" fill="#FFCC00"/>
<path id="Vector_35" d="M14.6562 37.0645L13.6949 40.0233L15.1743 40.504L14.6562 37.0645Z" fill="#FFCC00"/>
</g>
<g id="c_35">
<path id="t_35" d="M11.6953 39.2217H14.8064V40.7772L11.6953 39.2217Z" fill="#FFCC00"/>
<path id="Vector_36" d="M11.6953 39.2217L14.2123 41.0503L15.1266 39.7919L11.6953 39.2217Z" fill="#FFCC00"/>
</g>
</g>
</g>
</g>
<g id="l_2">
<g id="s_8">
<g id="c_36">
<path id="t_36" d="M42.6641 20.8896L43.6254 23.8485L42.146 24.3292L42.6641 20.8896Z" fill="#FFCC00"/>
<path id="Vector_37" d="M42.6641 20.8896L41.7027 23.8485L43.1821 24.3292L42.6641 20.8896Z" fill="#FFCC00"/>
</g>
<g id="a_15">
<g id="c_37">
<path id="t_37" d="M39.7031 23.0488H42.8142V24.6044L39.7031 23.0488Z" fill="#FFCC00"/>
<path id="Vector_38" d="M39.7031 23.0488L42.2201 24.8775L43.1344 23.619L39.7031 23.0488Z" fill="#FFCC00"/>
</g>
<g id="c_38">
<path id="t_38" d="M40.8438 26.5244L41.8051 23.5656L43.2846 24.0463L40.8438 26.5244Z" fill="#FFCC00"/>
<path id="Vector_39" d="M40.8438 26.5244L43.3607 24.6957L42.4464 23.4373L40.8438 26.5244Z" fill="#FFCC00"/>
</g>
</g>
<g id="a_16">
<g id="c_39">
<path id="t_39" d="M45.6328 23.0488H42.5217V24.6044L45.6328 23.0488Z" fill="#FFCC00"/>
<path id="Vector_40" d="M45.6328 23.0488L43.1159 24.8775L42.2015 23.619L45.6328 23.0488Z" fill="#FFCC00"/>
</g>
<g id="c_40">
<path id="t_40" d="M44.4922 26.5244L43.5308 23.5656L42.0514 24.0463L44.4922 26.5244Z" fill="#FFCC00"/>
<path id="Vector_41" d="M44.4922 26.5244L41.9752 24.6957L42.8896 23.4373L44.4922 26.5244Z" fill="#FFCC00"/>
</g>
</g>
</g>
<g id="s_9">
<g id="c_41">
<path id="t_41" d="M35.1641 10.3545L32.6471 8.52583L33.5615 7.26736L35.1641 10.3545Z" fill="#FFCC00"/>
<path id="Vector_42" d="M35.1641 10.3545L34.2027 7.39565L32.7233 7.87634L35.1641 10.3545Z" fill="#FFCC00"/>
</g>
<g id="a_17">
<g id="c_42">
<path id="t_42" d="M36.2891 6.87793L33.7721 8.7066L32.8578 7.44812L36.2891 6.87793Z" fill="#FFCC00"/>
<path id="Vector_43" d="M36.2891 6.87793H33.178V8.43348L36.2891 6.87793Z" fill="#FFCC00"/>
</g>
<g id="c_43">
<path id="t_43" d="M33.3359 4.7207L34.2973 7.67955L32.8179 8.16024L33.3359 4.7207Z" fill="#FFCC00"/>
<path id="Vector_44" d="M33.3359 4.7207L32.3746 7.67955L33.854 8.16024L33.3359 4.7207Z" fill="#FFCC00"/>
</g>
</g>
<g id="a_18">
<g id="c_44">
<path id="t_44" d="M31.4922 10.3486L34.0091 8.51997L33.0948 7.2615L31.4922 10.3486Z" fill="#FFCC00"/>
<path id="Vector_45" d="M31.4922 10.3486L32.4536 7.38979L33.933 7.87048L31.4922 10.3486Z" fill="#FFCC00"/>
</g>
<g id="c_45">
<path id="t_45" d="M30.3672 6.87793L32.8841 8.7066L33.7985 7.44812L30.3672 6.87793Z" fill="#FFCC00"/>
<path id="Vector_46" d="M30.3672 6.87793H33.4783V8.43348L30.3672 6.87793Z" fill="#FFCC00"/>
</g>
</g>
</g>
<g id="s_10">
<g id="c_46">
<path id="t_46" d="M38.3438 17.1885L39.3051 14.2296L40.7846 14.7103L38.3438 17.1885Z" fill="#FFCC00"/>
<path id="Vector_47" d="M38.3438 17.1885L40.8607 15.3598L39.9464 14.1013L38.3438 17.1885Z" fill="#FFCC00"/>
</g>
<g id="a_19">
<g id="c_47">
<path id="t_47" d="M42.0078 17.1934L39.4909 15.3647L40.4052 14.1062L42.0078 17.1934Z" fill="#FFCC00"/>
<path id="Vector_48" d="M42.0078 17.1934L41.0464 14.2345L39.567 14.7152L42.0078 17.1934Z" fill="#FFCC00"/>
</g>
<g id="c_48">
<path id="t_48" d="M43.1328 13.7178L40.6159 15.5464L39.7015 14.288L43.1328 13.7178Z" fill="#FFCC00"/>
<path id="Vector_49" d="M43.1328 13.7178H40.0217V15.2733L43.1328 13.7178Z" fill="#FFCC00"/>
</g>
</g>
<g id="a_20">
<g id="c_49">
<path id="t_49" d="M37.2109 13.7178L39.7279 15.5464L40.6422 14.288L37.2109 13.7178Z" fill="#FFCC00"/>
<path id="Vector_50" d="M37.2109 13.7178H40.322V15.2733L37.2109 13.7178Z" fill="#FFCC00"/>
</g>
<g id="c_50">
<path id="t_50" d="M40.1719 11.5713L39.2105 14.5301L40.6899 15.0108L40.1719 11.5713Z" fill="#FFCC00"/>
<path id="Vector_51" d="M40.1719 11.5713L41.1333 14.5301L39.6538 15.0108L40.1719 11.5713Z" fill="#FFCC00"/>
</g>
</g>
</g>
<g id="s_11">
<g id="c_51">
<path id="t_51" d="M37.2031 32.376H40.3142V33.9315L37.2031 32.376Z" fill="#FFCC00"/>
<path id="Vector_52" d="M37.2031 32.376L39.7201 34.2046L40.6344 32.9462L37.2031 32.376Z" fill="#FFCC00"/>
</g>
<g id="a_21">
<g id="c_52">
<path id="t_52" d="M38.3281 35.8535L39.2895 32.8947L40.7689 33.3754L38.3281 35.8535Z" fill="#FFCC00"/>
<path id="Vector_53" d="M38.3281 35.8535L40.8451 34.0249L39.9307 32.7664L38.3281 35.8535Z" fill="#FFCC00"/>
</g>
<g id="c_53">
<path id="t_53" d="M41.9922 35.8574L39.4752 34.0288L40.3896 32.7703L41.9922 35.8574Z" fill="#FFCC00"/>
<path id="Vector_54" d="M41.9922 35.8574L41.0308 32.8986L39.5514 33.3793L41.9922 35.8574Z" fill="#FFCC00"/>
</g>
</g>
<g id="a_22">
<g id="c_54">
<path id="t_54" d="M40.1562 30.2354L39.1949 33.1942L40.6743 33.6749L40.1562 30.2354Z" fill="#FFCC00"/>
<path id="Vector_55" d="M40.1562 30.2354L41.1176 33.1942L39.6382 33.6749L40.1562 30.2354Z" fill="#FFCC00"/>
</g>
<g id="c_55">
<path id="t_55" d="M43.1172 32.3828H40.0061V33.9384L43.1172 32.3828Z" fill="#FFCC00"/>
<path id="Vector_56" d="M43.1172 32.3828L40.6002 34.2115L39.6859 32.953L43.1172 32.3828Z" fill="#FFCC00"/>
</g>
</g>
</g>
<g id="s_12">
<g id="c_56">
<path id="t_56" d="M30.375 39.2148H33.4861V40.7704L30.375 39.2148Z" fill="#FFCC00"/>
<path id="Vector_57" d="M30.375 39.2148L32.8919 41.0435L33.8063 39.785L30.375 39.2148Z" fill="#FFCC00"/>
</g>
<g id="a_23">
<g id="c_57">
<path id="t_57" d="M31.5156 42.6846L32.477 39.7257L33.9564 40.2064L31.5156 42.6846Z" fill="#FFCC00"/>
<path id="Vector_58" d="M31.5156 42.6846L34.0326 40.8559L33.1182 39.5974L31.5156 42.6846Z" fill="#FFCC00"/>
</g>
<g id="c_58">
<path id="t_58" d="M35.1719 42.6777L32.6549 40.8491L33.5693 39.5906L35.1719 42.6777Z" fill="#FFCC00"/>
<path id="Vector_59" d="M35.1719 42.6777L34.2105 39.7189L32.7311 40.1996L35.1719 42.6777Z" fill="#FFCC00"/>
</g>
</g>
<g id="a_24">
<g id="c_59">
<path id="t_59" d="M33.3359 37.0635L32.3746 40.0223L33.854 40.503L33.3359 37.0635Z" fill="#FFCC00"/>
<path id="Vector_60" d="M33.3359 37.0635L34.2973 40.0223L32.8179 40.503L33.3359 37.0635Z" fill="#FFCC00"/>
</g>
<g id="c_60">
<path id="t_60" d="M36.2969 39.2207H33.1858V40.7763L36.2969 39.2207Z" fill="#FFCC00"/>
<path id="Vector_61" d="M36.2969 39.2207L33.7799 41.0494L32.8656 39.7909L36.2969 39.2207Z" fill="#FFCC00"/>
</g>
</g>
</g>
</g>
</g>
</g>
<defs>
<clipPath id="clip0_13301_4460">
<rect width="84" height="56" fill="white" transform="translate(-18 -4)"/>
</clipPath>
</defs>
</svg>
