<svg width="44" height="49" viewBox="0 0 44 49" fill="none" xmlns="http://www.w3.org/2000/svg">
<g id="Group 2481">
<path id="Vector" d="M17.7499 22.6052H24.1187C24.9168 22.6052 25.5638 23.2523 25.5638 24.0503C25.5638 24.8484 24.9168 25.4955 24.1187 25.4955H16.9161C16.8865 25.7849 16.871 26.0791 16.871 26.3775C16.871 26.6289 16.8822 26.8773 16.9033 27.1227H24.1187C24.9168 27.1227 25.5638 27.7698 25.5638 28.5679C25.5638 29.3659 24.9168 30.013 24.1187 30.013H17.6805C18.7299 32.1951 20.6739 33.6252 22.8524 33.6252C24.2788 33.6252 25.6703 33.0019 26.7675 31.8477C27.3171 31.2694 28.2319 31.2465 28.8101 31.7964L17.7499 22.6052ZM17.7499 22.6052C18.8139 20.5004 20.7201 19.1299 22.8524 19.1299C24.2788 19.1299 25.6703 19.7532 26.7676 20.9073C27.3171 21.4854 28.2312 21.509 28.8103 20.9594L28.8105 20.9592C29.3891 20.4092 29.4119 19.4945 28.8627 18.9162L28.8626 18.9161C27.2278 17.1962 25.0938 16.2398 22.8526 16.2398C19.1011 16.2398 15.9221 18.9034 14.6188 22.6055H11.935C11.1369 22.6055 10.4898 23.2525 10.4898 24.0506C10.4898 24.8487 11.1369 25.4957 11.935 25.4957H14.0159C13.9932 25.7858 13.9807 26.0798 13.9807 26.3778C13.9807 26.629 13.9893 26.8773 14.0055 27.123H11.935C11.1369 27.123 10.4898 27.77 10.4898 28.5681C10.4898 29.3662 11.1369 30.0133 11.935 30.0133H14.5718C15.8442 33.7869 19.0548 36.5158 22.8524 36.5158C25.0938 36.5158 27.2273 35.5591 28.862 33.8396L28.8621 33.8395C29.4115 33.2612 29.3892 32.3467 28.8103 31.7965L17.7499 22.6052Z" fill="url(#paint0_linear_12962_22330)" stroke="url(#paint1_linear_12962_22330)" stroke-width="0.7"/>
<path id="Ellipse 442" d="M34.2056 10.3708C37.9633 13.2689 40.5677 17.409 41.5533 22.051C42.5389 26.6929 41.8413 31.5341 39.5854 35.709C37.3295 39.8838 33.6622 43.1203 29.2393 44.8397C24.8163 46.5591 19.926 46.6493 15.4426 45.0943C10.9592 43.5393 7.17503 40.4403 4.7666 36.3515C2.35817 32.2627 1.4825 27.4506 2.29613 22.7754C3.10977 18.1003 5.55967 13.8669 9.20784 10.8321C12.856 7.79739 17.4646 6.15909 22.2098 6.21014" stroke="url(#paint2_linear_12962_22330)" stroke-width="3.7" stroke-linecap="round"/>
<path id="Vector 347" d="M26.5547 2L30.7641 6.2094L26.5547 10.4188" stroke="url(#paint3_linear_12962_22330)" stroke-width="3.7" stroke-linecap="round" stroke-linejoin="round"/>
<path id="Vector 348" d="M19.875 2L24.0844 6.2094L19.875 10.4188" stroke="url(#paint4_linear_12962_22330)" stroke-width="3.7" stroke-linecap="round" stroke-linejoin="round"/>
</g>
<defs>
<linearGradient id="paint0_linear_12962_22330" x1="10.8398" y1="26.9979" x2="25.9242" y2="26.963" gradientUnits="userSpaceOnUse">
<stop stop-color="#5B18F4"/>
<stop offset="0.986235" stop-color="#3678FF"/>
</linearGradient>
<linearGradient id="paint1_linear_12962_22330" x1="10.8398" y1="26.9979" x2="25.9242" y2="26.963" gradientUnits="userSpaceOnUse">
<stop stop-color="#5B18F4"/>
<stop offset="0.986235" stop-color="#3678FF"/>
</linearGradient>
<linearGradient id="paint2_linear_12962_22330" x1="2" y1="27.4703" x2="35.3816" y2="27.3868" gradientUnits="userSpaceOnUse">
<stop stop-color="#5B18F4"/>
<stop offset="0.986235" stop-color="#3678FF"/>
</linearGradient>
<linearGradient id="paint3_linear_12962_22330" x1="26.5547" y1="6.47606" x2="30.0686" y2="6.47167" gradientUnits="userSpaceOnUse">
<stop stop-color="#5B18F4"/>
<stop offset="0.986235" stop-color="#3678FF"/>
</linearGradient>
<linearGradient id="paint4_linear_12962_22330" x1="19.875" y1="6.47606" x2="23.3889" y2="6.47167" gradientUnits="userSpaceOnUse">
<stop stop-color="#5B18F4"/>
<stop offset="0.986235" stop-color="#3678FF"/>
</linearGradient>
</defs>
</svg>
