<svg width="47" height="47" viewBox="0 0 47 47" fill="none" xmlns="http://www.w3.org/2000/svg">
<path id="Vector" d="M26.3591 26.358L26.5684 26.3075C32.3088 24.9231 36.5859 19.7434 36.5859 13.5859C36.5859 6.37059 30.7153 0.5 23.5 0.5C16.2847 0.5 10.4141 6.37059 10.4141 13.5859C10.4141 16.9968 11.7379 20.229 14.1452 22.6899C14.6613 23.2175 15.507 23.2268 16.0347 22.7108L26.3591 26.358ZM26.3591 26.358L26.252 26.5447M26.3591 26.358L26.252 26.5447M26.252 26.5447C25.7041 27.4993 24.6768 28.1406 23.5 28.1406C21.7484 28.1406 20.3281 26.7204 20.3281 24.9688C20.3281 23.2171 21.7484 21.7969 23.5 21.7969C24.626 21.7969 25.6148 22.384 26.1787 23.2712L26.3876 23.5999M26.252 26.5447L26.3876 23.5999M26.3876 23.5999L26.7574 23.4778M26.3876 23.5999L26.7574 23.4778M26.7574 23.4778C30.9082 22.1075 33.9141 18.193 33.9141 13.5859C33.9141 7.84322 29.2427 3.17188 23.5 3.17188C17.7573 3.17188 13.0859 7.84322 13.0859 13.5859C13.0859 16.2955 14.1423 18.866 16.0552 20.8217L16.0552 20.8218M26.7574 23.4778L16.0552 20.8218M16.0552 20.8218C16.571 21.3491 16.562 22.1946 16.0348 22.7108L16.0552 20.8218ZM42.9418 30.2107L42.9418 30.2107C45.2027 32.1968 46.5 35.0707 46.5 38.0957V41.4922C46.5 44.2532 44.2532 46.5 41.4922 46.5H5.50781C2.74677 46.5 0.5 44.2532 0.5 41.4922V38.0957C0.5 35.0707 1.79731 32.1968 4.05816 30.2107L4.0582 30.2107C5.8427 28.6427 9.05639 26.4742 14.1742 25.1447C14.8884 24.9591 15.6177 25.3876 15.8032 26.1017L15.8032 26.1018C15.9887 26.8156 15.5602 27.5452 14.8461 27.7307C10.2648 28.9206 7.41617 30.8165 5.82178 32.2177C4.13698 33.6982 3.17188 35.8406 3.17188 38.0957V41.4922C3.17188 42.7806 4.21939 43.8281 5.50781 43.8281H41.4922C42.7806 43.8281 43.8281 42.7806 43.8281 41.4922V38.0957C43.8281 35.8406 42.863 33.6982 41.1782 32.2177C39.8559 31.0556 38.2355 30.0485 36.3689 29.2189L36.3688 29.2189C35.6947 28.9194 35.3909 28.1299 35.6904 27.4557C35.9903 26.7813 36.7796 26.4777 37.4538 26.7772C39.5824 27.7231 41.4271 28.8797 42.9418 30.2107Z" fill="url(#paint0_linear_12962_22317)" stroke="url(#paint1_linear_12962_22317)"/>
<defs>
<linearGradient id="paint0_linear_12962_22317" x1="-7.73845e-09" y1="24.9887" x2="39.2339" y2="24.8906" gradientUnits="userSpaceOnUse">
<stop stop-color="#5B18F4"/>
<stop offset="0.986235" stop-color="#3678FF"/>
</linearGradient>
<linearGradient id="paint1_linear_12962_22317" x1="-7.73845e-09" y1="24.9887" x2="39.2339" y2="24.8906" gradientUnits="userSpaceOnUse">
<stop stop-color="#5B18F4"/>
<stop offset="0.986235" stop-color="#3678FF"/>
</linearGradient>
</defs>
</svg>
