<svg width="39" height="52" viewBox="0 0 39 52" fill="none" xmlns="http://www.w3.org/2000/svg">
<g id="Group 2473">
<g id="Vector">
<mask id="path-1-inside-1_12962_22326" fill="white">
<path d="M4.33333 43.3333H10.8333C12.0293 43.3333 13 42.3627 13 41.1667C13 39.9707 12.0293 39 10.8333 39H4.33333V4.33333H34.6667V41.1667C34.6667 42.3627 35.6373 43.3333 36.8333 43.3333C38.0293 43.3333 39 42.3627 39 41.1667V4.33333C39 1.9435 37.0565 0 34.6667 0H4.33333C1.9435 0 0 1.9435 0 4.33333V39C0 41.3898 1.9435 43.3333 4.33333 43.3333Z"/>
</mask>
<path d="M4.33333 43.3333H10.8333C12.0293 43.3333 13 42.3627 13 41.1667C13 39.9707 12.0293 39 10.8333 39H4.33333V4.33333H34.6667V41.1667C34.6667 42.3627 35.6373 43.3333 36.8333 43.3333C38.0293 43.3333 39 42.3627 39 41.1667V4.33333C39 1.9435 37.0565 0 34.6667 0H4.33333C1.9435 0 0 1.9435 0 4.33333V39C0 41.3898 1.9435 43.3333 4.33333 43.3333Z" fill="url(#paint0_linear_12962_22326)"/>
<path d="M4.33333 39H-3.66667V47H4.33333V39ZM4.33333 4.33333V-3.66667H-3.66667V4.33333H4.33333ZM34.6667 4.33333H42.6667V-3.66667H34.6667V4.33333ZM4.33333 51.3333H10.8333V35.3333H4.33333V51.3333ZM10.8333 51.3333C16.4476 51.3333 21 46.7809 21 41.1667H5C5 37.9444 7.61105 35.3333 10.8333 35.3333V51.3333ZM21 41.1667C21 35.5524 16.4476 31 10.8333 31V47C7.61105 47 5 44.3889 5 41.1667H21ZM10.8333 31H4.33333V47H10.8333V31ZM12.3333 39V4.33333H-3.66667V39H12.3333ZM4.33333 12.3333H34.6667V-3.66667H4.33333V12.3333ZM26.6667 4.33333V41.1667H42.6667V4.33333H26.6667ZM26.6667 41.1667C26.6667 46.7809 31.2191 51.3333 36.8333 51.3333V35.3333C40.0556 35.3333 42.6667 37.9444 42.6667 41.1667H26.6667ZM36.8333 51.3333C42.4476 51.3333 47 46.7809 47 41.1667H31C31 37.9444 33.6111 35.3333 36.8333 35.3333V51.3333ZM47 41.1667V4.33333H31V41.1667H47ZM47 4.33333C47 -2.47478 41.4748 -8 34.6667 -8V8C32.6382 8 31 6.36178 31 4.33333H47ZM34.6667 -8H4.33333V8H34.6667V-8ZM4.33333 -8C-2.47478 -8 -8 -2.47478 -8 4.33333H8C8 6.36178 6.36178 8 4.33333 8V-8ZM-8 4.33333V39H8V4.33333H-8ZM-8 39C-8 45.8081 -2.47478 51.3333 4.33333 51.3333V35.3333C6.36178 35.3333 8 36.9716 8 39H-8Z" fill="url(#paint1_linear_12962_22326)" mask="url(#path-1-inside-1_12962_22326)"/>
</g>
<g id="Vector_2">
<mask id="path-3-inside-2_12962_22326" fill="white">
<path d="M17.5881 51.8347C18.3985 52.1683 19.3291 51.9842 19.9498 51.3645L22.7513 48.5641L25.5528 51.3645C25.9677 51.7794 26.5202 51.9993 27.0846 51.9993C27.3641 51.9993 27.6458 51.9452 27.9145 51.8347C28.7237 51.4988 29.2513 50.7091 29.2513 49.8327V36.3853C29.9349 35.2467 30.3346 33.9207 30.3346 32.4993C30.3346 28.3177 26.9319 24.916 22.7513 24.916C18.5707 24.916 15.168 28.3177 15.168 32.4993C15.168 33.9207 15.5688 35.2467 16.2513 36.3853V49.8327C16.2513 50.7091 16.7789 51.4988 17.5881 51.8347ZM20.5846 44.6088V39.7631C21.2715 39.9689 21.9984 40.0827 22.7513 40.0827C23.5042 40.0827 24.2311 39.9689 24.918 39.7631V44.6088C23.6884 43.5082 21.8142 43.5082 20.5846 44.6088ZM22.7513 29.2493C24.5431 29.2493 26.0013 30.7075 26.0013 32.4993C26.0013 34.2912 24.5431 35.7493 22.7513 35.7493C20.9595 35.7493 19.5013 34.2912 19.5013 32.4993C19.5013 30.7075 20.9595 29.2493 22.7513 29.2493Z"/>
</mask>
<path d="M17.5881 51.8347C18.3985 52.1683 19.3291 51.9842 19.9498 51.3645L22.7513 48.5641L25.5528 51.3645C25.9677 51.7794 26.5202 51.9993 27.0846 51.9993C27.3641 51.9993 27.6458 51.9452 27.9145 51.8347C28.7237 51.4988 29.2513 50.7091 29.2513 49.8327V36.3853C29.9349 35.2467 30.3346 33.9207 30.3346 32.4993C30.3346 28.3177 26.9319 24.916 22.7513 24.916C18.5707 24.916 15.168 28.3177 15.168 32.4993C15.168 33.9207 15.5688 35.2467 16.2513 36.3853V49.8327C16.2513 50.7091 16.7789 51.4988 17.5881 51.8347ZM20.5846 44.6088V39.7631C21.2715 39.9689 21.9984 40.0827 22.7513 40.0827C23.5042 40.0827 24.2311 39.9689 24.918 39.7631V44.6088C23.6884 43.5082 21.8142 43.5082 20.5846 44.6088ZM22.7513 29.2493C24.5431 29.2493 26.0013 30.7075 26.0013 32.4993C26.0013 34.2912 24.5431 35.7493 22.7513 35.7493C20.9595 35.7493 19.5013 34.2912 19.5013 32.4993C19.5013 30.7075 20.9595 29.2493 22.7513 29.2493Z" fill="url(#paint2_linear_12962_22326)"/>
<path d="M17.5881 51.8347L14.5218 59.2237L14.5319 59.2279L14.5421 59.2321L17.5881 51.8347ZM19.9498 51.3645L25.6017 57.0263L25.6056 57.0225L19.9498 51.3645ZM22.7513 48.5641L28.4071 42.9062L22.7513 37.2526L17.0955 42.9062L22.7513 48.5641ZM25.5528 51.3645L31.2097 45.7077L31.2086 45.7066L25.5528 51.3645ZM27.9145 51.8347L30.9575 59.2333L30.9692 59.2285L30.9809 59.2237L27.9145 51.8347ZM29.2513 36.3853L22.3925 32.2674L21.2513 34.1682V36.3853H29.2513ZM16.2513 36.3853H24.2513V34.1712L23.113 32.2722L16.2513 36.3853ZM20.5846 44.6088H12.5846V62.5071L25.9204 50.5695L20.5846 44.6088ZM20.5846 39.7631L22.8812 32.0998L12.5846 29.0141V39.7631H20.5846ZM24.918 39.7631H32.918V29.0141L22.6214 32.0998L24.918 39.7631ZM24.918 44.6088L19.5822 50.5695L32.918 62.5071V44.6088H24.918ZM14.5421 59.2321C18.3274 60.7907 22.6901 59.9328 25.6017 57.0263L14.2979 45.7027C15.968 44.0356 18.4696 43.546 20.6341 44.4373L14.5421 59.2321ZM25.6056 57.0225L28.4071 54.222L17.0955 42.9062L14.294 45.7066L25.6056 57.0225ZM17.0955 54.222L19.897 57.0225L31.2086 45.7066L28.4071 42.9062L17.0955 54.222ZM19.8959 57.0214C21.8399 58.9653 24.4394 59.9993 27.0846 59.9993V43.9993C28.601 43.9993 30.0956 44.5936 31.2097 45.7077L19.8959 57.0214ZM27.0846 59.9993C28.4003 59.9993 29.7163 59.7438 30.9575 59.2333L24.8715 44.436C25.5753 44.1466 26.328 43.9993 27.0846 43.9993V59.9993ZM30.9809 59.2237C34.7758 57.6488 37.2513 53.944 37.2513 49.8327H21.2513C21.2513 47.4741 22.6717 45.3489 24.8481 44.4457L30.9809 59.2237ZM37.2513 49.8327V36.3853H21.2513V49.8327H37.2513ZM36.1101 40.5032C37.5007 38.1869 38.3346 35.4466 38.3346 32.4993H22.3346C22.3346 32.4558 22.3413 32.4061 22.3548 32.3588C22.3677 32.3135 22.383 32.2832 22.3925 32.2674L36.1101 40.5032ZM38.3346 32.4993C38.3346 23.8987 31.3494 16.916 22.7513 16.916V32.916C22.6276 32.916 22.5145 32.857 22.4541 32.7967C22.3936 32.7362 22.3346 32.6229 22.3346 32.4993H38.3346ZM22.7513 16.916C14.1532 16.916 7.16797 23.8987 7.16797 32.4993H23.168C23.168 32.6229 23.109 32.7362 23.0485 32.7967C22.9881 32.857 22.875 32.916 22.7513 32.916V16.916ZM7.16797 32.4993C7.16797 35.4505 8.00504 38.1885 9.38963 40.4984L23.113 32.2722C23.1207 32.2851 23.1353 32.3132 23.1478 32.3573C23.161 32.4036 23.168 32.4537 23.168 32.4993H7.16797ZM8.2513 36.3853V49.8327H24.2513V36.3853H8.2513ZM8.2513 49.8327C8.2513 53.944 10.7268 57.6488 14.5218 59.2237L20.6545 44.4457C22.831 45.3489 24.2513 47.4742 24.2513 49.8327H8.2513ZM28.5846 44.6088V39.7631H12.5846V44.6088H28.5846ZM18.2881 47.4264C19.688 47.8459 21.1878 48.0827 22.7513 48.0827V32.0827C22.8089 32.0827 22.855 32.092 22.8812 32.0998L18.2881 47.4264ZM22.7513 48.0827C24.3148 48.0827 25.8146 47.8459 27.2145 47.4264L22.6214 32.0998C22.6476 32.092 22.6937 32.0827 22.7513 32.0827V48.0827ZM16.918 39.7631V44.6088H32.918V39.7631H16.918ZM30.2537 38.6482C25.9866 34.8284 19.516 34.8284 15.2489 38.6482L25.9204 50.5695C24.1124 52.188 21.3902 52.188 19.5822 50.5695L30.2537 38.6482ZM22.7513 37.2493C20.1249 37.2493 18.0013 35.1258 18.0013 32.4993H34.0013C34.0013 26.2892 28.9614 21.2493 22.7513 21.2493V37.2493ZM18.0013 32.4993C18.0013 29.8729 20.1249 27.7493 22.7513 27.7493V43.7493C28.9614 43.7493 34.0013 38.7095 34.0013 32.4993H18.0013ZM22.7513 27.7493C25.3777 27.7493 27.5013 29.8729 27.5013 32.4993H11.5013C11.5013 38.7095 16.5412 43.7493 22.7513 43.7493V27.7493ZM27.5013 32.4993C27.5013 35.1258 25.3777 37.2493 22.7513 37.2493V21.2493C16.5412 21.2493 11.5013 26.2892 11.5013 32.4993H27.5013Z" fill="url(#paint3_linear_12962_22326)" mask="url(#path-3-inside-2_12962_22326)"/>
</g>
<g id="Vector_3">
<mask id="path-5-inside-3_12962_22326" fill="white">
<path d="M28.1654 15.1667C28.1654 13.9707 27.1947 13 25.9987 13H12.9987C11.8027 13 10.832 13.9707 10.832 15.1667C10.832 16.3627 11.8027 17.3333 12.9987 17.3333H25.9987C27.1947 17.3333 28.1654 16.3627 28.1654 15.1667Z"/>
</mask>
<path d="M28.1654 15.1667C28.1654 13.9707 27.1947 13 25.9987 13H12.9987C11.8027 13 10.832 13.9707 10.832 15.1667C10.832 16.3627 11.8027 17.3333 12.9987 17.3333H25.9987C27.1947 17.3333 28.1654 16.3627 28.1654 15.1667Z" fill="url(#paint4_linear_12962_22326)"/>
<path d="M36.1654 15.1667C36.1654 9.55239 31.613 5 25.9987 5V21C22.7764 21 20.1654 18.3889 20.1654 15.1667H36.1654ZM25.9987 5H12.9987V21H25.9987V5ZM12.9987 5C7.38442 5 2.83203 9.55239 2.83203 15.1667H18.832C18.832 18.3889 16.221 21 12.9987 21V5ZM2.83203 15.1667C2.83203 20.7809 7.38442 25.3333 12.9987 25.3333V9.33333C16.221 9.33333 18.832 11.9444 18.832 15.1667H2.83203ZM12.9987 25.3333H25.9987V9.33333H12.9987V25.3333ZM25.9987 25.3333C31.613 25.3333 36.1654 20.7809 36.1654 15.1667H20.1654C20.1654 11.9444 22.7764 9.33333 25.9987 9.33333V25.3333Z" fill="url(#paint5_linear_12962_22326)" mask="url(#path-5-inside-3_12962_22326)"/>
</g>
</g>
<defs>
<linearGradient id="paint0_linear_12962_22326" x1="-6.42127e-09" y1="23.0392" x2="32.5558" y2="22.9659" gradientUnits="userSpaceOnUse">
<stop stop-color="#5B18F4"/>
<stop offset="0.986235" stop-color="#3678FF"/>
</linearGradient>
<linearGradient id="paint1_linear_12962_22326" x1="-6.42127e-09" y1="23.0392" x2="32.5558" y2="22.9659" gradientUnits="userSpaceOnUse">
<stop stop-color="#5B18F4"/>
<stop offset="0.986235" stop-color="#3678FF"/>
</linearGradient>
<linearGradient id="paint2_linear_12962_22326" x1="15.168" y1="39.3155" x2="27.8286" y2="39.2978" gradientUnits="userSpaceOnUse">
<stop stop-color="#5B18F4"/>
<stop offset="0.986235" stop-color="#3678FF"/>
</linearGradient>
<linearGradient id="paint3_linear_12962_22326" x1="15.168" y1="39.3155" x2="27.8286" y2="39.2978" gradientUnits="userSpaceOnUse">
<stop stop-color="#5B18F4"/>
<stop offset="0.986235" stop-color="#3678FF"/>
</linearGradient>
<linearGradient id="paint4_linear_12962_22326" x1="10.832" y1="15.3039" x2="25.2999" y2="15.1592" gradientUnits="userSpaceOnUse">
<stop stop-color="#5B18F4"/>
<stop offset="0.986235" stop-color="#3678FF"/>
</linearGradient>
<linearGradient id="paint5_linear_12962_22326" x1="10.832" y1="15.3039" x2="25.2999" y2="15.1592" gradientUnits="userSpaceOnUse">
<stop stop-color="#5B18F4"/>
<stop offset="0.986235" stop-color="#3678FF"/>
</linearGradient>
</defs>
</svg>
