<svg width="24" height="24" viewBox="0 0 24 24" fill="none" xmlns="http://www.w3.org/2000/svg">
<g id="Group 2554">
<path id="Vector" d="M12 0C18.6271 0 24 5.37288 24 12C24 18.6271 18.6269 24 12 24C5.37312 24 0 18.6286 0 12C0 5.37144 5.37216 0 12 0Z" fill="#53AE94"/>
<path id="Vector_2" d="M13.4809 10.3996V8.61445H17.563V5.89453H6.4472V8.61445H10.5298V10.3981C7.21184 10.5505 4.71704 11.2077 4.71704 11.9949C4.71704 12.7821 7.21304 13.4392 10.5298 13.5925V19.3105H13.4818V13.5921C16.7938 13.4392 19.2836 12.7825 19.2836 11.9961C19.2836 11.2096 16.7938 10.5529 13.4818 10.4001L13.4809 10.3996ZM13.4818 13.1077V13.1063C13.3986 13.1116 12.9706 13.1373 12.0178 13.1373C11.2561 13.1373 10.7202 13.1157 10.5313 13.1058V13.1082C7.59992 12.9784 5.41184 12.4679 5.41184 11.8571C5.41184 11.2463 7.60016 10.7365 10.5313 10.6065V12.5997C10.7233 12.6129 11.2724 12.6453 12.0303 12.6453C12.9406 12.6453 13.3983 12.6073 13.4823 12.5997V10.6065C16.4079 10.7368 18.591 11.2477 18.591 11.8564C18.591 12.465 16.407 12.9762 13.4823 13.1065" fill="white"/>
</g>
</svg>
