<svg width="24" height="24" viewBox="0 0 24 24" fill="none" xmlns="http://www.w3.org/2000/svg">
<g id="Icon">
<g clip-path="url(#clip0_19899_11743)">
<path id="Vector" d="M23.6383 14.9029C22.0356 21.3315 15.5244 25.2438 9.09503 23.6407C2.66833 22.038 -1.24401 15.5265 0.359382 9.09837C1.96136 2.66903 8.47253 -1.24361 14.8999 0.359081C21.3289 1.96177 25.241 8.47404 23.6381 14.903L23.6382 14.9029H23.6383Z" fill="#F7931A"/>
<path id="Vector_2" d="M17.7061 10.512C17.9449 8.91508 16.7291 8.05666 15.0666 7.48401L15.6059 5.32082L14.2891 4.99271L13.7641 7.09894C13.4179 7.0126 13.0624 6.93125 12.7091 6.8506L13.2379 4.73046L11.9219 4.40234L11.3823 6.56483C11.0958 6.49961 10.8145 6.43515 10.5415 6.36722L10.543 6.36042L8.72713 5.90696L8.37684 7.31339C8.37684 7.31339 9.3538 7.53733 9.33321 7.55111C9.86644 7.6842 9.96287 8.03719 9.94686 8.31697L9.33251 10.7814C9.36922 10.7907 9.41685 10.8042 9.46941 10.8253C9.42547 10.8144 9.37873 10.8025 9.33022 10.7909L8.46911 14.2431C8.40394 14.4051 8.23853 14.6482 7.86572 14.5559C7.87892 14.575 6.90865 14.3171 6.90865 14.3171L6.25488 15.8244L7.96849 16.2516C8.28728 16.3315 8.59967 16.4152 8.90732 16.4938L8.36241 18.6818L9.67769 19.0099L10.2173 16.8452C10.5766 16.9427 10.9253 17.0327 11.2667 17.1175L10.7289 19.2721L12.0458 19.6002L12.5906 17.4163C14.836 17.8412 16.5244 17.6699 17.2351 15.6389C17.8077 14.0037 17.2066 13.0606 16.0253 12.4455C16.8857 12.2471 17.5338 11.6812 17.7065 10.5122L17.7061 10.5119L17.7061 10.512ZM14.6975 14.7308C14.2905 16.366 11.5374 15.4821 10.6448 15.2604L11.3679 12.3617C12.2604 12.5845 15.1228 13.0255 14.6976 14.7308H14.6975ZM15.1047 10.4883C14.7335 11.9757 12.442 11.22 11.6987 11.0347L12.3543 8.40578C13.0976 8.59107 15.4914 8.93689 15.1049 10.4883H15.1047Z" fill="white"/>
</g>
</g>
<defs>
<clipPath id="clip0_19899_11743">
<rect width="24" height="24" rx="12" fill="white"/>
</clipPath>
</defs>
</svg>
