<svg width="64" height="64" viewBox="-8.5 -8.5 64 64" fill="none" xmlns="http://www.w3.org/2000/svg">
<g clip-path="url(#clip0_12959_12252)">
<path d="M22.9977 36.706H22.9979C26.6317 36.7019 30.1155 35.2565 32.685 32.687C35.2545 30.1175 36.6999 26.6337 36.7041 22.9999V22.9997C36.7041 20.2888 35.9002 17.6389 34.3941 15.3849C32.8881 13.1309 30.7474 11.3741 28.2429 10.3367C25.7384 9.2993 22.9825 9.02787 20.3238 9.55673C17.665 10.0856 15.2228 11.391 13.3059 13.3079C11.389 15.2247 10.0836 17.667 9.55478 20.3257C9.02591 22.9845 9.29735 25.7404 10.3347 28.2449C11.3721 30.7494 13.1289 32.89 15.3829 34.3961C17.6369 35.9022 20.2869 36.706 22.9977 36.706ZM16.2403 12.8865C18.2405 11.55 20.5921 10.8366 22.9977 10.8366C26.2224 10.8404 29.3139 12.1231 31.5942 14.4033C33.8744 16.6835 35.1571 19.7751 35.1608 22.9999C35.1608 25.4054 34.4474 27.757 33.111 29.7571C31.7745 31.7573 29.8749 33.3163 27.6523 34.2369C25.4298 35.1575 22.9842 35.3984 20.6248 34.9291C18.2654 34.4597 16.0982 33.3013 14.3971 31.6003C12.6961 29.8993 11.5377 27.732 11.0684 25.3726C10.5991 23.0132 10.8399 20.5676 11.7605 18.3451C12.6811 16.1226 14.2401 14.223 16.2403 12.8865Z" fill="black" stroke="black" stroke-width="0.3"/>
<path d="M23 33.4938H23.0002C25.7823 33.4907 28.4496 32.3841 30.4168 30.4168C32.3841 28.4496 33.4907 25.7823 33.4938 23.0002V23C33.4938 20.9246 32.8784 18.8957 31.7253 17.17C30.5722 15.4443 28.9333 14.0993 27.0158 13.305C25.0984 12.5108 22.9884 12.303 20.9528 12.7079C18.9172 13.1128 17.0474 14.1122 15.5798 15.5798C14.1122 17.0474 13.1128 18.9172 12.7079 20.9528C12.303 22.9884 12.5108 25.0984 13.305 27.0158C14.0993 28.9333 15.4443 30.5722 17.17 31.7253C18.8957 32.8784 20.9246 33.4938 23 33.4938ZM18.0274 15.5579C19.4993 14.5745 21.2297 14.0495 23 14.0495C25.373 14.0523 27.648 14.9962 29.3259 16.6741C31.0039 18.3521 31.9478 20.6272 31.9506 23.0002C31.9506 24.7704 31.4256 26.5008 30.4422 27.9727C29.4587 29.4446 28.0608 30.5918 26.4253 31.2693C24.7898 31.9467 22.9901 32.124 21.2539 31.7786C19.5176 31.4332 17.9228 30.5808 16.6711 29.329C15.4193 28.0773 14.5668 26.4824 14.2215 24.7462C13.8761 23.01 14.0534 21.2103 14.7308 19.5748C15.4083 17.9393 16.5555 16.5414 18.0274 15.5579Z" fill="black" stroke="black" stroke-width="0.3"/>
<path d="M22.4549 10.6106C22.5996 10.7554 22.7959 10.8366 23.0005 10.8366C23.2052 10.8366 23.4014 10.7554 23.5462 10.6106C23.6909 10.4659 23.7722 10.2697 23.7722 10.065V5.75346C23.7722 5.54881 23.6909 5.35255 23.5462 5.20784C23.4014 5.06313 23.2052 4.98184 23.0005 4.98184C22.7959 4.98184 22.5996 5.06313 22.4549 5.20784C22.3102 5.35255 22.2289 5.54881 22.2289 5.75346V10.065C22.2289 10.2697 22.3102 10.4659 22.4549 10.6106Z" fill="black" stroke="black" stroke-width="0.3"/>
<path d="M22.9996 6.52527H22.9998C23.7198 6.5244 24.4101 6.23799 24.9193 5.72885C25.4284 5.21971 25.7148 4.52943 25.7157 3.8094V3.80922C25.7157 3.27203 25.5564 2.74691 25.258 2.30026C24.9595 1.85361 24.5353 1.50548 24.039 1.29991C23.5427 1.09434 22.9966 1.04055 22.4698 1.14535C21.9429 1.25015 21.459 1.50883 21.0791 1.88868C20.6993 2.26853 20.4406 2.75248 20.3358 3.27934C20.231 3.80621 20.2848 4.35231 20.4903 4.84861C20.6959 5.3449 21.044 5.76909 21.4907 6.06754C21.9373 6.36598 22.4625 6.52527 22.9996 6.52527ZM22.3481 2.83406C22.5409 2.70522 22.7676 2.63644 22.9995 2.63641H22.9995C23.3105 2.6367 23.6087 2.76037 23.8286 2.98028C24.0485 3.20015 24.1721 3.49827 24.1724 3.80922C24.1724 4.04118 24.1037 4.26793 23.9748 4.4608C23.8459 4.65367 23.6628 4.80399 23.4485 4.89276C23.2342 4.98152 22.9983 5.00475 22.7708 4.95949C22.5433 4.91424 22.3344 4.80254 22.1703 4.63852C22.0063 4.4745 21.8946 4.26553 21.8494 4.03802C21.8041 3.81052 21.8273 3.57471 21.9161 3.3604C22.0049 3.1461 22.1552 2.96293 22.3481 2.83406Z" fill="black" stroke="black" stroke-width="0.3"/>
<path d="M22.4549 40.7923C22.5996 40.937 22.7959 41.0183 23.0005 41.0183C23.2052 41.0183 23.4014 40.937 23.5462 40.7923C23.6909 40.6476 23.7722 40.4513 23.7722 40.2467V35.9351C23.7722 35.7305 23.6909 35.5342 23.5462 35.3895C23.4014 35.2448 23.2052 35.1635 23.0005 35.1635C22.7959 35.1635 22.5996 35.2448 22.4549 35.3895C22.3102 35.5342 22.2289 35.7305 22.2289 35.9351V40.2467C22.2289 40.4513 22.3102 40.6476 22.4549 40.7923Z" fill="black" stroke="black" stroke-width="0.3"/>
<path d="M22.9996 44.9061H22.9998C23.7198 44.9053 24.4101 44.6188 24.9193 44.1097C25.4284 43.6006 25.7148 42.9103 25.7157 42.1903V42.1901C25.7157 41.6529 25.5564 41.1278 25.258 40.6811C24.9595 40.2345 24.5353 39.8863 24.039 39.6808C23.5427 39.4752 22.9966 39.4214 22.4698 39.5262C21.9429 39.631 21.459 39.8897 21.0791 40.2695C20.6993 40.6494 20.4406 41.1333 20.3358 41.6602C20.231 42.1871 20.2848 42.7332 20.4903 43.2295C20.6959 43.7258 21.044 44.1499 21.4907 44.4484C21.9373 44.7468 22.4625 44.9061 22.9996 44.9061ZM22.3481 41.2149C22.5409 41.0861 22.7676 41.0173 22.9995 41.0173H22.9995C23.3105 41.0176 23.6087 41.1412 23.8286 41.3611C24.0485 41.581 24.1721 41.8791 24.1724 42.1901C24.1724 42.422 24.1037 42.6488 23.9748 42.8416C23.8459 43.0345 23.6628 43.1848 23.4485 43.2736C23.2342 43.3624 22.9983 43.3856 22.7708 43.3403C22.5433 43.2951 22.3344 43.1834 22.1703 43.0194C22.0063 42.8554 21.8946 42.6464 21.8494 42.4189C21.8041 42.1914 21.8273 41.9556 21.9161 41.7413C22.0049 41.527 22.1552 41.3438 22.3481 41.2149Z" fill="black" stroke="black" stroke-width="0.3"/>
<path d="M35.9341 23.7712H40.2457C40.4503 23.7712 40.6466 23.6899 40.7913 23.5452C40.936 23.4005 41.0173 23.2042 41.0173 22.9996C41.0173 22.7949 40.936 22.5986 40.7913 22.4539C40.6466 22.3092 40.4503 22.2279 40.2457 22.2279H35.9341C35.7295 22.2279 35.5332 22.3092 35.3885 22.4539C35.2438 22.5986 35.1625 22.7949 35.1625 22.9996C35.1625 23.2042 35.2438 23.4005 35.3885 23.5452C35.5332 23.6899 35.7295 23.7712 35.9341 23.7712Z" fill="black" stroke="black" stroke-width="0.3"/>
<path d="M42.1911 25.7157H42.1912C42.9113 25.7148 43.6015 25.4284 44.1107 24.9193C44.6198 24.4101 44.9062 23.7198 44.9071 22.9998V22.9996C44.9071 22.4625 44.7478 21.9373 44.4494 21.4907C44.1509 21.044 43.7267 20.6959 43.2304 20.4903C42.7341 20.2848 42.188 20.231 41.6612 20.3358C41.1343 20.4406 40.6504 20.6993 40.2705 21.0791C39.8907 21.459 39.632 21.9429 39.5272 22.4698C39.4224 22.9966 39.4762 23.5427 39.6817 24.039C39.8873 24.5353 40.2354 24.9595 40.6821 25.258C41.1287 25.5564 41.6539 25.7157 42.1911 25.7157ZM41.5395 22.0245C41.7323 21.8956 41.959 21.8269 42.1909 21.8268H42.1909C42.5019 21.8271 42.8001 21.9508 43.02 22.1707C43.2399 22.3906 43.3635 22.6887 43.3639 22.9996C43.3639 23.2316 43.2951 23.4584 43.1662 23.6512C43.0373 23.8441 42.8542 23.9944 42.6399 24.0832C42.4256 24.1719 42.1897 24.1952 41.9622 24.1499C41.7347 24.1047 41.5258 23.993 41.3618 23.8289C41.1977 23.6649 41.086 23.4559 41.0408 23.2284C40.9955 23.0009 41.0187 22.7651 41.1075 22.5508C41.1963 22.3365 41.3466 22.1534 41.5395 22.0245Z" fill="black" stroke="black" stroke-width="0.3"/>
<path d="M5.75053 23.7712H10.0621C10.2667 23.7712 10.463 23.6899 10.6077 23.5452C10.7524 23.4005 10.8337 23.2042 10.8337 22.9996C10.8337 22.7949 10.7524 22.5986 10.6077 22.4539C10.463 22.3092 10.2667 22.2279 10.0621 22.2279H5.75053C5.54588 22.2279 5.34962 22.3092 5.20491 22.4539C5.0602 22.5986 4.97891 22.7949 4.97891 22.9996C4.97891 23.2042 5.0602 23.4005 5.20491 23.5452C5.34962 23.6899 5.54588 23.7712 5.75053 23.7712Z" fill="black" stroke="black" stroke-width="0.3"/>
<path d="M3.80824 25.7157H3.80842C4.52845 25.7148 5.21874 25.4284 5.72787 24.9193C6.23701 24.4101 6.52343 23.7198 6.5243 22.9998V22.9996C6.5243 22.4625 6.365 21.9373 6.06656 21.4907C5.76812 21.044 5.34393 20.6959 4.84763 20.4903C4.35134 20.2848 3.80523 20.231 3.27837 20.3358C2.7515 20.4406 2.26755 20.6993 1.8877 21.0791C1.50786 21.459 1.24918 21.9429 1.14438 22.4698C1.03958 22.9966 1.09336 23.5427 1.29894 24.039C1.50451 24.5353 1.85263 24.9595 2.29928 25.258C2.74594 25.5564 3.27106 25.7157 3.80824 25.7157ZM3.15666 22.0245C3.34949 21.8956 3.57619 21.8269 3.8081 21.8268H3.80811C4.1191 21.8271 4.41728 21.9508 4.63718 22.1707C4.85706 22.3906 4.98072 22.6887 4.98105 22.9996C4.98105 23.2316 4.91227 23.4584 4.7834 23.6512C4.65453 23.8441 4.47136 23.9944 4.25706 24.0832C4.04275 24.1719 3.80694 24.1952 3.57944 24.1499C3.35194 24.1047 3.14296 23.993 2.97894 23.8289C2.81492 23.6649 2.70322 23.4559 2.65797 23.2284C2.61271 23.0009 2.63594 22.7651 2.72471 22.5508C2.81347 22.3365 2.9638 22.1534 3.15666 22.0245Z" fill="black" stroke="black" stroke-width="0.3"/>
<path d="M12.2442 38.1487C12.3761 38.1497 12.506 38.1169 12.6216 38.0533C12.7374 37.9897 12.8349 37.8974 12.9048 37.7853L12.9048 37.7853L15.5728 33.5042L15.5729 33.5041C15.6811 33.3302 15.7158 33.1204 15.6694 32.9209C15.6229 32.7214 15.4992 32.5485 15.3252 32.4403C15.1513 32.332 14.9416 32.2973 14.742 32.3437L14.7761 32.4898L14.742 32.3437C14.5425 32.3902 14.3697 32.514 14.2614 32.6879L11.819 36.6055H7.28178C7.07713 36.6055 6.88087 36.6868 6.73616 36.8315C6.59145 36.9762 6.51016 37.1725 6.51016 37.3771C6.51016 37.5817 6.59145 37.778 6.73616 37.9227C6.88087 38.0674 7.07713 38.1487 7.28178 38.1487H12.2442ZM12.2442 38.1487C12.244 38.1487 12.2438 38.1487 12.2435 38.1487L12.2448 37.9987V38.1487H12.2442Z" fill="black" stroke="black" stroke-width="0.3"/>
<path d="M8.05555 37.3767V37.3766C8.05555 36.8394 7.89627 36.3143 7.59785 35.8677C7.29944 35.4211 6.87529 35.0729 6.37903 34.8674C5.88278 34.6618 5.3367 34.6079 4.80986 34.7127C4.28301 34.8174 3.79906 35.076 3.41918 35.4558C3.03931 35.8356 2.78058 36.3195 2.67571 36.8463C2.57083 37.3731 2.62453 37.9192 2.83 38.4155C3.03547 38.9118 3.38349 39.3361 3.83006 39.6346C4.27662 39.9331 4.80168 40.0925 5.33883 40.0926H5.33898C6.05918 40.0921 6.74975 39.8058 7.25907 39.2966C7.7684 38.7874 8.05485 38.0969 8.05555 37.3767ZM6.16824 36.5475C6.38823 36.7674 6.51197 37.0656 6.5123 37.3766L5.33894 36.2038L5.33887 36.0538L5.3388 36.2038C5.64989 36.2039 5.94821 36.3275 6.16824 36.5475Z" fill="black" stroke="black" stroke-width="0.3"/>
<path d="M14.918 13.6753L14.9189 13.6753C15.0561 13.6743 15.1905 13.6367 15.3083 13.5664C15.4261 13.4962 15.523 13.3958 15.5892 13.2756C15.6553 13.1554 15.6881 13.0198 15.6844 12.8827C15.6806 12.7456 15.6404 12.6119 15.5679 12.4955L12.8999 8.21443L12.8999 8.21441C12.8305 8.10318 12.734 8.01144 12.6194 7.94785C12.5048 7.88428 12.3759 7.85094 12.2448 7.85098C12.2448 7.85098 12.2448 7.85098 12.2447 7.85098L7.28178 7.85098C7.07713 7.85098 6.88087 7.93227 6.73616 8.07698C6.59145 8.22169 6.51016 8.41795 6.51016 8.6226C6.51016 8.82724 6.59145 9.02351 6.73616 9.16822C6.88087 9.31292 7.07713 9.39422 7.28178 9.39422H11.8197L14.2621 13.3119C14.2621 13.3119 14.2621 13.3119 14.2621 13.3119C14.3315 13.4232 14.4282 13.515 14.5429 13.5786C14.6577 13.6422 14.7868 13.6755 14.918 13.6753Z" fill="black" stroke="black" stroke-width="0.3"/>
<path d="M8.05555 8.62284V8.6227C8.05555 8.08554 7.89627 7.56044 7.59785 7.11381C7.29944 6.66717 6.87529 6.31904 6.37903 6.11345C5.88278 5.90786 5.3367 5.85404 4.80986 5.95878C4.28301 6.06353 3.79906 6.32214 3.41918 6.70192C3.03931 7.0817 2.78058 7.5656 2.67571 8.09242C2.57083 8.61924 2.62453 9.16532 2.83 9.66163C3.03547 10.1579 3.38349 10.5822 3.83006 10.8807C4.27662 11.1792 4.80168 11.3386 5.33883 11.3387H5.33898C6.05918 11.3382 6.74975 11.0519 7.25907 10.5427C7.7684 10.0335 8.05485 9.34304 8.05555 8.62284ZM6.16824 7.79356C6.38823 8.01345 6.51197 8.31165 6.5123 8.6227L5.33894 7.44989L5.33887 7.29989L5.3388 7.44989C5.64989 7.45003 5.94821 7.57364 6.16824 7.79356Z" fill="black" stroke="black" stroke-width="0.3"/>
<path d="M30.4276 33.5041L30.4276 33.5042L33.0981 37.7853C33.0981 37.7853 33.0981 37.7853 33.0981 37.7853C33.1675 37.8965 33.264 37.9882 33.3786 38.0518C33.4932 38.1154 33.6221 38.1487 33.7532 38.1487C33.7532 38.1487 33.7532 38.1487 33.7532 38.1487H38.7162H38.7187C38.9233 38.1487 39.1196 38.0674 39.2643 37.9227C39.409 37.778 39.4903 37.5817 39.4903 37.3771C39.4903 37.1724 39.409 36.9762 39.2643 36.8315C39.1196 36.6868 38.9233 36.6055 38.7187 36.6055H34.1814L31.739 32.6879L31.6117 32.7671L31.739 32.6878L31.739 32.6879C31.6308 32.514 31.4579 32.3902 31.2584 32.3437C31.0589 32.2973 30.8491 32.332 30.6752 32.4403C30.5013 32.5485 30.3775 32.7214 30.3311 32.9209C30.2846 33.1204 30.3193 33.3302 30.4276 33.5041Z" fill="black" stroke="black" stroke-width="0.3"/>
<path d="M40.6598 40.0927H40.66C41.38 40.0918 42.0703 39.8054 42.5794 39.2962C43.0886 38.7871 43.375 38.0968 43.3759 37.3768V37.3766C43.3759 36.8394 43.2166 36.3143 42.9181 35.8676C42.6197 35.421 42.1955 35.0729 41.6992 34.8673C41.2029 34.6617 40.6568 34.6079 40.1299 34.7127C39.6031 34.8175 39.1191 35.0762 38.7393 35.4561C38.3594 35.8359 38.1007 36.3199 37.9959 36.8467C37.8911 37.3736 37.9449 37.9197 38.1505 38.416C38.3561 38.9123 38.7042 39.3365 39.1509 39.6349C39.5975 39.9334 40.1226 40.0927 40.6598 40.0927ZM40.0082 36.4014C40.2011 36.2726 40.4278 36.2038 40.6597 36.2038C40.9706 36.2043 41.2687 36.328 41.4886 36.5478C41.7084 36.7677 41.8321 37.0657 41.8326 37.3766C41.8326 37.6086 41.7638 37.8353 41.635 38.0282C41.5061 38.221 41.3229 38.3714 41.1086 38.4601C40.8943 38.5489 40.6585 38.5721 40.431 38.5269C40.2035 38.4816 39.9945 38.3699 39.8305 38.2059C39.6665 38.0419 39.5548 37.8329 39.5095 37.6054C39.4643 37.3779 39.4875 37.1421 39.5763 36.9278C39.665 36.7135 39.8154 36.5303 40.0082 36.4014Z" fill="black" stroke="black" stroke-width="0.3"/>
<path d="M31.078 13.6753C31.2093 13.6756 31.3385 13.6424 31.4534 13.5788C31.5683 13.5152 31.6651 13.4234 31.7346 13.3119C31.7346 13.3119 31.7346 13.3119 31.7346 13.3119L34.177 9.39422H38.7124C38.917 9.39422 39.1133 9.31292 39.258 9.16822C39.4027 9.02351 39.484 8.82724 39.484 8.6226C39.484 8.41795 39.4027 8.22169 39.258 8.07698C39.1133 7.93227 38.917 7.85098 38.7124 7.85098L33.7469 7.85098C33.7469 7.85098 33.7469 7.85098 33.7469 7.85098C33.6158 7.85093 33.4869 7.88427 33.3723 7.94785C33.2577 8.01144 33.1612 8.10318 33.0918 8.21441L33.0918 8.21443L30.4238 12.4955C30.351 12.6123 30.3108 12.7464 30.3073 12.884C30.3038 13.0216 30.3371 13.1576 30.4039 13.2779C30.4706 13.3983 30.5683 13.4986 30.6869 13.5685C30.8054 13.6383 30.9405 13.6752 31.078 13.6753ZM31.078 13.6753C31.078 13.6753 31.078 13.6753 31.0779 13.6753L31.0783 13.5253L31.0782 13.6753C31.0781 13.6753 31.0781 13.6753 31.078 13.6753Z" fill="black" stroke="black" stroke-width="0.3"/>
<path d="M40.6598 11.3387L40.66 11.3387C41.38 11.3377 42.0702 11.0512 42.5793 10.5421C43.0884 10.0331 43.3748 9.34288 43.3759 8.62291V8.6227C43.3759 8.08551 43.2166 7.56039 42.9181 7.11374C42.6197 6.66708 42.1955 6.31896 41.6992 6.11339C41.2029 5.90782 40.6568 5.85403 40.1299 5.95883C39.6031 6.06363 39.1191 6.32231 38.7393 6.70216C38.3594 7.082 38.1007 7.56596 37.9959 8.09282C37.8911 8.61968 37.9449 9.16579 38.1505 9.66208C38.3561 10.1584 38.7042 10.5826 39.1509 10.881C39.5975 11.1795 40.1226 11.3387 40.6598 11.3387ZM40.0082 7.64754C40.2011 7.5187 40.4278 7.44991 40.6597 7.44989H40.6597C40.9707 7.45018 41.2688 7.57385 41.4888 7.79376C41.7086 8.01363 41.8323 8.31175 41.8326 8.6227C41.8326 8.85465 41.7638 9.08141 41.635 9.27427C41.5061 9.46714 41.3229 9.61746 41.1086 9.70623C40.8943 9.795 40.6585 9.81822 40.431 9.77297C40.2035 9.72772 39.9945 9.61602 39.8305 9.452C39.6665 9.28798 39.5548 9.079 39.5095 8.8515C39.4643 8.624 39.4875 8.38818 39.5763 8.17388C39.665 7.95958 39.8154 7.77641 40.0082 7.64754Z" fill="black" stroke="black" stroke-width="0.3"/>
</g>
<defs>
<clipPath id="clip0_12959_12252">
<rect width="46" height="46" fill="white"/>
</clipPath>
</defs>
</svg>
