<svg width="63" height="63" viewBox="-6.5 -6.5 63 63" fill="none" xmlns="http://www.w3.org/2000/svg">
<rect x="11.9156" y="0.9" width="26.8885" height="48.2" rx="3.1" stroke="black" stroke-width="1.8"/>
<rect x="19.0312" width="11.4754" height="3.27869" rx="1" fill="black"/>
<circle cx="25.7703" cy="24.5906" r="8.11639" stroke="black" stroke-width="1.8"/>
<path d="M25.9091 31.0666V19.2484H26.6662V31.0666H25.9091ZM28.2773 22.9139C28.2281 22.4769 28.025 22.1383 27.668 21.8983C27.311 21.6551 26.8616 21.5336 26.32 21.5336C25.9322 21.5336 25.5967 21.5951 25.3136 21.7182C25.0304 21.8382 24.8104 22.0044 24.6534 22.2168C24.4995 22.4261 24.4226 22.6646 24.4226 22.9324C24.4226 23.157 24.4749 23.3509 24.5795 23.514C24.6873 23.6771 24.8273 23.8141 24.9996 23.9249C25.1751 24.0326 25.3628 24.1234 25.5629 24.1973C25.7629 24.2681 25.9553 24.3265 26.1399 24.3727L27.0632 24.6127C27.3648 24.6866 27.6741 24.7866 27.9911 24.9128C28.3081 25.039 28.602 25.2052 28.8729 25.4114C29.1437 25.6176 29.3622 25.873 29.5284 26.1777C29.6977 26.4824 29.7823 26.8471 29.7823 27.2718C29.7823 27.8074 29.6438 28.2828 29.3668 28.6983C29.0929 29.1138 28.6944 29.4416 28.1712 29.6816C27.651 29.9217 27.0217 30.0417 26.283 30.0417C25.5752 30.0417 24.9627 29.9294 24.4457 29.7047C23.9286 29.4801 23.5239 29.1615 23.2315 28.7491C22.9392 28.3336 22.7776 27.8412 22.7468 27.2718H24.1779C24.2056 27.6135 24.3164 27.8981 24.5103 28.1259C24.7073 28.3506 24.9581 28.5183 25.2628 28.6291C25.5705 28.7368 25.9076 28.7907 26.2738 28.7907C26.677 28.7907 27.0355 28.7276 27.3494 28.6014C27.6664 28.4721 27.9157 28.2936 28.0973 28.0659C28.2789 27.835 28.3697 27.5658 28.3697 27.258C28.3697 26.9779 28.2897 26.7486 28.1296 26.5701C27.9727 26.3916 27.7588 26.2439 27.4879 26.127C27.2202 26.01 26.917 25.9069 26.5785 25.8176L25.4613 25.513C24.7042 25.3068 24.104 25.0036 23.6609 24.6035C23.2208 24.2034 23.0007 23.6741 23.0007 23.0154C23.0007 22.4707 23.1484 21.9952 23.4439 21.589C23.7393 21.1827 24.1394 20.8672 24.6442 20.6426C25.1489 20.4148 25.7183 20.301 26.3523 20.301C26.9924 20.301 27.5572 20.4133 28.0465 20.638C28.5389 20.8626 28.9267 21.1719 29.2099 21.5659C29.493 21.9567 29.6407 22.4061 29.6531 22.9139H28.2773Z" fill="black"/>
<path d="M33.7852 15.984L48.5393 15.984M48.5393 15.984L43.9064 20.4922M48.5393 15.984L43.9064 11.4758" stroke="black" stroke-width="1.8"/>
<path d="M16.7539 32.3773L1.99976 32.3773M1.99976 32.3773L6.63269 27.8691M1.99976 32.3773L6.63269 36.8855" stroke="black" stroke-width="1.8"/>
<path d="M20.5 46H29.5" stroke="black"/>
</svg>
