<svg width="51" height="63" viewBox="0 -11.5 51 63" fill="none" xmlns="http://www.w3.org/2000/svg">
<circle cx="37.7344" cy="8.93359" r="7.1" stroke="black" stroke-width="1.8"/>
<path d="M36.9336 2.13379L37.7336 8.93379M37.7336 8.93379L32.9336 13.7338M37.7336 8.93379L44.1336 11.3338" stroke="black" stroke-width="1.8"/>
<circle cx="37.7328" cy="8.93301" r="1.6" fill="black"/>
<circle cx="37.8" cy="9.0002" r="7.9" stroke="black" stroke-width="1.8" stroke-dasharray="2.2 2.2"/>
<circle cx="39.5192" cy="27.7194" r="8.73636" stroke="black" stroke-width="1.8"/>
<circle cx="39.6" cy="27.8002" r="9.7" stroke="black" stroke-width="1.8" stroke-dasharray="3 3"/>
<circle cx="39.3992" cy="27.6004" r="6.3" stroke="black" stroke-width="1.8"/>
<circle cx="19.6" cy="19.6" r="18.7" fill="#F1F1F1" stroke="black" stroke-width="1.8"/>
<path d="M10.832 24.7569C9.60087 24.7569 8.42013 24.2678 7.54957 23.3972C6.679 22.5267 6.18993 21.3459 6.18993 20.1148C6.18993 18.8836 6.679 17.7029 7.54957 16.8323C8.42013 15.9617 9.60087 15.4727 10.832 15.4727" stroke="black" stroke-width="1.8"/>
<path d="M27.8516 24.7569C29.0827 24.7569 30.2635 24.2678 31.134 23.3972C32.0046 22.5267 32.4937 21.3459 32.4937 20.1148C32.4937 18.8836 32.0046 17.7029 31.134 16.8323C30.2635 15.9617 29.0827 15.4727 27.8516 15.4727" stroke="black" stroke-width="1.8"/>
<path d="M28.8848 16.5059C28.8848 14.0436 27.9067 11.6821 26.1655 9.94096C24.4244 8.19983 22.0629 7.22168 19.6006 7.22168C17.1383 7.22168 14.7768 8.19983 13.0357 9.94096C11.2946 11.6821 10.3164 14.0436 10.3164 16.5059" stroke="black" stroke-width="1.8"/>
<path d="M10.3174 21.6631C10.3174 24.1254 11.2955 26.4869 13.0366 28.228C14.7778 29.9691 17.1392 30.9473 19.6016 30.9473" stroke="black" stroke-width="1.8"/>
<path d="M10.3164 15.4727V21.6621" stroke="black" stroke-width="1.8"/>
<path d="M28.8828 15.4727V23.7253" stroke="black" stroke-width="1.8"/>
<circle cx="20.1141" cy="30.4315" r="2.57895" fill="black"/>
</svg>
