<svg width="40" height="63" viewBox="0 -7.5 40 63" fill="none" xmlns="http://www.w3.org/2000/svg">
<path d="M1.5 18.5V43" stroke="black" stroke-width="2"/>
<path d="M32 14H5" stroke="black" stroke-width="2"/>
<path d="M35.5 22H5.5" stroke="black" stroke-width="2"/>
<path d="M35.5 47H5.5" stroke="black" stroke-width="2"/>
<path d="M5.5 14C4.97471 14 4.45457 14.1035 3.96927 14.3045C3.48396 14.5055 3.04301 14.8001 2.67157 15.1716C2.30014 15.543 2.0055 15.984 1.80448 16.4693C1.60346 16.9546 1.5 17.4747 1.5 18C1.5 18.5253 1.60346 19.0454 1.80448 19.5307C2.0055 20.016 2.30014 20.457 2.67157 20.8284C3.04301 21.1999 3.48396 21.4945 3.96927 21.6955C4.45457 21.8965 4.97471 22 5.5 22" stroke="black" stroke-width="2"/>
<path d="M1.5 43C1.5 43.5253 1.60346 44.0454 1.80448 44.5307C2.0055 45.016 2.30014 45.457 2.67157 45.8284C3.04301 46.1999 3.48396 46.4945 3.96927 46.6955C4.45457 46.8965 4.97471 47 5.5 47" stroke="black" stroke-width="2"/>
<path d="M35.5 21L35.5 48" stroke="black" stroke-width="2"/>
<path d="M31.5 13V22" stroke="black" stroke-width="2"/>
<circle cx="19" cy="10.5" r="9.63636" fill="#F1F1F1" stroke="black" stroke-width="1.72727"/>
<circle cx="19" cy="10.5" r="7.63636" fill="#F1F1F1" stroke="black" stroke-width="1.72727" stroke-dasharray="1 2"/>
<path d="M27.3916 31.249C27.7473 31.0832 28.1235 31 28.5 31H38.5V38H28.5C28.1235 38 27.7473 37.9168 27.3916 37.751C27.0355 37.5851 26.7038 37.3381 26.419 37.0176C26.1339 36.6969 25.9025 36.3101 25.7429 35.8766C25.5833 35.443 25.5 34.9749 25.5 34.5C25.5 34.0251 25.5833 33.557 25.7429 33.1234C25.9025 32.6899 26.1339 32.3031 26.419 31.9824C26.7038 31.6619 27.0355 31.4149 27.3916 31.249Z" fill="white" stroke="black" stroke-width="2"/>
<path d="M19.1063 16.5533V5.56154H19.8105V16.5533H19.1063ZM21.3089 8.97069C21.2631 8.56423 21.0742 8.24936 20.7422 8.02609C20.4101 7.79996 19.9922 7.68689 19.4884 7.68689C19.1278 7.68689 18.8158 7.74414 18.5524 7.85864C18.2891 7.97028 18.0844 8.12485 17.9384 8.32235C17.7953 8.517 17.7238 8.73884 17.7238 8.98787C17.7238 9.19683 17.7724 9.37716 17.8697 9.52887C17.9699 9.68058 18.1002 9.80796 18.2605 9.911C18.4236 10.0112 18.5982 10.0956 18.7843 10.1643C18.9703 10.2302 19.1492 10.2846 19.321 10.3275L20.1797 10.5508C20.4602 10.6195 20.7479 10.7125 21.0427 10.8298C21.3376 10.9472 21.6109 11.1018 21.8628 11.2936C22.1147 11.4853 22.318 11.7229 22.4725 12.0063C22.63 12.2897 22.7087 12.6289 22.7087 13.0239C22.7087 13.522 22.5799 13.9642 22.3222 14.3506C22.0675 14.7371 21.6968 15.0419 21.2102 15.2652C20.7264 15.4885 20.1411 15.6001 19.4541 15.6001C18.7957 15.6001 18.2261 15.4956 17.7452 15.2866C17.2643 15.0777 16.8879 14.7814 16.616 14.3979C16.3441 14.0114 16.1938 13.5534 16.1652 13.0239H17.4962C17.522 13.3416 17.625 13.6064 17.8053 13.8182C17.9885 14.0272 18.2218 14.1832 18.5052 14.2862C18.7914 14.3864 19.1049 14.4365 19.4455 14.4365C19.8205 14.4365 20.154 14.3778 20.4459 14.2605C20.7408 14.1402 20.9726 13.9742 21.1415 13.7624C21.3104 13.5477 21.3948 13.2973 21.3948 13.011C21.3948 12.7505 21.3204 12.5373 21.1716 12.3713C21.0256 12.2052 20.8266 12.0678 20.5747 11.9591C20.3257 11.8503 20.0438 11.7544 19.7289 11.6714L18.6898 11.388C17.9857 11.1962 17.4275 10.9143 17.0153 10.5422C16.606 10.1701 16.4013 9.67772 16.4013 9.06515C16.4013 8.5585 16.5387 8.11626 16.8135 7.73842C17.0883 7.36058 17.4604 7.06718 17.9298 6.85822C18.3993 6.6464 18.9288 6.54049 19.5185 6.54049C20.1139 6.54049 20.6391 6.64497 21.0943 6.85393C21.5523 7.06288 21.9129 7.35056 22.1763 7.71695C22.4396 8.08048 22.577 8.49839 22.5885 8.97069H21.3089Z" fill="black"/>
</svg>
