<svg width="59" height="59" viewBox="0 0 59 59" fill="none" xmlns="http://www.w3.org/2000/svg">
<g id="Icon">
<g clip-path="url(#clip0_19378_1430)">
<path id="Vector" d="M58.1108 36.6362C54.1708 52.4399 38.1642 62.0578 22.3586 58.1168C6.55965 54.1769 -3.05819 38.1693 0.883482 22.3668C4.82169 6.56136 20.8283 -3.0572 36.629 0.882741C52.4334 4.82268 62.0507 20.832 58.1103 36.6365L58.1106 36.6362H58.1108Z" fill="#F7931A"/>
<path id="Vector_2" d="M43.5278 25.8419C44.115 21.9161 41.1261 19.8058 37.0391 18.398L38.365 13.0802L35.1278 12.2736L33.8372 17.4514C32.9861 17.2392 32.1122 17.0392 31.2436 16.8409L32.5436 11.6289L29.3085 10.8223L27.9819 16.1384C27.2777 15.978 26.586 15.8196 25.9149 15.6526L25.9186 15.6359L21.4546 14.5211L20.5934 17.9786C20.5934 17.9786 22.9951 18.5291 22.9445 18.563C24.2554 18.8902 24.4924 19.7579 24.4531 20.4457L22.9428 26.504C23.033 26.5269 23.1501 26.5601 23.2793 26.612C23.1713 26.5852 23.0564 26.5559 22.9372 26.5274L20.8202 35.0142C20.6601 35.4124 20.2534 36.0101 19.3369 35.7831C19.3694 35.8301 16.9841 35.196 16.9841 35.196L15.377 38.9015L19.5896 39.9516C20.3733 40.1482 21.1412 40.3538 21.8975 40.5471L20.558 45.926L23.7914 46.7326L25.1179 41.4109C26.0013 41.6507 26.8585 41.8718 27.6977 42.0803L26.3756 47.377L29.6129 48.1836L30.9523 42.8149C36.4723 43.8595 40.6229 43.4384 42.3699 38.4455C43.7777 34.4257 42.2999 32.1071 39.3958 30.5951C41.511 30.1073 43.1042 28.7161 43.529 25.8423L43.528 25.8416L43.5278 25.8419ZM36.1317 36.2131C35.1313 40.2329 28.3631 38.0599 26.1688 37.515L27.9464 30.389C30.1406 30.9368 37.1772 32.0208 36.1318 36.2131H36.1317ZM37.1328 25.7836C36.2202 29.4401 30.587 27.5824 28.7597 27.1269L30.3713 20.664C32.1987 21.1195 38.0835 21.9697 37.1331 25.7836H37.1328Z" fill="white"/>
</g>
</g>
<defs>
<clipPath id="clip0_19378_1430">
<rect width="59" height="59" rx="29.5" fill="white"/>
</clipPath>
</defs>
</svg>
