<svg width="64" height="64" viewBox="0 0 64 64" fill="none" xmlns="http://www.w3.org/2000/svg">
<g id="ArrowsClockwise">
<path id="Vector" d="M49.4175 46.5925C49.7908 46.9673 50.0003 47.4748 50.0003 48.0037C50.0003 48.5327 49.7908 49.0402 49.4175 49.415C49.145 49.6825 42.705 56 32 56C22.6525 56 15.8675 50.4 12 46.0375V52C12 52.5304 11.7893 53.0391 11.4142 53.4142C11.0391 53.7893 10.5304 54 10 54C9.46957 54 8.96086 53.7893 8.58579 53.4142C8.21071 53.0391 8 52.5304 8 52V40C8 39.4696 8.21071 38.9609 8.58579 38.5858C8.96086 38.2107 9.46957 38 10 38H22C22.5304 38 23.0391 38.2107 23.4142 38.5858C23.7893 38.9609 24 39.4696 24 40C24 40.5304 23.7893 41.0391 23.4142 41.4142C23.0391 41.7893 22.5304 42 22 42H13.86C16.94 45.8375 23.25 52 32 52C41 52 46.535 46.635 46.59 46.58C46.9667 46.2069 47.4761 45.9986 48.0063 46.0009C48.5365 46.0033 49.0441 46.216 49.4175 46.5925ZM54 10C53.4696 10 52.9609 10.2107 52.5858 10.5858C52.2107 10.9609 52 11.4696 52 12V17.9625C48.1325 13.6 41.3475 8 32 8C21.295 8 14.855 14.3175 14.585 14.585C14.2091 14.9596 13.9973 15.4682 13.9964 15.999C13.9955 16.5297 14.2054 17.0391 14.58 17.415C14.9546 17.7909 15.4632 18.0027 15.994 18.0036C16.5247 18.0045 17.0341 17.7946 17.41 17.42C17.465 17.365 23 12 32 12C40.75 12 47.06 18.1625 50.14 22H42C41.4696 22 40.9609 22.2107 40.5858 22.5858C40.2107 22.9609 40 23.4696 40 24C40 24.5304 40.2107 25.0391 40.5858 25.4142C40.9609 25.7893 41.4696 26 42 26H54C54.5304 26 55.0391 25.7893 55.4142 25.4142C55.7893 25.0391 56 24.5304 56 24V12C56 11.4696 55.7893 10.9609 55.4142 10.5858C55.0391 10.2107 54.5304 10 54 10Z" fill="white"/>
</g>
</svg>
