<svg width="49" height="48" viewBox="0 0 49 48" fill="none" xmlns="http://www.w3.org/2000/svg">
<path d="M33.8516 16.5H15.8516C15.4537 16.5 15.0722 16.658 14.7909 16.9393C14.5096 17.2206 14.3516 17.6022 14.3516 18V30C14.3516 30.3978 14.5096 30.7794 14.7909 31.0607C15.0722 31.342 15.4537 31.5 15.8516 31.5H33.8516C34.2494 31.5 34.6309 31.342 34.9122 31.0607C35.1935 30.7794 35.3516 30.3978 35.3516 30V18C35.3516 17.6022 35.1935 17.2206 34.9122 16.9393C34.6309 16.658 34.2494 16.5 33.8516 16.5ZM33.8516 18V20.25H15.8516V18H33.8516ZM33.8516 30H15.8516V21.75H33.8516V30ZM32.3516 27.75C32.3516 27.9489 32.2725 28.1397 32.1319 28.2803C31.9912 28.421 31.8005 28.5 31.6016 28.5H28.6016C28.4026 28.5 28.2119 28.421 28.0712 28.2803C27.9306 28.1397 27.8516 27.9489 27.8516 27.75C27.8516 27.5511 27.9306 27.3603 28.0712 27.2197C28.2119 27.079 28.4026 27 28.6016 27H31.6016C31.8005 27 31.9912 27.079 32.1319 27.2197C32.2725 27.3603 32.3516 27.5511 32.3516 27.75ZM26.3516 27.75C26.3516 27.9489 26.2725 28.1397 26.1319 28.2803C25.9912 28.421 25.8005 28.5 25.6016 28.5H24.1016C23.9026 28.5 23.7119 28.421 23.5712 28.2803C23.4306 28.1397 23.3516 27.9489 23.3516 27.75C23.3516 27.5511 23.4306 27.3603 23.5712 27.2197C23.7119 27.079 23.9026 27 24.1016 27H25.6016C25.8005 27 25.9912 27.079 26.1319 27.2197C26.2725 27.3603 26.3516 27.5511 26.3516 27.75Z" fill="#0047BB"/>
</svg>
