<svg width="49" height="48" viewBox="0 0 49 48" fill="none" xmlns="http://www.w3.org/2000/svg">
<path d="M31.6406 19.5H28.6406V17.25C28.6406 16.0565 28.1665 14.9119 27.3226 14.068C26.4787 13.2241 25.3341 12.75 24.1406 12.75C22.9472 12.75 21.8026 13.2241 20.9586 14.068C20.1147 14.9119 19.6406 16.0565 19.6406 17.25V19.5H16.6406C16.2428 19.5 15.8613 19.658 15.58 19.9393C15.2987 20.2206 15.1406 20.6022 15.1406 21V31.5C15.1406 31.8978 15.2987 32.2794 15.58 32.5607C15.8613 32.842 16.2428 33 16.6406 33H31.6406C32.0385 33 32.42 32.842 32.7013 32.5607C32.9826 32.2794 33.1406 31.8978 33.1406 31.5V21C33.1406 20.6022 32.9826 20.2206 32.7013 19.9393C32.42 19.658 32.0385 19.5 31.6406 19.5ZM21.1406 17.25C21.1406 16.4544 21.4567 15.6913 22.0193 15.1287C22.5819 14.5661 23.345 14.25 24.1406 14.25C24.9363 14.25 25.6993 14.5661 26.2619 15.1287C26.8246 15.6913 27.1406 16.4544 27.1406 17.25V19.5H21.1406V17.25ZM31.6406 31.5H16.6406V21H31.6406V31.5ZM25.2656 26.25C25.2656 26.4725 25.1996 26.69 25.076 26.875C24.9524 27.06 24.7767 27.2042 24.5711 27.2894C24.3656 27.3745 24.1394 27.3968 23.9211 27.3534C23.7029 27.31 23.5025 27.2028 23.3451 27.0455C23.1878 26.8882 23.0806 26.6877 23.0372 26.4695C22.9938 26.2512 23.0161 26.025 23.1013 25.8195C23.1864 25.6139 23.3306 25.4382 23.5156 25.3146C23.7006 25.191 23.9181 25.125 24.1406 25.125C24.439 25.125 24.7251 25.2435 24.9361 25.4545C25.1471 25.6655 25.2656 25.9516 25.2656 26.25Z" fill="#0047BB"/>
</svg>
