<svg width="49" height="48" viewBox="0 0 49 48" fill="none" xmlns="http://www.w3.org/2000/svg">
<path d="M32.6797 17.25H28.9297V16.5C28.9297 15.9033 28.6926 15.331 28.2707 14.909C27.8487 14.4871 27.2764 14.25 26.6797 14.25H22.1797C21.583 14.25 21.0107 14.4871 20.5887 14.909C20.1667 15.331 19.9297 15.9033 19.9297 16.5V17.25H16.1797C15.7819 17.25 15.4003 17.408 15.119 17.6893C14.8377 17.9706 14.6797 18.3522 14.6797 18.75V30.75C14.6797 31.1478 14.8377 31.5294 15.119 31.8107C15.4003 32.092 15.7819 32.25 16.1797 32.25H32.6797C33.0775 32.25 33.459 32.092 33.7403 31.8107C34.0217 31.5294 34.1797 31.1478 34.1797 30.75V18.75C34.1797 18.3522 34.0217 17.9706 33.7403 17.6893C33.459 17.408 33.0775 17.25 32.6797 17.25ZM21.4297 16.5C21.4297 16.3011 21.5087 16.1103 21.6494 15.9697C21.79 15.829 21.9808 15.75 22.1797 15.75H26.6797C26.8786 15.75 27.0694 15.829 27.21 15.9697C27.3507 16.1103 27.4297 16.3011 27.4297 16.5V17.25H21.4297V16.5ZM32.6797 18.75V22.6509C30.1482 24.0289 27.3119 24.7505 24.4297 24.75C21.5476 24.7505 18.7113 24.0292 16.1797 22.6519V18.75H32.6797ZM32.6797 30.75H16.1797V24.3412C18.7484 25.5977 21.5702 26.2506 24.4297 26.25C27.2892 26.2501 30.111 25.5969 32.6797 24.3403V30.75ZM22.1797 22.5C22.1797 22.3011 22.2587 22.1103 22.3994 21.9697C22.54 21.829 22.7308 21.75 22.9297 21.75H25.9297C26.1286 21.75 26.3194 21.829 26.46 21.9697C26.6007 22.1103 26.6797 22.3011 26.6797 22.5C26.6797 22.6989 26.6007 22.8897 26.46 23.0303C26.3194 23.171 26.1286 23.25 25.9297 23.25H22.9297C22.7308 23.25 22.54 23.171 22.3994 23.0303C22.2587 22.8897 22.1797 22.6989 22.1797 22.5Z" fill="#0047BB"/>
</svg>
