<svg width="49" height="48" viewBox="0 0 49 48" fill="none" xmlns="http://www.w3.org/2000/svg">
<path d="M34.0151 14.689C33.8265 14.5005 33.591 14.3657 33.333 14.2985C33.0749 14.2312 32.8036 14.234 32.547 14.3065H32.5329L14.5386 19.7665C14.2456 19.8507 13.9853 20.0222 13.7923 20.2581C13.5993 20.494 13.4827 20.783 13.458 21.0868C13.4334 21.3906 13.5019 21.6947 13.6544 21.9586C13.8069 22.2225 14.0362 22.4337 14.3117 22.564L22.3386 26.3656L26.1401 34.3924C26.2601 34.6495 26.4512 34.8668 26.6907 35.0188C26.9303 35.1708 27.2083 35.2511 27.492 35.2502C27.5351 35.2502 27.5782 35.2484 27.6214 35.2446C27.9241 35.2201 28.2121 35.1036 28.4467 34.9107C28.6813 34.7178 28.8513 34.4578 28.9339 34.1656L34.3901 16.1712C34.3901 16.1665 34.3901 16.1618 34.3901 16.1571C34.4636 15.9012 34.4675 15.6302 34.4016 15.3722C34.3357 15.1142 34.2023 14.8784 34.0151 14.689ZM27.5004 33.7362L27.4957 33.7493L23.8057 25.9596L28.2345 21.5299C28.3692 21.3881 28.4432 21.1993 28.4407 21.0038C28.4382 20.8082 28.3594 20.6213 28.2211 20.483C28.0828 20.3447 27.8959 20.2659 27.7004 20.2634C27.5048 20.2609 27.316 20.3349 27.1742 20.4696L22.7445 24.8984L14.9539 21.2084H14.967L32.9539 15.7502L27.5004 33.7362Z" fill="#0047BB"/>
</svg>
