<svg width="49" height="48" viewBox="0 0 49 48" fill="none" xmlns="http://www.w3.org/2000/svg">
<path d="M29.5312 20.3972V19.875C29.5312 17.5238 25.9847 15.75 21.2812 15.75C16.5778 15.75 13.0312 17.5238 13.0312 19.875V23.625C13.0312 25.5834 15.4922 27.1397 19.0312 27.6056V28.125C19.0312 30.4762 22.5778 32.25 27.2812 32.25C31.9847 32.25 35.5312 30.4762 35.5312 28.125V24.375C35.5312 22.4344 33.1481 20.8762 29.5312 20.3972ZM34.0312 24.375C34.0312 25.6144 31.1447 27 27.2812 27C26.9316 27 26.5847 26.9878 26.2425 26.9653C28.2647 26.2284 29.5312 25.0312 29.5312 23.625V21.9131C32.3316 22.3303 34.0312 23.4628 34.0312 24.375ZM19.0312 26.0859V23.8556C19.7773 23.9528 20.5289 24.0011 21.2812 24C22.0336 24.0011 22.7852 23.9528 23.5312 23.8556V26.0859C22.7863 26.196 22.0343 26.2508 21.2812 26.25C20.5282 26.2508 19.7762 26.196 19.0312 26.0859ZM28.0312 22.3059V23.625C28.0312 24.4116 26.8678 25.2562 25.0312 25.7691V23.5781C26.2416 23.2847 27.2662 22.8478 28.0312 22.3059ZM21.2812 17.25C25.1447 17.25 28.0312 18.6356 28.0312 19.875C28.0312 21.1144 25.1447 22.5 21.2812 22.5C17.4178 22.5 14.5312 21.1144 14.5312 19.875C14.5312 18.6356 17.4178 17.25 21.2812 17.25ZM14.5312 23.625V22.3059C15.2962 22.8478 16.3209 23.2847 17.5312 23.5781V25.7691C15.6947 25.2562 14.5312 24.4116 14.5312 23.625ZM20.5312 28.125V27.7341C20.7778 27.7434 21.0272 27.75 21.2812 27.75C21.645 27.75 22.0003 27.7378 22.3491 27.7172C22.7365 27.8559 23.1311 27.9736 23.5312 28.0697V30.2691C21.6947 29.7562 20.5312 28.9116 20.5312 28.125ZM25.0312 30.5859V28.35C25.7771 28.4503 26.5287 28.5004 27.2812 28.5C28.0336 28.5011 28.7852 28.4528 29.5312 28.3556V30.5859C28.0392 30.8047 26.5233 30.8047 25.0312 30.5859ZM31.0312 30.2691V28.0781C32.2416 27.7847 33.2663 27.3478 34.0312 26.8059V28.125C34.0312 28.9116 32.8678 29.7562 31.0312 30.2691Z" fill="#0047BB"/>
</svg>
