<svg width="49" height="48" viewBox="0 0 49 48" fill="none" xmlns="http://www.w3.org/2000/svg">
<path d="M29.3028 22.8469C29.8721 22.2988 30.2719 21.5987 30.4547 20.8299C30.6376 20.0612 30.5958 19.256 30.3343 18.5103C30.0728 17.7646 29.6026 17.1097 28.9796 16.6236C28.3567 16.1374 27.6072 15.8403 26.8203 15.7678V14.25C26.8203 14.0511 26.7413 13.8603 26.6006 13.7197C26.46 13.579 26.2692 13.5 26.0703 13.5C25.8714 13.5 25.6806 13.579 25.54 13.7197C25.3993 13.8603 25.3203 14.0511 25.3203 14.25V15.75H23.8203V14.25C23.8203 14.0511 23.7413 13.8603 23.6006 13.7197C23.46 13.579 23.2692 13.5 23.0703 13.5C22.8714 13.5 22.6806 13.579 22.54 13.7197C22.3993 13.8603 22.3203 14.0511 22.3203 14.25V15.75H19.3203C19.1214 15.75 18.9306 15.829 18.79 15.9697C18.6493 16.1103 18.5703 16.3011 18.5703 16.5C18.5703 16.6989 18.6493 16.8897 18.79 17.0303C18.9306 17.171 19.1214 17.25 19.3203 17.25H20.0703V30H19.3203C19.1214 30 18.9306 30.079 18.79 30.2197C18.6493 30.3603 18.5703 30.5511 18.5703 30.75C18.5703 30.9489 18.6493 31.1397 18.79 31.2803C18.9306 31.421 19.1214 31.5 19.3203 31.5H22.3203V33C22.3203 33.1989 22.3993 33.3897 22.54 33.5303C22.6806 33.671 22.8714 33.75 23.0703 33.75C23.2692 33.75 23.46 33.671 23.6006 33.5303C23.7413 33.3897 23.8203 33.1989 23.8203 33V31.5H25.3203V33C25.3203 33.1989 25.3993 33.3897 25.54 33.5303C25.6806 33.671 25.8714 33.75 26.0703 33.75C26.2692 33.75 26.46 33.671 26.6006 33.5303C26.7413 33.3897 26.8203 33.1989 26.8203 33V31.5H27.5703C28.6104 31.5 29.6185 31.1397 30.4229 30.4803C31.2273 29.821 31.7785 28.9033 31.9827 27.8834C32.1869 26.8636 32.0315 25.8044 31.5429 24.8862C31.0544 23.968 30.2628 23.2473 29.3028 22.8469ZM29.0703 19.875C29.0703 20.5712 28.7938 21.2389 28.3015 21.7312C27.8092 22.2234 27.1415 22.5 26.4453 22.5H21.5703V17.25H26.4453C27.1415 17.25 27.8092 17.5266 28.3015 18.0188C28.7938 18.5111 29.0703 19.1788 29.0703 19.875ZM27.5703 30H21.5703V24H27.5703C28.366 24 29.129 24.3161 29.6916 24.8787C30.2542 25.4413 30.5703 26.2044 30.5703 27C30.5703 27.7956 30.2542 28.5587 29.6916 29.1213C29.129 29.6839 28.366 30 27.5703 30Z" fill="#0047BB"/>
</svg>
