<svg width="48" height="48" viewBox="0 0 48 48" fill="none" xmlns="http://www.w3.org/2000/svg">
<path d="M32.9922 16.5H14.9922C14.5944 16.5 14.2128 16.658 13.9315 16.9393C13.6502 17.2206 13.4922 17.6022 13.4922 18V30C13.4922 30.3978 13.6502 30.7794 13.9315 31.0607C14.2128 31.342 14.5944 31.5 14.9922 31.5H32.9922C33.39 31.5 33.7715 31.342 34.0528 31.0607C34.3342 30.7794 34.4922 30.3978 34.4922 30V18C34.4922 17.6022 34.3342 17.2206 34.0528 16.9393C33.7715 16.658 33.39 16.5 32.9922 16.5ZM32.9922 18V20.25H14.9922V18H32.9922ZM32.9922 30H14.9922V21.75H32.9922V30ZM31.4922 27.75C31.4922 27.9489 31.4132 28.1397 31.2725 28.2803C31.1319 28.421 30.9411 28.5 30.7422 28.5H27.7422C27.5433 28.5 27.3525 28.421 27.2119 28.2803C27.0712 28.1397 26.9922 27.9489 26.9922 27.75C26.9922 27.5511 27.0712 27.3603 27.2119 27.2197C27.3525 27.079 27.5433 27 27.7422 27H30.7422C30.9411 27 31.1319 27.079 31.2725 27.2197C31.4132 27.3603 31.4922 27.5511 31.4922 27.75ZM25.4922 27.75C25.4922 27.9489 25.4132 28.1397 25.2725 28.2803C25.1319 28.421 24.9411 28.5 24.7422 28.5H23.2422C23.0433 28.5 22.8525 28.421 22.7119 28.2803C22.5712 28.1397 22.4922 27.9489 22.4922 27.75C22.4922 27.5511 22.5712 27.3603 22.7119 27.2197C22.8525 27.079 23.0433 27 23.2422 27H24.7422C24.9411 27 25.1319 27.079 25.2725 27.2197C25.4132 27.3603 25.4922 27.5511 25.4922 27.75Z" fill="#0047BB"/>
</svg>
