<svg width="80" height="80" viewBox="0 0 80 80" fill="none" xmlns="http://www.w3.org/2000/svg">
<rect width="80" height="80" rx="40" fill="#0047BB"/>
<path d="M60 18H20C18.9391 18 17.9217 18.4214 17.1716 19.1716C16.4214 19.9217 16 20.9391 16 22V36.6925C16 59.095 34.955 66.5275 38.75 67.79C39.5605 68.0656 40.4395 68.0656 41.25 67.79C45.05 66.5275 64 59.095 64 36.6925V22C64 20.9391 63.5786 19.9217 62.8284 19.1716C62.0783 18.4214 61.0609 18 60 18ZM60 36.6975C60 56.3025 43.4125 62.8525 40 63.9925C36.6175 62.865 20 56.32 20 36.6975V22H60V36.6975Z" fill="white"/>
<path d="M27.4048 46V35.776H23.3728V33.4H34.3528V35.776H30.3208V46H27.4048ZM35.9217 46V33.4H38.8377V43.624H45.1557V46H35.9217ZM50.8547 46.216C49.8467 46.216 48.8807 46.084 47.9567 45.82C47.0327 45.544 46.2887 45.19 45.7247 44.758L46.7147 42.562C47.2547 42.946 47.8907 43.264 48.6227 43.516C49.3667 43.756 50.1167 43.876 50.8727 43.876C51.4487 43.876 51.9107 43.822 52.2587 43.714C52.6187 43.594 52.8827 43.432 53.0507 43.228C53.2187 43.024 53.3027 42.79 53.3027 42.526C53.3027 42.19 53.1707 41.926 52.9067 41.734C52.6427 41.53 52.2947 41.368 51.8627 41.248C51.4307 41.116 50.9507 40.996 50.4227 40.888C49.9067 40.768 49.3847 40.624 48.8567 40.456C48.3407 40.288 47.8667 40.072 47.4347 39.808C47.0027 39.544 46.6487 39.196 46.3727 38.764C46.1087 38.332 45.9767 37.78 45.9767 37.108C45.9767 36.388 46.1687 35.734 46.5527 35.146C46.9487 34.546 47.5367 34.072 48.3167 33.724C49.1087 33.364 50.0987 33.184 51.2867 33.184C52.0787 33.184 52.8587 33.28 53.6267 33.472C54.3947 33.652 55.0727 33.928 55.6607 34.3L54.7607 36.514C54.1727 36.178 53.5847 35.932 52.9967 35.776C52.4087 35.608 51.8327 35.524 51.2687 35.524C50.7047 35.524 50.2427 35.59 49.8827 35.722C49.5227 35.854 49.2647 36.028 49.1087 36.244C48.9527 36.448 48.8747 36.688 48.8747 36.964C48.8747 37.288 49.0067 37.552 49.2707 37.756C49.5347 37.948 49.8827 38.104 50.3147 38.224C50.7467 38.344 51.2207 38.464 51.7367 38.584C52.2647 38.704 52.7867 38.842 53.3027 38.998C53.8307 39.154 54.3107 39.364 54.7427 39.628C55.1747 39.892 55.5227 40.24 55.7867 40.672C56.0627 41.104 56.2007 41.65 56.2007 42.31C56.2007 43.018 56.0027 43.666 55.6067 44.254C55.2107 44.842 54.6167 45.316 53.8247 45.676C53.0447 46.036 52.0547 46.216 50.8547 46.216Z" fill="white"/>
</svg>
