<svg width="80" height="80" viewBox="0 0 80 80" fill="none" xmlns="http://www.w3.org/2000/svg">
<rect width="80" height="80" rx="40" fill="#151516"/>
<path d="M32.0263 39.216C31.1503 39.216 30.2803 39.102 29.4163 38.874C28.5523 38.634 27.8203 38.298 27.2203 37.866L28.3543 35.634C28.8343 35.982 29.3923 36.258 30.0283 36.462C30.6643 36.666 31.3063 36.768 31.9543 36.768C32.6863 36.768 33.2623 36.624 33.6823 36.336C34.1023 36.048 34.3123 35.652 34.3123 35.148C34.3123 34.668 34.1263 34.29 33.7543 34.014C33.3823 33.738 32.7823 33.6 31.9543 33.6H30.6223V31.674L34.1323 27.696L34.4563 28.74H27.8503V26.4H36.6703V28.29L33.1783 32.268L31.7023 31.422H32.5483C34.0963 31.422 35.2663 31.77 36.0583 32.466C36.8503 33.162 37.2463 34.056 37.2463 35.148C37.2463 35.856 37.0603 36.522 36.6883 37.146C36.3163 37.758 35.7463 38.256 34.9783 38.64C34.2103 39.024 33.2263 39.216 32.0263 39.216ZM39.3846 39V26.4H45.1086C46.4766 26.4 47.6826 26.664 48.7266 27.192C49.7706 27.708 50.5866 28.434 51.1746 29.37C51.7626 30.306 52.0566 31.416 52.0566 32.7C52.0566 33.972 51.7626 35.082 51.1746 36.03C50.5866 36.966 49.7706 37.698 48.7266 38.226C47.6826 38.742 46.4766 39 45.1086 39H39.3846ZM42.3006 36.606H44.9646C45.8046 36.606 46.5306 36.45 47.1426 36.138C47.7666 35.814 48.2466 35.358 48.5826 34.77C48.9306 34.182 49.1046 33.492 49.1046 32.7C49.1046 31.896 48.9306 31.206 48.5826 30.63C48.2466 30.042 47.7666 29.592 47.1426 29.28C46.5306 28.956 45.8046 28.794 44.9646 28.794H42.3006V36.606Z" fill="white"/>
<path d="M24.2115 48.0739L23.1575 48.3722C23.0912 48.1965 22.9934 48.0258 22.8642 47.8601C22.7382 47.6911 22.5659 47.5518 22.3471 47.4425C22.1284 47.3331 21.8483 47.2784 21.5069 47.2784C21.0396 47.2784 20.6502 47.3861 20.3386 47.6016C20.0304 47.8137 19.8762 48.0838 19.8762 48.4119C19.8762 48.7036 19.9823 48.9339 20.1944 49.103C20.4065 49.272 20.738 49.4129 21.1887 49.5256L22.3223 49.804C23.005 49.9697 23.5138 50.2232 23.8485 50.5646C24.1833 50.9027 24.3507 51.3385 24.3507 51.8722C24.3507 52.3097 24.2247 52.7008 23.9728 53.0455C23.7243 53.3902 23.3762 53.6619 22.9288 53.8608C22.4814 54.0597 21.961 54.1591 21.3677 54.1591C20.5888 54.1591 19.9442 53.9901 19.4338 53.652C18.9234 53.3139 18.6002 52.8201 18.4643 52.1705L19.5779 51.892C19.684 52.303 19.8845 52.6113 20.1795 52.8168C20.4778 53.0223 20.8672 53.125 21.3478 53.125C21.8947 53.125 22.3289 53.009 22.6504 52.777C22.9752 52.5417 23.1376 52.2599 23.1376 51.9318C23.1376 51.6667 23.0448 51.4446 22.8592 51.2656C22.6736 51.0833 22.3886 50.9474 22.0041 50.858L20.7314 50.5597C20.032 50.3939 19.5183 50.1371 19.1902 49.7891C18.8654 49.4377 18.7029 48.9986 18.7029 48.4716C18.7029 48.0407 18.8239 47.6596 19.0659 47.3281C19.3111 46.9967 19.6442 46.7365 20.0652 46.5476C20.4894 46.3587 20.97 46.2642 21.5069 46.2642C22.2626 46.2642 22.8559 46.4299 23.2868 46.7614C23.7209 47.0928 24.0292 47.5303 24.2115 48.0739ZM29.3185 54.1591C28.5827 54.1591 27.948 53.9967 27.4144 53.6719C26.8841 53.3438 26.4748 52.8864 26.1864 52.2997C25.9014 51.7098 25.7589 51.0237 25.7589 50.2415C25.7589 49.4593 25.9014 48.7699 26.1864 48.1733C26.4748 47.5734 26.8758 47.1061 27.3896 46.7713C27.9066 46.4332 28.5098 46.2642 29.1992 46.2642C29.5969 46.2642 29.9897 46.3305 30.3775 46.4631C30.7653 46.5956 31.1183 46.8111 31.4364 47.1094C31.7546 47.4044 32.0082 47.7955 32.1971 48.2827C32.386 48.7699 32.4805 49.3698 32.4805 50.0824V50.5795H26.5941V49.5653H31.2873C31.2873 49.1345 31.2011 48.75 31.0288 48.4119C30.8597 48.0739 30.6178 47.8071 30.3029 47.6115C29.9914 47.416 29.6235 47.3182 29.1992 47.3182C28.7319 47.3182 28.3275 47.4342 27.9862 47.6662C27.6481 47.8949 27.3879 48.1932 27.2056 48.5611C27.0233 48.929 26.9322 49.3234 26.9322 49.7443V50.4205C26.9322 50.9972 27.0316 51.486 27.2305 51.8871C27.4326 52.2848 27.7127 52.5881 28.0707 52.7969C28.4286 53.0024 28.8446 53.1051 29.3185 53.1051C29.6268 53.1051 29.9052 53.062 30.1538 52.9759C30.4057 52.8864 30.6228 52.7538 30.805 52.5781C30.9873 52.3991 31.1282 52.1771 31.2276 51.9119L32.3612 52.2301C32.2418 52.6146 32.0413 52.9527 31.7596 53.2443C31.4779 53.5327 31.1299 53.758 30.7156 53.9205C30.3013 54.0795 29.8356 54.1591 29.3185 54.1591ZM37.3675 54.1591C36.6516 54.1591 36.0352 53.9901 35.5181 53.652C35.0011 53.3139 34.6033 52.8482 34.3249 52.255C34.0465 51.6617 33.9073 50.9839 33.9073 50.2216C33.9073 49.446 34.0498 48.7616 34.3349 48.1683C34.6232 47.5717 35.0243 47.1061 35.538 46.7713C36.055 46.4332 36.6583 46.2642 37.3477 46.2642C37.8846 46.2642 38.3685 46.3636 38.7994 46.5625C39.2302 46.7614 39.5832 47.0398 39.8583 47.3977C40.1334 47.7557 40.3041 48.1733 40.3704 48.6506H39.1971C39.1076 48.3026 38.9087 47.9943 38.6005 47.7259C38.2956 47.4541 37.8846 47.3182 37.3675 47.3182C36.9102 47.3182 36.5091 47.4375 36.1644 47.6761C35.823 47.9115 35.5562 48.2446 35.364 48.6754C35.1751 49.103 35.0806 49.6051 35.0806 50.1818C35.0806 50.7718 35.1734 51.2855 35.359 51.723C35.5479 52.1605 35.8131 52.5002 36.1545 52.7422C36.4992 52.9841 36.9035 53.1051 37.3675 53.1051C37.6725 53.1051 37.9492 53.0521 38.1978 52.946C38.4464 52.84 38.6568 52.6875 38.8292 52.4886C39.0015 52.2898 39.1242 52.0511 39.1971 51.7727H40.3704C40.3041 52.2235 40.14 52.6295 39.8782 52.9908C39.6197 53.3487 39.2766 53.6338 38.8491 53.8459C38.4248 54.0547 37.931 54.1591 37.3675 54.1591ZM46.8981 50.8778V46.3636H48.0714V54H46.8981V52.7074H46.8185C46.6396 53.0952 46.3612 53.425 45.9833 53.6967C45.6055 53.9652 45.1282 54.0994 44.5515 54.0994C44.0742 54.0994 43.65 53.995 43.2788 53.7862C42.9076 53.5741 42.6159 53.2559 42.4038 52.8317C42.1916 52.4041 42.0856 51.8655 42.0856 51.2159V46.3636H43.2589V51.1364C43.2589 51.6932 43.4147 52.1373 43.7262 52.4688C44.0411 52.8002 44.4421 52.9659 44.9293 52.9659C45.221 52.9659 45.5176 52.8913 45.8192 52.7422C46.1242 52.593 46.3794 52.3643 46.5849 52.0561C46.7937 51.7479 46.8981 51.3551 46.8981 50.8778ZM50.2203 54V46.3636H51.3539V47.517H51.4334C51.5726 47.1392 51.8245 46.8326 52.1891 46.5973C52.5537 46.362 52.9647 46.2443 53.4221 46.2443C53.5082 46.2443 53.6159 46.246 53.7452 46.2493C53.8745 46.2526 53.9722 46.2576 54.0385 46.2642V47.4574C53.9988 47.4474 53.9076 47.4325 53.7651 47.4126C53.6259 47.3894 53.4784 47.3778 53.3226 47.3778C52.9514 47.3778 52.62 47.4557 52.3283 47.6115C52.04 47.764 51.8113 47.9761 51.6422 48.2479C51.4765 48.5163 51.3936 48.8229 51.3936 49.1676V54H50.2203ZM58.3986 54.1591C57.6628 54.1591 57.0281 53.9967 56.4945 53.6719C55.9642 53.3438 55.5549 52.8864 55.2665 52.2997C54.9815 51.7098 54.839 51.0237 54.839 50.2415C54.839 49.4593 54.9815 48.7699 55.2665 48.1733C55.5549 47.5734 55.9559 47.1061 56.4696 46.7713C56.9867 46.4332 57.5899 46.2642 58.2793 46.2642C58.677 46.2642 59.0698 46.3305 59.4576 46.4631C59.8453 46.5956 60.1983 46.8111 60.5165 47.1094C60.8347 47.4044 61.0882 47.7955 61.2772 48.2827C61.4661 48.7699 61.5605 49.3698 61.5605 50.0824V50.5795H55.6742V49.5653H60.3674C60.3674 49.1345 60.2812 48.75 60.1088 48.4119C59.9398 48.0739 59.6979 47.8071 59.383 47.6115C59.0714 47.416 58.7035 47.3182 58.2793 47.3182C57.812 47.3182 57.4076 47.4342 57.0662 47.6662C56.7282 47.8949 56.468 48.1932 56.2857 48.5611C56.1034 48.929 56.0123 49.3234 56.0123 49.7443V50.4205C56.0123 50.9972 56.1117 51.486 56.3105 51.8871C56.5127 52.2848 56.7928 52.5881 57.1507 52.7969C57.5087 53.0024 57.9247 53.1051 58.3986 53.1051C58.7069 53.1051 58.9853 53.062 59.2338 52.9759C59.4857 52.8864 59.7028 52.7538 59.8851 52.5781C60.0674 52.3991 60.2083 52.1771 60.3077 51.9119L61.4412 52.2301C61.3219 52.6146 61.1214 52.9527 60.8397 53.2443C60.5579 53.5327 60.2099 53.758 59.7956 53.9205C59.3813 54.0795 58.9157 54.1591 58.3986 54.1591Z" fill="white"/>
</svg>
