<svg width="311" height="180" viewBox="0 0 311 180" fill="none" xmlns="http://www.w3.org/2000/svg">
<ellipse cx="155.514" cy="65.3047" rx="39.9044" ry="39.3047" fill="url(#paint0_linear_11927_6777)"/>
<ellipse cx="155.514" cy="67.4264" rx="39.9044" ry="38.3835" fill="url(#paint1_linear_11927_6777)"/>
<path d="M188.725 67.7318C188.725 85.5247 173.726 99.9692 155.198 99.9692C136.67 99.9692 121.671 85.5247 121.671 67.7318C121.671 49.9389 136.67 35.4944 155.198 35.4944C173.726 35.4944 188.725 49.9389 188.725 67.7318Z" stroke="white" stroke-width="0.623506"/>
<path d="M151.259 67.4211V59.1148H139.852V51.834H171.728V59.2173H160.321V67.4211H151.259Z" fill="white"/>
<path d="M155.521 64.1387C167.461 64.1387 173.645 67.3177 174.391 68.3431C173.645 69.3686 167.568 70.9068 155.521 70.9068C143.581 70.9068 137.397 69.3686 136.651 68.3431C137.397 67.2151 143.581 64.1387 155.521 64.1387ZM155.521 63.3184C144.114 63.3184 134.945 65.5744 134.945 68.3431C134.945 71.1119 144.114 73.3679 155.521 73.3679C166.928 73.3679 176.097 71.1119 176.097 68.3431C176.097 65.5744 166.928 63.3184 155.521 63.3184Z" fill="white"/>
<path d="M160.346 69.9848V64.2422C158.853 64.1397 157.254 64.0371 155.655 64.0371C154.162 64.0371 152.777 64.0371 151.391 64.1397V69.8823C152.67 69.8823 154.162 69.9848 155.655 69.9848C157.254 70.0874 158.853 70.0874 160.346 69.9848Z" fill="white"/>
<path d="M155.538 73.3701C154.045 73.3701 152.659 73.3701 151.273 73.2676V88.547H160.229V73.165C158.736 73.2676 157.137 73.3701 155.538 73.3701Z" fill="white"/>
<ellipse cx="234.873" cy="112.576" rx="39.9044" ry="38.3863" fill="url(#paint2_linear_11927_6777)"/>
<ellipse cx="234.873" cy="114.646" rx="39.9044" ry="37.4866" fill="url(#paint3_linear_11927_6777)"/>
<path d="M268.085 114.947C268.085 132.313 253.093 146.424 234.558 146.424C216.022 146.424 201.031 132.313 201.031 114.947C201.031 97.5807 216.022 83.47 234.558 83.47C253.093 83.47 268.085 97.5807 268.085 114.947Z" stroke="white" stroke-width="0.623506"/>
<path d="M246.218 119.02C245.986 118.917 245.736 118.866 245.482 118.867C245.263 118.868 245.046 118.904 244.839 118.976C244.456 119.142 244.115 119.39 243.84 119.702C243.727 119.82 243.606 119.931 243.478 120.034C241.722 121.338 240.1 121.942 238.135 122.02V104.551C239.876 104.781 241.134 105.47 241.867 106.604C242.024 106.868 242.158 107.144 242.269 107.429C242.435 107.888 242.67 108.32 242.965 108.711C242.997 108.752 243.129 108.896 243.153 108.928C243.47 109.228 243.894 109.393 244.332 109.387C244.57 109.391 244.806 109.344 245.024 109.249C245.241 109.153 245.435 109.012 245.592 108.835C245.924 108.39 246.092 107.845 246.066 107.292C246.066 106.988 246.09 106.788 246.101 106.641C246.129 106.351 246.124 106.06 246.088 105.772C245.902 104.188 245.454 103.884 244.062 103.165L243.623 102.937C241.5 101.809 240.254 101.551 238.149 101.275C238.357 98.0572 238.998 96.9297 239.674 96.2084C239.885 95.9952 240.138 95.8272 240.418 95.7151C240.697 95.603 240.997 95.549 241.299 95.5567C241.406 95.5566 241.513 95.5631 241.619 95.5762C240.96 96.7059 241.129 97.8986 242.058 98.6785C242.592 99.0784 243.248 99.284 243.917 99.2608C244.512 99.284 245.098 99.1138 245.585 98.7763C246.782 97.8313 246.782 96.1476 246.095 95.133C245.294 93.9921 244.076 93.2038 242.699 92.9345C241.435 92.6705 240.121 92.7624 238.906 93.1998C237.692 93.6371 236.626 94.4024 235.828 95.4089L235.743 95.5132C235.17 96.1954 233.69 97.9573 233.563 101.259C226.802 102.706 223.086 106.825 223.086 112.904C223.086 116.619 224.46 123.115 233.565 125.363C233.565 125.487 233.565 125.611 233.565 125.73C233.524 127.01 233.495 127.935 232.746 129.352C232.544 129.691 232.255 129.971 231.908 130.164C231.561 130.357 231.169 130.456 230.771 130.451C230.624 130.452 230.476 130.439 230.332 130.41C230.504 130.045 230.583 129.644 230.562 129.241C230.552 128.9 230.463 128.566 230.301 128.264C230.139 127.963 229.909 127.702 229.629 127.503C229.611 127.49 229.592 127.479 229.572 127.468C229.105 127.198 228.577 127.048 228.036 127.034C227.39 127.043 226.771 127.295 226.305 127.739C225.839 128.183 225.561 128.785 225.527 129.424C225.517 129.848 225.593 130.269 225.749 130.664C225.906 131.059 226.14 131.42 226.438 131.724C226.912 132.274 227.505 132.712 228.172 133.007C228.839 133.302 229.564 133.445 230.295 133.428C230.885 133.421 231.473 133.358 232.051 133.238C234.582 132.622 236.428 131.033 237.538 128.518C237.92 127.649 238.052 126.182 238.094 125.402C239.478 125.258 240.831 124.901 242.104 124.342C244.773 123.128 245.616 122.272 246.275 121.585L246.448 121.407C247.083 120.755 247.052 120.167 246.914 119.773C246.791 119.441 246.541 119.17 246.218 119.02ZM233.578 113.332C233.578 116.2 233.578 119.056 233.578 121.87C230.725 121.046 228.773 117.718 228.773 113.484C228.773 110.019 229.632 105.77 233.603 104.64C233.585 107.525 233.581 110.434 233.578 113.332Z" fill="white"/>
<ellipse cx="76.1388" cy="113.494" rx="39.9044" ry="39.3047" fill="url(#paint4_linear_11927_6777)"/>
<ellipse cx="76.1388" cy="115.616" rx="39.9044" ry="38.3835" fill="url(#paint5_linear_11927_6777)"/>
<path d="M109.35 115.921C109.35 133.714 94.3514 148.159 75.8233 148.159C57.2952 148.159 42.2961 133.714 42.2961 115.921C42.2961 98.1283 57.2952 83.6838 75.8233 83.6838C94.3514 83.6838 109.35 98.1283 109.35 115.921Z" stroke="white" stroke-width="0.623506"/>
<path d="M92.8345 120.381C92.5425 118.352 91.5207 116.785 89.696 115.752C88.8567 115.289 87.9444 114.969 86.9955 114.577C87.105 114.506 87.178 114.435 87.251 114.399C91.8127 112.12 91.4112 105.247 88.0903 102.897C86.7401 101.936 85.2438 101.33 83.6746 100.974C82.5433 100.725 81.412 100.547 80.2442 100.369C80.2442 98.3745 80.2807 95.6326 80.2807 93.4248H76.0109C75.9745 95.597 75.9745 98.2677 75.938 100.226H72.5076C72.5076 98.2677 72.5441 95.597 72.5441 93.4248H68.3108C68.2743 95.6326 68.2743 98.3745 68.2378 100.333C65.3183 100.297 62.5083 100.297 59.5888 100.262C59.5888 101.793 59.5523 103.217 59.5523 104.713C60.1727 104.713 60.7201 104.713 61.231 104.749C61.7784 104.749 62.3258 104.749 62.8368 104.784C64.333 104.891 65.0994 105.71 65.0994 107.135C65.0264 113.081 64.9534 119.064 64.9169 125.011C64.9169 126.328 64.333 126.827 63.0192 126.827H60.1727C59.8808 128.5 59.5888 130.103 59.2969 131.776C62.1799 131.812 65.0264 131.848 67.9459 131.883C67.9459 134.02 67.9094 136.726 67.9094 138.97H72.1791C72.2156 136.726 72.2156 134.091 72.2521 131.99C73.4564 132.026 74.5512 132.061 75.6825 132.097C75.6825 134.233 75.646 136.833 75.646 139.005H79.9158C79.9523 136.762 79.9523 134.127 79.9887 132.061C80.1347 132.026 80.2442 132.026 80.3537 131.99C82.3973 131.67 84.4775 131.492 86.4481 131.029C89.0392 130.388 91.0828 128.928 92.1776 126.435C92.944 124.512 93.1264 122.482 92.8345 120.381ZM72.5805 105.14C75.2446 105.14 77.8356 104.927 80.2442 105.995C81.8499 106.672 82.6528 107.954 82.5433 109.485C82.4338 111.123 81.485 112.298 79.7698 112.832C77.4342 113.58 74.9891 113.544 72.4711 113.437C72.5076 110.731 72.5441 108.025 72.5805 105.14ZM81.8864 125.936C79.5143 126.969 77.0328 126.969 74.5147 127.005C73.8213 127.005 73.128 126.969 72.3616 126.969L72.4711 117.746C75.719 117.746 78.9304 117.497 81.9594 118.814C83.5286 119.491 84.441 120.666 84.441 122.411C84.4045 124.156 83.4556 125.26 81.8864 125.936Z" fill="white"/>
<defs>
<linearGradient id="paint0_linear_11927_6777" x1="113.694" y1="71.3054" x2="200.526" y2="70.0792" gradientUnits="userSpaceOnUse">
<stop stop-color="#26A37D"/>
<stop offset="0.498649" stop-color="#45E1B1"/>
<stop offset="1" stop-color="#26A37D"/>
</linearGradient>
<linearGradient id="paint1_linear_11927_6777" x1="155.514" y1="29.043" x2="152.217" y2="105.821" gradientUnits="userSpaceOnUse">
<stop stop-color="#32BF93"/>
<stop offset="1" stop-color="#26A27C"/>
</linearGradient>
<linearGradient id="paint2_linear_11927_6777" x1="193.053" y1="118.436" x2="279.884" y2="117.181" gradientUnits="userSpaceOnUse">
<stop stop-color="#33365C"/>
<stop offset="0.498649" stop-color="#AEBDFF"/>
<stop offset="1" stop-color="#33365C"/>
</linearGradient>
<linearGradient id="paint3_linear_11927_6777" x1="234.873" y1="77.1592" x2="231.728" y2="152.15" gradientUnits="userSpaceOnUse">
<stop offset="0.0001" stop-color="#7D83A4"/>
<stop offset="1" stop-color="#3E426B"/>
</linearGradient>
<linearGradient id="paint4_linear_11927_6777" x1="34.319" y1="119.495" x2="121.151" y2="118.269" gradientUnits="userSpaceOnUse">
<stop stop-color="#D88018"/>
<stop offset="0.498649" stop-color="#FECF98"/>
<stop offset="0.9999" stop-color="#D88018"/>
</linearGradient>
<linearGradient id="paint5_linear_11927_6777" x1="76.1388" y1="77.2324" x2="72.8418" y2="154.011" gradientUnits="userSpaceOnUse">
<stop offset="0.0538197" stop-color="#FEAE4F"/>
<stop offset="1" stop-color="#F89F36"/>
</linearGradient>
</defs>
</svg>
