<svg width="560" height="560" viewBox="0 0 560 560" fill="none" xmlns="http://www.w3.org/2000/svg">
<circle cx="94" cy="346" r="54" fill="#F7931A"/>
<path d="M115.301 340.047C116.256 333.664 111.396 330.232 104.75 327.943L106.906 319.296L101.642 317.985L99.5438 326.404C98.1601 326.059 96.739 325.734 95.3266 325.411L97.4405 316.937L92.1802 315.625L90.0231 324.269C88.878 324.008 87.7533 323.751 86.6621 323.479L86.6682 323.452L79.4096 321.639L78.0094 327.261C78.0094 327.261 81.9146 328.156 81.8323 328.212C83.9637 328.744 84.3492 330.154 84.2852 331.273L81.8295 341.124C81.9762 341.161 82.1666 341.215 82.3767 341.299C82.2011 341.256 82.0142 341.208 81.8203 341.162L78.3782 354.961C78.1177 355.609 77.4565 356.581 75.9663 356.212C76.0191 356.288 72.1406 355.257 72.1406 355.257L69.5273 361.282L76.3771 362.99C77.6514 363.309 78.9001 363.644 80.1299 363.958L77.9517 372.704L83.2093 374.016L85.3663 365.362C86.8026 365.752 88.1965 366.112 89.561 366.451L87.4112 375.063L92.6751 376.375L94.853 367.645C103.829 369.344 110.578 368.659 113.418 360.541C115.707 354.004 113.304 350.234 108.582 347.776C112.022 346.983 114.612 344.721 115.303 340.048L115.301 340.047L115.301 340.047ZM103.275 356.911C101.648 363.447 90.643 359.914 87.075 359.028L89.9655 347.441C93.5332 348.331 104.975 350.094 103.275 356.911H103.275ZM104.903 339.952C103.419 345.898 94.2591 342.877 91.2878 342.137L93.9084 331.628C96.8797 332.368 106.448 333.751 104.903 339.952H104.903Z" fill="white"/>
<circle cx="218" cy="346" r="54" fill="#C9CBCE"/>
<path d="M218.083 317.312L217.676 318.696V358.865L218.083 359.271L236.729 348.25L218.083 317.312Z" fill="#343434"/>
<path d="M218.084 317.312L199.438 348.25L218.084 359.271V339.775V317.312Z" fill="#8C8C8C"/>
<path d="M218.081 362.803L217.852 363.083V377.392L218.081 378.062L236.738 351.787L218.081 362.803Z" fill="#3C3C3B"/>
<path d="M218.084 378.062V362.803L199.438 351.787L218.084 378.062Z" fill="#8C8C8C"/>
<path d="M218.086 359.272L236.731 348.251L218.086 339.775V359.272Z" fill="#141414"/>
<path d="M199.438 348.251L218.084 359.272V339.775L199.438 348.251Z" fill="#393939"/>
<circle cx="342" cy="346" r="54" fill="#50AF95"/>
<path fill-rule="evenodd" clip-rule="evenodd" d="M347.591 347.901C347.279 347.924 345.665 348.021 342.066 348.021C339.204 348.021 337.171 347.935 336.458 347.901C325.395 347.414 317.138 345.489 317.138 343.183C317.138 340.877 325.395 338.954 336.458 338.459V345.983C337.181 346.035 339.253 346.157 342.116 346.157C345.551 346.157 347.271 346.014 347.581 345.986V338.465C358.62 338.957 366.86 340.882 366.86 343.183C366.86 345.483 358.623 347.409 347.581 347.898L347.591 347.901ZM347.591 337.687V330.954H362.998V320.688H321.052V330.954H336.455V337.684C323.935 338.259 314.52 340.739 314.52 343.711C314.52 346.683 323.935 349.161 336.455 349.738V371.312H347.589V349.731C360.08 349.155 369.48 346.678 369.48 343.709C369.48 340.739 360.088 338.262 347.589 337.684L347.591 337.687Z" fill="white"/>
<g clip-path="url(#clip0_11675_5987)">
<path d="M466 400C495.925 400 520 375.925 520 346C520 316.075 495.925 292 466 292C436.075 292 412 316.075 412 346C412 375.925 436.075 400 466 400Z" fill="#2775CA"/>
<path d="M480.849 354.55C480.849 346.675 476.124 343.975 466.674 342.851C459.924 341.95 458.574 340.151 458.574 337C458.574 333.85 460.824 331.825 465.324 331.825C469.374 331.825 471.624 333.175 472.749 336.55C472.974 337.225 473.649 337.675 474.324 337.675H477.924C478.824 337.675 479.499 337 479.499 336.101V335.875C478.599 330.925 474.549 327.1 469.374 326.651V321.251C469.374 320.35 468.699 319.675 467.574 319.45H464.199C463.299 319.45 462.624 320.125 462.399 321.251V326.425C455.649 327.326 451.374 331.825 451.374 337.451C451.374 344.876 455.874 347.8 465.324 348.926C471.624 350.05 473.649 351.4 473.649 355.001C473.649 358.601 470.499 361.076 466.224 361.076C460.374 361.076 458.349 358.6 457.674 355.225C457.449 354.326 456.774 353.875 456.099 353.875H452.274C451.374 353.875 450.699 354.55 450.699 355.45V355.676C451.599 361.3 455.199 365.35 462.624 366.476V371.876C462.624 372.775 463.299 373.45 464.424 373.675H467.799C468.699 373.675 469.374 373 469.599 371.876V366.476C476.349 365.35 480.849 360.625 480.849 354.55V354.55Z" fill="white"/>
<path d="M454.522 378.175C436.972 371.875 427.971 352.3 434.497 334.975C437.872 325.525 445.297 318.325 454.522 314.95C455.422 314.5 455.872 313.825 455.872 312.7V309.55C455.872 308.65 455.422 307.975 454.522 307.75C454.296 307.75 453.847 307.75 453.621 307.975C432.247 314.725 420.546 337.45 427.296 358.825C431.346 371.425 441.022 381.1 453.621 385.15C454.522 385.6 455.422 385.15 455.646 384.25C455.872 384.025 455.872 383.8 455.872 383.35V380.2C455.872 379.525 455.197 378.625 454.522 378.175ZM478.372 307.975C477.472 307.525 476.571 307.975 476.347 308.875C476.122 309.1 476.122 309.325 476.122 309.775V312.925C476.122 313.825 476.797 314.725 477.472 315.175C495.022 321.475 504.022 341.05 497.496 358.375C494.121 367.825 486.696 375.025 477.472 378.4C476.571 378.85 476.122 379.525 476.122 380.65V383.8C476.122 384.7 476.571 385.375 477.472 385.6C477.697 385.6 478.147 385.6 478.372 385.375C499.747 378.625 511.447 355.9 504.697 334.525C500.647 321.7 490.746 312.025 478.372 307.975V307.975Z" fill="white"/>
</g>
<circle cx="94" cy="214" r="54" fill="#F7931A"/>
<path d="M115.301 208.047C116.256 201.664 111.396 198.232 104.75 195.943L106.906 187.296L101.642 185.985L99.5438 194.404C98.1601 194.059 96.739 193.734 95.3266 193.411L97.4405 184.937L92.1802 183.625L90.0231 192.269C88.878 192.008 87.7533 191.751 86.6621 191.479L86.6682 191.452L79.4096 189.639L78.0094 195.261C78.0094 195.261 81.9146 196.156 81.8323 196.212C83.9637 196.744 84.3492 198.154 84.2852 199.273L81.8295 209.124C81.9762 209.161 82.1666 209.215 82.3767 209.299C82.2011 209.256 82.0142 209.208 81.8203 209.162L78.3782 222.961C78.1177 223.609 77.4565 224.581 75.9663 224.212C76.0191 224.288 72.1406 223.257 72.1406 223.257L69.5273 229.282L76.3771 230.99C77.6514 231.309 78.9001 231.644 80.1299 231.958L77.9517 240.704L83.2093 242.016L85.3663 233.362C86.8026 233.752 88.1965 234.112 89.561 234.451L87.4112 243.063L92.6751 244.375L94.853 235.645C103.829 237.344 110.578 236.659 113.418 228.541C115.707 222.004 113.304 218.234 108.582 215.776C112.022 214.983 114.612 212.721 115.303 208.048L115.301 208.047L115.301 208.047ZM103.275 224.911C101.648 231.447 90.643 227.914 87.075 227.028L89.9655 215.441C93.5332 216.331 104.975 218.094 103.275 224.911H103.275ZM104.903 207.952C103.419 213.898 94.2591 210.877 91.2878 210.137L93.9084 199.628C96.8797 200.368 106.448 201.751 104.903 207.952H104.903Z" fill="white"/>
<circle cx="218" cy="214" r="54" fill="#C9CBCE"/>
<path d="M218.083 185.312L217.676 186.696V226.865L218.083 227.271L236.729 216.25L218.083 185.312Z" fill="#343434"/>
<path d="M218.084 185.312L199.438 216.25L218.084 227.271V207.775V185.312Z" fill="#8C8C8C"/>
<path d="M218.081 230.803L217.852 231.083V245.392L218.081 246.062L236.738 219.787L218.081 230.803Z" fill="#3C3C3B"/>
<path d="M218.084 246.062V230.803L199.438 219.787L218.084 246.062Z" fill="#8C8C8C"/>
<path d="M218.086 227.272L236.731 216.251L218.086 207.775V227.272Z" fill="#141414"/>
<path d="M199.438 216.251L218.084 227.272V207.775L199.438 216.251Z" fill="#393939"/>
<circle cx="342" cy="214" r="54" fill="#50AF95"/>
<path fill-rule="evenodd" clip-rule="evenodd" d="M347.591 215.901C347.279 215.924 345.665 216.021 342.066 216.021C339.204 216.021 337.171 215.935 336.458 215.901C325.395 215.414 317.138 213.489 317.138 211.183C317.138 208.877 325.395 206.954 336.458 206.459V213.983C337.181 214.035 339.253 214.157 342.116 214.157C345.551 214.157 347.271 214.014 347.581 213.986V206.465C358.62 206.957 366.86 208.882 366.86 211.183C366.86 213.483 358.623 215.409 347.581 215.898L347.591 215.901ZM347.591 205.687V198.954H362.998V188.688H321.052V198.954H336.455V205.684C323.935 206.259 314.52 208.739 314.52 211.711C314.52 214.683 323.935 217.161 336.455 217.738V239.312H347.589V217.731C360.08 217.155 369.48 214.678 369.48 211.709C369.48 208.739 360.088 206.262 347.589 205.684L347.591 205.687Z" fill="white"/>
<g clip-path="url(#clip1_11675_5987)">
<path d="M466 268C495.925 268 520 243.925 520 214C520 184.075 495.925 160 466 160C436.075 160 412 184.075 412 214C412 243.925 436.075 268 466 268Z" fill="#2775CA"/>
<path d="M480.849 222.55C480.849 214.675 476.124 211.975 466.674 210.851C459.924 209.95 458.574 208.151 458.574 205C458.574 201.85 460.824 199.825 465.324 199.825C469.374 199.825 471.624 201.175 472.749 204.55C472.974 205.225 473.649 205.675 474.324 205.675H477.924C478.824 205.675 479.499 205 479.499 204.101V203.875C478.599 198.925 474.549 195.1 469.374 194.651V189.251C469.374 188.35 468.699 187.675 467.574 187.45H464.199C463.299 187.45 462.624 188.125 462.399 189.251V194.425C455.649 195.326 451.374 199.825 451.374 205.451C451.374 212.876 455.874 215.8 465.324 216.926C471.624 218.05 473.649 219.4 473.649 223.001C473.649 226.601 470.499 229.076 466.224 229.076C460.374 229.076 458.349 226.6 457.674 223.225C457.449 222.326 456.774 221.875 456.099 221.875H452.274C451.374 221.875 450.699 222.55 450.699 223.45V223.676C451.599 229.3 455.199 233.35 462.624 234.476V239.876C462.624 240.775 463.299 241.45 464.424 241.675H467.799C468.699 241.675 469.374 241 469.599 239.876V234.476C476.349 233.35 480.849 228.625 480.849 222.55V222.55Z" fill="white"/>
<path d="M454.522 246.175C436.972 239.875 427.971 220.3 434.497 202.975C437.872 193.525 445.297 186.325 454.522 182.95C455.422 182.5 455.872 181.825 455.872 180.7V177.55C455.872 176.65 455.422 175.975 454.522 175.75C454.296 175.75 453.847 175.75 453.621 175.975C432.247 182.725 420.546 205.45 427.296 226.825C431.346 239.425 441.022 249.1 453.621 253.15C454.522 253.6 455.422 253.15 455.646 252.25C455.872 252.025 455.872 251.8 455.872 251.35V248.2C455.872 247.525 455.197 246.625 454.522 246.175ZM478.372 175.975C477.472 175.525 476.571 175.975 476.347 176.875C476.122 177.1 476.122 177.325 476.122 177.775V180.925C476.122 181.825 476.797 182.725 477.472 183.175C495.022 189.475 504.022 209.05 497.496 226.375C494.121 235.825 486.696 243.025 477.472 246.4C476.571 246.85 476.122 247.525 476.122 248.65V251.8C476.122 252.7 476.571 253.375 477.472 253.6C477.697 253.6 478.147 253.6 478.372 253.375C499.747 246.625 511.447 223.9 504.697 202.525C500.647 189.7 490.746 180.025 478.372 175.975V175.975Z" fill="white"/>
</g>
<defs>
<clipPath id="clip0_11675_5987">
<rect width="108" height="108" fill="white" transform="translate(412 292)"/>
</clipPath>
<clipPath id="clip1_11675_5987">
<rect width="108" height="108" fill="white" transform="translate(412 160)"/>
</clipPath>
</defs>
</svg>
