<svg width="560" height="560" viewBox="0 0 560 560" fill="none" xmlns="http://www.w3.org/2000/svg">
<path d="M194.966 396.067H165.605V447.07H194.966V396.067Z" fill="#FF5F00"/>
<path d="M167.477 421.56C167.477 411.197 172.511 402.006 180.247 396.059C174.561 391.733 167.384 389.12 159.555 389.12C141.006 389.12 126 403.628 126 421.56C126 439.492 141.006 454 159.555 454C167.384 454 174.561 451.386 180.247 447.061C172.511 441.204 167.477 431.923 167.477 421.56Z" fill="#EB001B"/>
<path d="M234.599 421.56C234.599 439.492 219.592 454 201.044 454C193.214 454 186.037 451.386 180.352 447.061C188.181 441.114 193.121 431.923 193.121 421.56C193.121 411.197 188.088 402.006 180.352 396.059C186.037 391.733 193.214 389.12 201.044 389.12C219.592 389.12 234.599 403.718 234.599 421.56Z" fill="#F79E1B"/>
<g clip-path="url(#clip0_12036_6603)">
<path d="M334.928 449.135H320.719L329.606 394.181H343.815L334.928 449.135Z" fill="white"/>
<path d="M386.449 395.514C383.646 394.403 379.201 393.175 373.704 393.175C359.672 393.175 349.79 400.658 349.73 411.356C349.613 419.249 356.804 423.633 362.183 426.265C367.681 428.954 369.549 430.709 369.549 433.106C369.493 436.788 365.107 438.485 361.016 438.485C355.343 438.485 352.303 437.61 347.684 435.562L345.813 434.684L343.824 447.02C347.157 448.538 353.297 449.885 359.672 449.944C374.581 449.944 384.288 442.577 384.403 431.177C384.46 424.921 380.662 420.128 372.476 416.211C367.506 413.696 364.462 412.001 364.462 409.428C364.52 407.089 367.036 404.693 372.646 404.693C377.266 404.576 380.66 405.686 383.231 406.798L384.516 407.381L386.449 395.514Z" fill="white"/>
<path d="M405.348 429.667C406.518 426.51 411.021 414.291 411.021 414.291C410.962 414.408 412.189 411.076 412.89 409.03L413.883 413.765C413.883 413.765 416.574 426.919 417.159 429.667C414.938 429.667 408.154 429.667 405.348 429.667ZM422.888 394.181H411.896C408.507 394.181 405.932 395.174 404.47 398.74L383.363 449.134H398.273C398.273 449.134 400.728 442.352 401.255 440.891C402.891 440.891 417.395 440.891 419.499 440.891C419.907 442.82 421.194 449.134 421.194 449.134H434.351L422.888 394.181Z" fill="white"/>
<path d="M308.852 394.181L294.936 431.654L293.415 424.054C290.842 415.285 282.774 405.757 273.77 401.019L286.516 449.077H301.542L323.877 394.181H308.852Z" fill="white"/>
<path d="M282.021 394.181H259.16L258.926 395.291C276.759 399.851 288.57 410.844 293.423 424.057L288.453 398.8C287.635 395.29 285.12 394.296 282.021 394.181Z" fill="#FAA61A"/>
</g>
<path d="M222.538 126.156H208.344C208.344 123.562 208.073 121.825 207.533 120.921C206.681 119.601 204.353 118.952 200.55 118.952C196.85 118.952 194.377 119.323 193.193 120.088C191.987 120.852 191.384 122.497 191.384 125.045C191.384 127.338 191.925 128.867 192.985 129.585C193.754 130.094 194.751 130.396 196.019 130.488L198.887 130.72C205.018 131.183 208.863 131.484 210.38 131.67C215.223 132.225 218.756 133.662 220.938 135.978C222.663 137.808 223.681 140.171 224.014 143.113C224.201 144.873 224.305 146.865 224.305 149.066C224.305 154.162 223.868 157.868 222.996 160.231C221.416 164.562 217.862 167.296 212.334 168.454C210.027 168.94 206.473 169.172 201.714 169.172C193.775 169.172 188.225 168.639 185.087 167.574C181.242 166.277 178.707 163.636 177.501 159.675C176.774 157.497 176.441 153.837 176.441 148.695H190.636C190.636 149.274 190.636 149.714 190.636 150.015C190.636 152.749 191.343 154.532 192.756 155.32C193.733 155.853 194.918 156.154 196.31 156.177H201.527C204.187 156.177 205.891 156.015 206.619 155.714C207.928 155.135 208.78 154.231 209.196 152.957C209.403 152.17 209.528 151.15 209.528 149.923C209.528 147.143 208.614 145.452 206.806 144.85C206.12 144.618 202.961 144.271 197.308 143.854C192.777 143.483 189.618 143.136 187.851 142.811C183.196 141.839 180.099 139.846 178.561 136.835C177.19 134.218 176.504 130.326 176.504 125.114C176.504 121.153 176.878 117.98 177.605 115.594C178.333 113.208 179.517 111.378 181.159 110.15C183.549 108.251 186.625 107.116 190.345 106.791C193.442 106.49 196.892 106.328 200.675 106.328C206.639 106.328 210.879 106.699 213.415 107.463C219.587 109.316 222.684 114.505 222.684 123.006C222.663 123.724 222.622 124.767 222.538 126.156Z" fill="white"/>
<path d="M284.941 169.191V106H307.179H310.671H313.373C317.28 106 320.252 106.347 322.289 107.066C326.965 108.687 330.103 112.046 331.703 117.096C332.535 119.736 332.95 123.744 332.95 129.071C332.95 135.488 332.493 140.074 331.579 142.9C329.75 148.436 326.009 151.633 320.335 152.467C319.67 152.583 316.823 152.699 311.835 152.791L309.299 152.884H300.196V169.191H284.941ZM300.196 138.221H309.715C312.728 138.105 314.557 137.85 315.222 137.434C316.116 136.878 316.74 135.766 317.031 134.121C317.218 133.009 317.322 131.365 317.322 129.187C317.322 126.523 317.134 124.531 316.74 123.234C316.199 121.427 314.869 120.315 312.791 119.922C312.375 119.852 311.398 119.829 309.84 119.829H300.196V138.221Z" fill="white"/>
<path d="M365.549 158.258H345.14L342.397 169.168H326.602L343.644 106H366.651L383.901 169.191H368.438L365.549 158.258ZM362.515 145.958L355.365 118.555L348.424 145.935H362.515V145.958Z" fill="white"/>
<path d="M263.9 114.915C270.197 114.915 275.809 118.134 279.508 123.207L282.792 115.355C277.658 109.934 270.654 106.599 262.923 106.599C250.91 106.599 240.623 114.683 236.404 126.149H229.982L226.199 135.206H234.45C234.388 136.04 234.346 136.874 234.346 137.731C234.346 138.773 234.388 139.793 234.492 140.812H230.356L226.573 149.869H236.612C240.955 161.034 251.097 168.863 262.944 168.863C268.909 168.863 274.437 166.871 279.03 163.466V152.348C275.331 157.027 269.948 159.992 263.921 159.992C256.896 159.992 250.703 155.961 247.107 149.823H268.098L271.881 140.766H243.969C243.823 139.677 243.74 138.565 243.74 137.43C243.74 136.665 243.782 135.901 243.844 135.16H274.208L277.991 126.103H246.484C249.975 119.431 256.459 114.915 263.9 114.915Z" fill="#FFBE00"/>
<path d="M263.899 115.137C269.905 115.137 275.517 118.125 279.32 123.337L279.569 123.684L279.736 123.29L283.019 115.438L283.103 115.253L282.978 115.114C277.574 109.415 270.466 106.288 262.943 106.288C257.082 106.288 251.429 108.188 246.628 111.824C241.931 115.345 238.315 120.256 236.195 126.024L236.424 125.862H230.002H229.835L229.773 126.024L225.99 135.081L225.824 135.475H226.198H234.449L234.2 135.174C234.137 136.123 234.096 136.957 234.096 137.722C234.096 138.741 234.137 139.783 234.241 140.826L234.491 140.524H230.355H230.209L230.147 140.687L226.323 149.697L226.157 150.091H226.531H236.569L236.34 149.929C240.871 161.581 251.284 169.086 262.901 169.086C268.721 169.086 274.332 167.209 279.112 163.642L279.216 163.573V163.434V152.315V151.597L278.8 152.13C275.018 156.925 269.573 159.681 263.878 159.681C257.165 159.681 250.951 155.929 247.252 149.651L247.044 150.068H268.097H268.263L268.326 149.906L272.108 140.849L272.275 140.455H271.9H243.968L244.217 140.687C244.072 139.598 243.989 138.486 243.989 137.397C243.989 136.656 244.03 135.892 244.093 135.15L243.843 135.405H274.207H274.374L274.436 135.243L278.218 126.186L278.385 125.792H277.99H246.483L246.69 126.209C250.244 119.399 256.833 115.137 263.899 115.137ZM246.483 126.371H278.011L277.782 125.977L274 135.035L274.228 134.872H243.864H243.635L243.615 135.127C243.552 135.892 243.511 136.656 243.511 137.42C243.511 138.532 243.594 139.667 243.739 140.802L243.781 141.034H243.989H271.9L271.672 140.64L267.889 149.697L268.118 149.535H247.065H246.607L246.857 149.952C250.639 156.392 257.02 160.237 263.878 160.237C269.718 160.237 275.288 157.411 279.174 152.5L278.738 152.315V163.411L278.842 163.179C274.124 166.677 268.617 168.53 262.901 168.53C251.491 168.53 241.245 161.14 236.798 149.697L236.735 149.535H236.569H226.531L226.759 149.929L230.542 140.872L230.313 141.034H234.449H234.719L234.699 140.733C234.615 139.714 234.553 138.671 234.553 137.675C234.553 136.911 234.595 136.077 234.657 135.15L234.678 134.849H234.408H226.157L226.385 135.243L230.168 126.186L229.939 126.348H236.361H236.528L236.59 126.186C238.668 120.534 242.222 115.716 246.836 112.241C251.575 108.697 257.124 106.821 262.881 106.821C270.259 106.821 277.262 109.902 282.583 115.507L282.521 115.183L279.237 123.036L279.653 122.989C275.766 117.662 270.009 114.604 263.857 114.604C256.625 114.604 249.891 118.959 246.233 125.954L246.025 126.371H246.483Z" fill="white"/>
<path d="M245.338 264.153C241.09 264.244 237.403 267.371 237.428 272.364C237.443 275.263 239.682 277.555 241.873 279.972C245.254 283.703 246.247 283.045 246.091 286.827C246.034 288.211 243.737 290.373 241.27 290.367C237.614 290.361 235.059 286.851 236.072 282.609H235.018L232.23 292.703H233.285C233.593 291.666 235.677 291.759 236.524 291.723C238.121 291.656 239.032 292.941 242.325 292.929C246.829 292.912 251.256 289.965 251.213 284.492C251.191 281.652 249.448 279.722 247.146 277.486C243.603 274.049 242.222 272.405 242.852 269.652C243.373 267.374 245 266.736 246.618 266.714C249.65 266.675 250.954 269.872 251.364 273.192H252.343L254.829 264.756H253.775C253.543 265.752 252.324 265.802 251.364 265.735C250.931 265.704 250.687 265.791 249.631 265.434C248.506 265.052 246.731 264.124 245.338 264.153ZM255.959 265.283L255.658 266.94C257.322 266.947 257.922 266.91 257.918 270.029V292.703C257.918 292.703 258.357 293.698 258.972 292.703C259.588 291.707 269.594 275.151 269.594 275.151V275.678L269.518 292.703C269.518 292.703 270.155 293.698 270.799 292.703C271.442 291.707 285.262 268.899 285.262 268.899C285.892 267.767 286.371 266.979 287.974 266.94L288.35 265.283H279.838L279.537 266.94C281.4 266.944 282.641 266.65 282.701 267.769C282.726 268.238 282.641 268.614 282.324 269.2L275.319 280.65L275.168 280.424V270.029C275.175 269.561 275.177 269.1 275.168 268.748C275.122 266.983 275.607 266.944 276.976 266.94L277.277 265.283H267.786L267.484 266.94C268.914 266.979 269.538 267.394 269.518 268.673V271.008L263.417 280.876L263.191 281.027V269.953C263.191 269.564 263.194 268.952 263.191 268.522C263.185 267.919 263.053 266.944 264.773 266.94L265.225 265.283H255.959ZM289.631 265.283L289.33 266.94C290.108 266.9 290.902 267.194 290.987 268.07C291.024 268.452 290.798 269.012 290.61 269.727L285.413 289.087C285.106 290.373 283.559 291.062 281.496 291.045L281.194 292.703H292.268L292.644 291.045C290.688 291.006 290.811 290.464 290.836 289.765C290.852 289.327 291.063 288.926 291.213 288.409L296.486 268.974C297.028 267.156 298.336 266.981 300.328 266.94L300.704 265.283H289.631ZM302.211 265.283L301.834 266.94C303.484 267.065 305.826 267.047 305.224 268.974C305.093 269.395 305.237 269.202 305.073 269.878L300.026 288.71C299.634 290.458 298.411 291.006 296.938 291.045L296.486 292.703H308.237L308.689 291.045C306.119 291.039 305.08 290.695 305.601 288.71C305.712 288.287 305.922 287.539 306.053 286.902L308.463 278.616H308.991C311.288 278.607 311.936 278.893 312.004 280.123C312.046 280.912 312.025 281.553 312.079 282.006H313.36L315.318 273.946L314.264 273.795C313.177 276.572 310.861 276.611 310.045 276.582H308.991L310.648 269.953C311.368 267.504 311.602 267.64 313.435 267.618C316.628 267.58 318.522 268.103 318.256 272.59H319.311L321.269 265.283H302.211ZM322.776 265.283L320.742 272.59H321.947C322.536 270.549 322.551 270.206 323.755 269.125C324.991 268.044 326.319 267.618 328.425 267.618L322.926 287.731C322.545 291.016 320.655 291.005 318.256 291.045L317.879 292.703H330.309L330.61 291.196C329.02 291.344 328.04 290.298 328.35 289.087C328.469 288.621 328.688 287.929 328.877 287.128L334 267.618C337.901 267.616 338.683 269.182 338.444 272.59H339.574L341.533 265.283H322.776ZM275.695 289.614C275.042 289.612 274.356 290.427 274.189 291.422C274.021 292.417 274.44 293.228 275.093 293.23C275.745 293.233 276.431 292.417 276.599 291.422C276.767 290.428 276.347 289.617 275.695 289.614ZM294.979 289.614C294.327 289.612 293.64 290.427 293.473 291.422C293.305 292.417 293.724 293.228 294.377 293.23C295.029 293.233 295.716 292.417 295.883 291.422C296.051 290.428 295.632 289.617 294.979 289.614ZM311.552 289.614C310.899 289.612 310.212 290.427 310.045 291.422C309.877 292.417 310.221 293.228 310.874 293.23C311.526 293.233 312.213 292.417 312.38 291.422C312.548 290.428 312.204 289.617 311.552 289.614ZM252.193 289.69C251.541 289.687 250.929 290.502 250.761 291.497C250.594 292.493 250.938 293.302 251.59 293.305C252.242 293.308 252.929 292.493 253.097 291.497C253.264 290.502 252.845 289.692 252.193 289.69ZM333.698 289.69C333.046 289.687 332.359 290.502 332.192 291.497C332.024 292.493 332.443 293.303 333.096 293.305C333.748 293.308 334.435 292.493 334.602 291.497C334.77 290.503 334.351 289.692 333.698 289.69Z" fill="white" stroke="white" stroke-width="0.0639609"/>
<path d="M230.15 259.283H344.853M230.15 299.115H344.853M242.362 319.782H332.547M242.362 238.616H332.547M287.361 259.283V218.512M287.361 299.115V339.792M289.029 218.582C289.029 218.582 313.736 231.921 318.621 259.165M285.824 218.603C285.824 218.603 260.641 231.765 255.55 258.971M285.724 339.605C285.724 339.605 260.829 326.402 255.944 299.159M289.233 339.608C289.233 339.608 314.042 326.582 319.132 299.376M287.455 218.47C253.942 218.47 226.773 245.639 226.773 279.152C226.773 312.664 253.942 339.833 287.455 339.833C320.968 339.833 348.137 312.664 348.137 279.152C348.137 245.639 320.968 218.47 287.455 218.47Z" stroke="white" stroke-width="0.575648"/>
<defs>
<clipPath id="clip0_12036_6603">
<rect width="175.411" height="56.7696" fill="white" transform="translate(258.93 393.175)"/>
</clipPath>
</defs>
</svg>
