<svg width="59" height="59" viewBox="0 0 59 59" fill="none" xmlns="http://www.w3.org/2000/svg">
<g clip-path="url(#clip0_20010_116380)">
<path d="M29.4998 57.7702C45.1134 57.7702 57.7707 45.1129 57.7707 29.4994C57.7707 13.8858 45.1134 1.22852 29.4998 1.22852C13.8863 1.22852 1.229 13.8858 1.229 29.4994C1.229 45.1129 13.8863 57.7702 29.4998 57.7702Z" fill="#F5AC37" stroke="#F5AC37"/>
<path d="M14.7502 34.4173C17.4656 34.4173 19.6668 32.2161 19.6668 29.5007C19.6668 26.7853 17.4656 24.584 14.7502 24.584C12.0348 24.584 9.8335 26.7853 9.8335 29.5007C9.8335 32.2161 12.0348 34.4173 14.7502 34.4173Z" fill="white"/>
<path d="M29.5002 34.4173C32.2156 34.4173 34.4168 32.2161 34.4168 29.5007C34.4168 26.7853 32.2156 24.584 29.5002 24.584C26.7848 24.584 24.5835 26.7853 24.5835 29.5007C24.5835 32.2161 26.7848 34.4173 29.5002 34.4173Z" fill="white"/>
<path d="M44.2502 34.4173C46.9656 34.4173 49.1668 32.2161 49.1668 29.5007C49.1668 26.7853 46.9656 24.584 44.2502 24.584C41.5348 24.584 39.3335 26.7853 39.3335 29.5007C39.3335 32.2161 41.5348 34.4173 44.2502 34.4173Z" fill="white"/>
</g>
<defs>
<clipPath id="clip0_20010_116380">
<rect width="59" height="59" fill="white"/>
</clipPath>
</defs>
</svg>
