<svg width="38" height="38" viewBox="0 0 38 38" fill="none" xmlns="http://www.w3.org/2000/svg">
<g id="PaperPlaneTilt">
<path id="Vector" d="M33.4853 4.51687C33.1919 4.22365 32.8256 4.01394 32.4242 3.90936C32.0228 3.80478 31.6008 3.8091 31.2016 3.92187H31.1797L3.18844 12.4152C2.73279 12.5462 2.32788 12.813 2.02761 13.1799C1.72733 13.5468 1.54596 13.9965 1.50764 14.469C1.46931 14.9416 1.57586 15.4146 1.81308 15.8251C2.0503 16.2356 2.40695 16.5641 2.83552 16.7669L15.3218 22.6804L21.2353 35.1667C21.422 35.5665 21.7192 35.9046 22.0918 36.1411C22.4645 36.3775 22.8969 36.5024 23.3382 36.501C23.4053 36.501 23.4724 36.4981 23.5395 36.4923C24.0104 36.4542 24.4584 36.2729 24.8233 35.9729C25.1882 35.6729 25.4527 35.2684 25.5812 34.8137L34.0687 6.8225C34.0687 6.81521 34.0687 6.80791 34.0687 6.80062C34.1829 6.40244 34.1891 5.98103 34.0865 5.57967C33.984 5.17832 33.7765 4.81149 33.4853 4.51687ZM23.3514 34.1458L23.3441 34.1662L17.6041 22.049L24.4932 15.1583C24.7028 14.9378 24.8179 14.644 24.814 14.3398C24.8101 14.0356 24.6875 13.7449 24.4724 13.5298C24.2572 13.3147 23.9666 13.1921 23.6624 13.1882C23.3581 13.1843 23.0644 13.2994 22.8439 13.509L15.9532 20.3981L3.83448 14.6581H3.8549L31.8345 6.16771L23.3514 34.1458Z" fill="url(#paint0_linear_9689_5559)"/>
</g>
<defs>
<linearGradient id="paint0_linear_9689_5559" x1="1.5" y1="3.83398" x2="40.6484" y2="16.6049" gradientUnits="userSpaceOnUse">
<stop stop-color="#111584"/>
<stop offset="1" stop-color="#8178EB"/>
</linearGradient>
</defs>
</svg>
