<svg width="352" height="192" viewBox="0 0 352 192" fill="none" xmlns="http://www.w3.org/2000/svg">
<path d="M57 73.9492L266.138 104.058L294.201 132.378L57 73.9492Z" fill="#0047BB"/>
<path opacity="0.6" d="M57 73.9492L266.138 104.058L294.201 132.378L57 73.9492Z" fill="white"/>
<path d="M57 73.9492L266.138 104.058L256.432 145.011L57 73.9492Z" fill="#0047BB"/>
<path opacity="0.2" d="M57 73.9492L266.138 104.058L256.432 145.011L57 73.9492Z" fill="black"/>
<path d="M252.136 26.5385L264.273 83.4169C264.589 84.9021 264.303 86.452 263.477 87.7264C262.652 89.0008 261.354 89.8957 259.87 90.2148L151.544 113.333C150.059 113.646 148.51 113.359 147.237 112.534C145.963 111.709 145.067 110.413 144.746 108.93L132.6 52.0512C132.287 50.5649 132.575 49.0151 133.402 47.7411C134.229 46.467 135.527 45.5725 137.012 45.2533L245.338 22.135C246.825 21.822 248.374 22.1106 249.648 22.9376C250.923 23.7646 251.817 25.0626 252.136 26.5476V26.5385Z" fill="#0047BB"/>
<path opacity="0.4" d="M252.136 26.5385L264.273 83.4169C264.589 84.9021 264.303 86.452 263.477 87.7264C262.652 89.0008 261.354 89.8957 259.87 90.2148L151.544 113.333C150.059 113.646 148.51 113.359 147.237 112.534C145.963 111.709 145.067 110.413 144.746 108.93L132.6 52.0512C132.287 50.5649 132.575 49.0151 133.402 47.7411C134.229 46.467 135.527 45.5725 137.012 45.2533L245.338 22.135C246.825 21.822 248.374 22.1106 249.648 22.9376C250.923 23.7646 251.817 25.0626 252.136 26.5476V26.5385Z" fill="black"/>
<path d="M249.473 22.8133L213.282 67.2427C209.925 71.3619 205.263 74.2119 200.067 75.3213C194.87 76.4306 189.451 75.7328 184.705 73.3433L133.523 47.5646C134.351 46.3751 135.601 45.5453 137.019 45.2436L245.345 22.1252C246.758 21.8244 248.233 22.0702 249.473 22.8133Z" fill="#0047BB"/>
<path d="M57 73.9492L229.498 114.948L256.432 145.011L57 73.9492Z" fill="#0047BB"/>
<path opacity="0.6" d="M57 73.9492L229.498 114.948L256.432 145.011L57 73.9492Z" fill="white"/>
<path d="M119.925 113.466L119.461 114.258L138.657 125.502L139.121 124.71L119.925 113.466Z" fill="#0047BB"/>
<path d="M147.596 129.667L147.133 130.459L154.035 134.502L154.499 133.711L147.596 129.667Z" fill="#0047BB"/>
<path d="M57 73.9492L229.498 114.948L195.967 155.359L57 73.9492Z" fill="#0047BB"/>
<path d="M287.723 170.001C287.491 170.001 287.261 169.958 287.045 169.872L258.954 158.753C258.504 158.572 258.145 158.221 257.954 157.776C257.762 157.331 257.755 156.828 257.933 156.377C258.111 155.927 258.46 155.565 258.904 155.371C259.348 155.176 259.851 155.166 260.302 155.341L288.402 166.46C288.8 166.617 289.13 166.908 289.336 167.282C289.542 167.657 289.61 168.092 289.53 168.511C289.449 168.931 289.225 169.31 288.895 169.582C288.565 169.854 288.151 170.002 287.723 170.001Z" fill="#0047BB"/>
<path opacity="0.3" d="M287.723 170.001C287.491 170.001 287.261 169.958 287.045 169.872L258.954 158.753C258.504 158.572 258.145 158.221 257.954 157.776C257.762 157.331 257.755 156.828 257.933 156.377C258.111 155.927 258.46 155.565 258.904 155.371C259.348 155.176 259.851 155.166 260.302 155.341L288.402 166.46C288.8 166.617 289.13 166.908 289.336 167.282C289.542 167.657 289.61 168.092 289.53 168.511C289.449 168.931 289.225 169.31 288.895 169.582C288.565 169.854 288.151 170.002 287.723 170.001Z" fill="black"/>
<path d="M286.065 153.891C285.835 153.89 285.608 153.843 285.396 153.754L270.305 147.745C270.079 147.657 269.873 147.526 269.698 147.359C269.523 147.191 269.384 146.991 269.287 146.769C269.19 146.548 269.137 146.309 269.133 146.067C269.129 145.825 269.172 145.585 269.261 145.36C269.35 145.135 269.483 144.929 269.651 144.756C269.82 144.582 270.021 144.444 270.243 144.348C270.466 144.253 270.705 144.202 270.947 144.199C271.189 144.197 271.429 144.242 271.653 144.332L286.744 150.314C287.197 150.492 287.56 150.842 287.754 151.287C287.948 151.733 287.958 152.237 287.781 152.69C287.652 153.041 287.418 153.344 287.112 153.559C286.805 153.774 286.44 153.89 286.065 153.891Z" fill="#0047BB"/>
<path opacity="0.5" d="M286.065 153.891C285.835 153.89 285.608 153.843 285.396 153.754L270.305 147.745C270.079 147.657 269.873 147.526 269.698 147.359C269.523 147.191 269.384 146.991 269.287 146.769C269.19 146.548 269.137 146.309 269.133 146.067C269.129 145.825 269.172 145.585 269.261 145.36C269.35 145.135 269.483 144.929 269.651 144.756C269.82 144.582 270.021 144.444 270.243 144.348C270.466 144.253 270.705 144.202 270.947 144.199C271.189 144.197 271.429 144.242 271.653 144.332L286.744 150.314C287.197 150.492 287.56 150.842 287.754 151.287C287.948 151.733 287.958 152.237 287.781 152.69C287.652 153.041 287.418 153.344 287.112 153.559C286.805 153.774 286.44 153.89 286.065 153.891Z" fill="white"/>
<path d="M254.517 169.761C254.288 169.759 254.062 169.715 253.848 169.633L226.445 158.753C226.22 158.665 226.014 158.534 225.839 158.367C225.664 158.199 225.524 157.999 225.427 157.777C225.33 157.556 225.278 157.317 225.274 157.075C225.269 156.833 225.313 156.593 225.402 156.368C225.491 156.142 225.623 155.937 225.792 155.764C225.96 155.59 226.162 155.452 226.384 155.356C226.606 155.26 226.845 155.21 227.087 155.207C227.329 155.204 227.569 155.25 227.794 155.34L255.196 166.184C255.594 166.341 255.924 166.632 256.13 167.006C256.336 167.381 256.404 167.816 256.324 168.235C256.243 168.655 256.019 169.034 255.689 169.306C255.359 169.577 254.945 169.726 254.517 169.725V169.761Z" fill="#0047BB"/>
<path opacity="0.3" d="M254.517 169.761C254.288 169.759 254.062 169.715 253.848 169.633L226.445 158.753C226.22 158.665 226.014 158.534 225.839 158.367C225.664 158.199 225.524 157.999 225.427 157.777C225.33 157.556 225.278 157.317 225.274 157.075C225.269 156.833 225.313 156.593 225.402 156.368C225.491 156.142 225.623 155.937 225.792 155.764C225.96 155.59 226.162 155.452 226.384 155.356C226.606 155.26 226.845 155.21 227.087 155.207C227.329 155.204 227.569 155.25 227.794 155.34L255.196 166.184C255.594 166.341 255.924 166.632 256.13 167.006C256.336 167.381 256.404 167.816 256.324 168.235C256.243 168.655 256.019 169.034 255.689 169.306C255.359 169.577 254.945 169.726 254.517 169.725V169.761Z" fill="black"/>
</svg>
