<svg width="38" height="39" viewBox="0 0 38 39" fill="none" xmlns="http://www.w3.org/2000/svg">
<g id="ShareFat">
<path id="Vector" d="M35.2199 16.4112L23.5532 4.74451C23.3901 4.58125 23.1823 4.47002 22.956 4.42488C22.7297 4.37974 22.4951 4.40273 22.2819 4.49092C22.0686 4.57912 21.8863 4.72857 21.758 4.92037C21.6297 5.11218 21.5612 5.33772 21.5611 5.56847V11.4528C17.7782 11.7766 13.6001 13.6287 10.1628 16.5439C6.02403 20.0556 3.44715 24.5808 2.90611 29.2853C2.86383 29.6511 2.93799 30.0209 3.11804 30.3421C3.29809 30.6632 3.57485 30.9194 3.90894 31.0742C4.24303 31.229 4.61743 31.2744 4.97884 31.2041C5.34026 31.1337 5.67028 30.9512 5.92194 30.6824C7.52611 28.9747 13.234 23.5745 21.5611 23.0991V28.9018C21.5612 29.1326 21.6297 29.3581 21.758 29.5499C21.8863 29.7417 22.0686 29.8912 22.2819 29.9793C22.4951 30.0675 22.7297 30.0905 22.956 30.0454C23.1823 30.0002 23.3901 29.889 23.5532 29.7258L35.2199 18.0591C35.438 17.8404 35.5606 17.5441 35.5606 17.2351C35.5606 16.9262 35.438 16.6299 35.2199 16.4112ZM23.8944 26.0858V21.9018C23.8944 21.5924 23.7715 21.2956 23.5527 21.0768C23.3339 20.8581 23.0372 20.7351 22.7278 20.7351C18.6328 20.7351 14.6442 21.8041 10.873 23.9143C8.95228 24.9938 7.16271 26.2916 5.53986 27.7818C6.38569 24.3051 8.51778 20.9991 11.6722 18.3231C15.0584 15.4516 19.1913 13.7351 22.7278 13.7351C23.0372 13.7351 23.3339 13.6122 23.5527 13.3934C23.7715 13.1746 23.8944 12.8779 23.8944 12.5685V8.38597L32.7451 17.2351L23.8944 26.0858Z" fill="url(#paint0_linear_11794_6116)"/>
</g>
<defs>
<linearGradient id="paint0_linear_11794_6116" x1="2.89453" y1="4.40234" x2="40.3141" y2="19.266" gradientUnits="userSpaceOnUse">
<stop stop-color="#111584"/>
<stop offset="1" stop-color="#8178EB"/>
</linearGradient>
</defs>
</svg>
