<svg width="176" height="176" viewBox="0 0 176 176" fill="none" xmlns="http://www.w3.org/2000/svg">
<path d="M174.647 100.178C173.511 108.254 166.85 113.496 160.969 118.121C157.624 120.759 154.166 123.476 152.64 126.078C151.233 128.46 150.581 132.644 149.949 136.697C148.771 144.232 147.445 152.771 140.66 157.884C133.874 162.997 125.3 161.919 117.733 160.973C113.663 160.464 109.461 159.937 106.783 160.634C103.861 161.383 100.296 163.959 96.8384 166.447C90.7716 170.825 83.8974 175.784 75.8205 174.648C67.7436 173.513 62.5025 166.852 57.8775 160.971C55.2392 157.626 52.5223 154.168 49.9202 152.642C47.5382 151.234 43.3538 150.583 39.3008 149.95C31.7663 148.773 23.2272 147.447 18.114 140.661C13.0008 133.876 14.0795 125.302 15.0247 117.735C15.5336 113.665 16.061 109.463 15.3644 106.785C14.6153 103.863 12.0395 100.298 9.55127 96.8401C5.17331 90.7734 0.214568 83.8992 1.3497 75.8223C2.48483 67.7454 9.14627 62.5043 15.0269 57.8793C18.3719 55.241 21.8306 52.5241 23.356 49.922C24.7637 47.54 25.4149 43.3555 26.0476 39.3026C27.2249 31.7681 28.5512 23.229 35.3367 18.1158C42.1221 13.0025 50.6961 14.0813 58.2632 15.0264C62.3335 15.5354 66.5354 16.0628 69.2131 15.3662C72.1348 14.6171 75.6999 12.0413 79.1579 9.55305C85.2247 5.17508 92.0989 0.216343 100.176 1.35147C108.253 2.4866 113.494 9.14804 118.119 15.0286C120.757 18.3737 123.474 21.8323 126.076 23.3578C128.458 24.7655 132.643 25.4167 136.695 26.0494C144.23 27.2266 152.769 28.553 157.882 35.3384C162.996 42.1239 161.917 50.6978 160.972 58.2649C160.463 62.3353 159.935 66.5371 160.632 69.2148C161.381 72.1366 163.957 75.7016 166.445 79.1597C170.823 85.2265 175.782 92.1007 174.647 100.178Z" fill="#FFC72C"/>
</svg>
