<svg width="78" height="78" viewBox="0 0 78 78" fill="none" xmlns="http://www.w3.org/2000/svg">
<path d="M39 0C31.2865 0 23.7463 2.28731 17.3328 6.57269C10.9193 10.8581 5.92053 16.949 2.96872 24.0753C0.0168981 31.2017 -0.755432 39.0433 0.749392 46.6085C2.25422 54.1738 5.96861 61.1229 11.4229 66.5772C16.8771 72.0314 23.8262 75.7458 31.3915 77.2506C38.9568 78.7554 46.7984 77.9831 53.9247 75.0313C61.051 72.0795 67.142 67.0808 71.4273 60.6672C75.7127 54.2537 78 46.7135 78 39C77.9891 28.6599 73.8767 18.7464 66.5651 11.4349C59.2536 4.12334 49.3401 0.0109193 39 0ZM56.1225 32.1225L35.1225 53.1225C34.8439 53.4014 34.513 53.6227 34.1488 53.7737C33.7846 53.9247 33.3943 54.0024 33 54.0024C32.6058 54.0024 32.2154 53.9247 31.8512 53.7737C31.487 53.6227 31.1561 53.4014 30.8775 53.1225L21.8775 44.1225C21.3146 43.5596 20.9983 42.7961 20.9983 42C20.9984 41.2039 21.3146 40.4404 21.8775 39.8775C22.4404 39.3146 23.2039 38.9983 24 38.9983C24.7961 38.9983 25.5596 39.3146 26.1225 39.8775L33 46.7588L51.8775 27.8775C52.1562 27.5988 52.4871 27.3777 52.8513 27.2268C53.2155 27.076 53.6058 26.9983 54 26.9983C54.3942 26.9983 54.7845 27.076 55.1487 27.2268C55.5129 27.3777 55.8438 27.5988 56.1225 27.8775C56.4012 28.1562 56.6223 28.4871 56.7732 28.8513C56.924 29.2155 57.0017 29.6058 57.0017 30C57.0017 30.3942 56.924 30.7845 56.7732 31.1487C56.6223 31.5129 56.4012 31.8438 56.1225 32.1225Z" fill="#00BB31"/>
</svg>
