<svg width="100" height="100" viewBox="0 0 100 100" fill="none" xmlns="http://www.w3.org/2000/svg">
<g id="Group 2554">
<path id="Vector" d="M49.75 0.25C77.2249 0.25 99.5 22.5251 99.5 50C99.5 77.4749 77.2239 99.75 49.75 99.75C22.2761 99.75 0 77.4809 0 50C0 22.5191 22.2721 0.25 49.75 0.25Z" fill="#53AE94"/>
<path id="Vector_2" d="M55.892 43.3647V35.9638H72.816V24.6875H26.7315V35.9638H43.6575V43.3587C29.9016 43.9905 19.5586 46.7148 19.5586 49.9784C19.5586 53.242 29.9066 55.9663 43.6575 56.6021V80.308H55.896V56.6002C69.627 55.9663 79.9491 53.244 79.9491 49.9834C79.9491 46.7228 69.627 44.0005 55.896 43.3666L55.892 43.3647ZM55.896 54.5922V54.5863C55.5507 54.6082 53.7766 54.7146 49.8265 54.7146C46.6684 54.7146 44.4465 54.6251 43.6635 54.5843V54.5942C31.5105 54.0559 22.4391 51.9396 22.4391 49.4073C22.4391 46.875 31.5115 44.7616 43.6635 44.2223V52.4858C44.4595 52.5405 46.736 52.6749 49.8782 52.6749C53.6523 52.6749 55.5497 52.5177 55.898 52.4858V44.2223C68.027 44.7626 77.0776 46.881 77.0776 49.4043C77.0776 51.9276 68.0231 54.047 55.898 54.5873" fill="white"/>
</g>
</svg>
