<svg width="560" height="560" viewBox="0 0 560 560" fill="none" xmlns="http://www.w3.org/2000/svg">
<rect width="560" height="560" rx="32" fill="#F0F2F6"/>
<path d="M197.781 138.425H170.629V185.591H197.781V138.425Z" fill="#FF5F00"/>
<path d="M172.358 162C172.358 152.417 177.013 143.917 184.167 138.417C178.909 134.417 172.272 132 165.031 132C147.878 132 134 145.417 134 162C134 178.583 147.878 192 165.031 192C172.272 192 178.909 189.583 184.167 185.583C177.013 180.167 172.358 171.583 172.358 162Z" fill="#EB001B"/>
<path d="M234.433 162C234.433 178.583 220.555 192 203.402 192C196.161 192 189.524 189.583 184.266 185.583C191.506 180.083 196.075 171.583 196.075 162C196.075 152.417 191.42 143.917 184.266 138.417C189.524 134.417 196.161 132 203.402 132C220.555 132 234.433 145.5 234.433 162Z" fill="#F79E1B"/>
<g clip-path="url(#clip0_9578_45308)">
<path d="M327.219 187.501H314.078L322.297 136.68H335.437L327.219 187.501Z" fill="#00579F"/>
<path d="M374.868 137.914C372.276 136.885 368.165 135.75 363.082 135.75C350.105 135.75 340.967 142.67 340.91 152.564C340.803 159.863 347.453 163.917 352.427 166.351C357.511 168.838 359.24 170.461 359.24 172.678C359.188 176.083 355.131 177.652 351.348 177.652C346.102 177.652 343.29 176.843 339.018 174.949L337.288 174.137L335.449 185.545C338.531 186.949 344.21 188.195 350.105 188.25C363.893 188.25 372.87 181.437 372.976 170.894C373.028 165.109 369.517 160.676 361.946 157.053C357.35 154.728 354.535 153.16 354.535 150.781C354.589 148.618 356.916 146.402 362.104 146.402C366.376 146.294 369.515 147.321 371.892 148.348L373.081 148.888L374.868 137.914Z" fill="#00579F"/>
<path d="M392.343 169.497C393.425 166.577 397.589 155.277 397.589 155.277C397.535 155.386 398.669 152.304 399.318 150.412L400.236 154.791C400.236 154.791 402.725 166.956 403.265 169.497C401.212 169.497 394.938 169.497 392.343 169.497ZM408.563 136.68H398.399C395.264 136.68 392.883 137.598 391.531 140.896L372.012 187.5H385.8C385.8 187.5 388.07 181.228 388.558 179.877C390.071 179.877 403.484 179.877 405.43 179.877C405.807 181.661 406.998 187.5 406.998 187.5H419.165L408.563 136.68Z" fill="#00579F"/>
<path d="M303.104 136.68L290.234 171.335L288.828 164.307C286.449 156.197 278.987 147.385 270.66 143.004L282.448 187.447H296.344L316.999 136.68H303.104Z" fill="#00579F"/>
<path d="M278.292 136.68H257.15L256.934 137.707C273.426 141.924 284.348 152.09 288.836 164.309L284.24 140.952C283.483 137.706 281.158 136.787 278.292 136.68Z" fill="#FAA61A"/>
</g>
<path d="M226.213 269.521H213.83C213.83 267.258 213.594 265.742 213.123 264.954C212.379 263.802 210.349 263.237 207.031 263.237C203.804 263.237 201.646 263.56 200.613 264.227C199.561 264.893 199.036 266.328 199.036 268.551C199.036 270.551 199.507 271.885 200.432 272.512C201.102 272.956 201.973 273.219 203.079 273.3L205.581 273.502C210.929 273.906 214.283 274.169 215.607 274.33C219.831 274.815 222.913 276.068 224.817 278.089C226.321 279.685 227.21 281.746 227.5 284.313C227.663 285.848 227.754 287.586 227.754 289.506C227.754 293.951 227.373 297.184 226.612 299.246C225.234 303.024 222.133 305.409 217.311 306.419C215.298 306.843 212.198 307.046 208.046 307.046C201.121 307.046 196.28 306.581 193.542 305.651C190.188 304.52 187.976 302.216 186.925 298.761C186.29 296.861 186 293.668 186 289.182H198.383C198.383 289.688 198.383 290.072 198.383 290.334C198.383 292.719 198.999 294.275 200.232 294.962C201.084 295.426 202.118 295.689 203.332 295.709H207.883C210.204 295.709 211.69 295.568 212.325 295.305C213.467 294.8 214.211 294.012 214.573 292.901C214.754 292.214 214.863 291.324 214.863 290.253C214.863 287.829 214.065 286.353 212.488 285.828C211.89 285.626 209.134 285.323 204.203 284.959C200.25 284.636 197.495 284.333 195.953 284.05C191.892 283.201 189.191 281.463 187.849 278.836C186.653 276.553 186.054 273.158 186.054 268.612C186.054 265.156 186.381 262.388 187.015 260.306C187.65 258.225 188.683 256.629 190.116 255.558C192.201 253.901 194.884 252.911 198.129 252.628C200.83 252.365 203.84 252.224 207.14 252.224C212.343 252.224 216.042 252.547 218.254 253.214C223.638 254.83 226.34 259.357 226.34 266.773C226.321 267.399 226.285 268.308 226.213 269.521Z" fill="#10298E"/>
<path d="M280.652 307.062V251.938H300.052H303.097H305.454C308.863 251.938 311.455 252.241 313.232 252.867C317.312 254.282 320.049 257.212 321.445 261.617C322.17 263.92 322.533 267.416 322.533 272.064C322.533 277.661 322.134 281.662 321.336 284.127C319.741 288.957 316.478 291.746 311.528 292.473C310.948 292.574 308.464 292.675 304.113 292.756L301.901 292.837H293.96V307.062H280.652ZM293.96 280.046H302.263C304.892 279.945 306.488 279.722 307.068 279.359C307.848 278.874 308.391 277.904 308.645 276.469C308.808 275.499 308.899 274.064 308.899 272.165C308.899 269.841 308.736 268.103 308.391 266.972C307.92 265.395 306.76 264.425 304.947 264.082C304.584 264.021 303.732 264.001 302.372 264.001H293.96V280.046Z" fill="#10298E"/>
<path d="M350.968 297.525H333.164L330.771 307.042H316.992L331.859 251.938H351.929L366.977 307.062H353.488L350.968 297.525ZM348.321 286.795L342.084 262.89L336.029 286.775H348.321V286.795Z" fill="#10298E"/>
<path d="M262.294 259.713C267.788 259.713 272.683 262.522 275.91 266.947L278.775 260.097C274.297 255.369 268.187 252.459 261.442 252.459C250.963 252.459 241.989 259.511 238.308 269.514H232.706L229.406 277.415H236.604C236.55 278.142 236.513 278.87 236.513 279.617C236.513 280.527 236.55 281.416 236.64 282.305H233.032L229.733 290.206H238.489C242.279 299.946 251.126 306.776 261.46 306.776C266.664 306.776 271.486 305.038 275.493 302.067V292.368C272.266 296.45 267.57 299.036 262.312 299.036C256.184 299.036 250.782 295.52 247.645 290.165H265.957L269.256 282.264H244.908C244.781 281.315 244.708 280.345 244.708 279.355C244.708 278.688 244.744 278.021 244.799 277.374H271.287L274.587 269.473H247.101C250.147 263.654 255.804 259.713 262.294 259.713Z" fill="#FFBE00"/>
<path d="M262.296 259.909C267.536 259.909 272.431 262.515 275.749 267.062L275.967 267.365L276.112 267.021L278.976 260.171L279.049 260.01L278.94 259.888C274.226 254.917 268.026 252.189 261.463 252.189C256.35 252.189 251.418 253.846 247.23 257.019C243.133 260.09 239.978 264.374 238.129 269.406L238.328 269.264H232.726H232.581L232.527 269.406L229.227 277.307L229.082 277.65H229.408H236.606L236.388 277.388C236.334 278.216 236.298 278.944 236.298 279.611C236.298 280.5 236.334 281.409 236.425 282.318L236.642 282.056H233.034H232.907L232.853 282.197L229.517 290.058L229.372 290.401H229.698H238.455L238.256 290.26C242.208 300.424 251.291 306.971 261.426 306.971C266.503 306.971 271.398 305.334 275.568 302.222L275.658 302.162V302.04V292.341V291.715L275.296 292.179C271.996 296.362 267.246 298.767 262.278 298.767C256.422 298.767 251.001 295.493 247.774 290.017L247.593 290.381H265.959H266.104L266.158 290.239L269.458 282.338L269.603 281.995H269.277H244.91L245.127 282.197C245 281.247 244.928 280.277 244.928 279.328C244.928 278.681 244.964 278.014 245.018 277.368L244.801 277.59H271.289H271.434L271.488 277.448L274.788 269.547L274.933 269.204H274.589H247.103L247.285 269.568C250.385 263.627 256.132 259.909 262.296 259.909ZM247.103 269.709H274.607L274.407 269.366L271.108 277.266L271.307 277.125H244.819H244.62L244.601 277.347C244.547 278.014 244.511 278.681 244.511 279.348C244.511 280.318 244.583 281.308 244.71 282.298L244.746 282.5H244.928H269.277L269.077 282.157L265.777 290.058L265.977 289.916H247.611H247.212L247.43 290.28C250.729 295.897 256.295 299.252 262.278 299.252C267.373 299.252 272.232 296.787 275.622 292.503L275.241 292.341V302.02L275.332 301.818C271.217 304.869 266.412 306.486 261.426 306.486C251.473 306.486 242.535 300.04 238.655 290.058L238.6 289.916H238.455H229.698L229.898 290.26L233.198 282.359L232.998 282.5H236.606H236.842L236.824 282.237C236.751 281.348 236.697 280.439 236.697 279.57C236.697 278.903 236.733 278.176 236.787 277.368L236.805 277.105H236.57H229.372L229.572 277.448L232.871 269.547L232.672 269.689H238.274H238.419L238.473 269.547C240.286 264.617 243.387 260.414 247.412 257.383C251.545 254.291 256.386 252.654 261.408 252.654C267.844 252.654 273.954 255.342 278.596 260.232L278.541 259.949L275.677 266.799L276.039 266.759C272.649 262.111 267.627 259.444 262.26 259.444C255.951 259.444 250.077 263.243 246.886 269.345L246.705 269.709H247.103Z" fill="#10298E"/>
<g clip-path="url(#clip1_9578_45308)">
<path d="M255.243 379.91C253.1 379.956 251.239 381.534 251.252 384.054C251.259 385.517 252.389 386.673 253.495 387.893C255.201 389.776 255.702 389.444 255.623 391.352C255.594 392.051 254.436 393.142 253.19 393.139C251.346 393.136 250.056 391.365 250.568 389.224H250.035L248.629 394.317H249.161C249.317 393.794 250.368 393.841 250.796 393.823C251.601 393.789 252.061 394.438 253.723 394.431C255.996 394.423 258.23 392.936 258.208 390.174C258.197 388.741 257.317 387.767 256.155 386.639C254.368 384.904 253.671 384.075 253.989 382.685C254.251 381.536 255.073 381.214 255.889 381.203C257.419 381.183 258.078 382.796 258.284 384.472H258.778L260.033 380.215H259.501C259.384 380.718 258.769 380.743 258.284 380.709C258.066 380.693 257.943 380.737 257.41 380.557C256.842 380.364 255.946 379.896 255.243 379.91ZM260.603 380.481L260.451 381.317C261.291 381.321 261.594 381.302 261.591 382.876V394.317C261.591 394.317 261.813 394.82 262.124 394.317C262.434 393.815 267.483 385.46 267.483 385.46V385.726L267.445 394.317C267.445 394.317 267.767 394.82 268.092 394.317C268.416 393.815 275.39 382.305 275.39 382.305C275.708 381.734 275.95 381.337 276.759 381.317L276.949 380.481H272.653L272.501 381.317C273.441 381.319 274.068 381.171 274.098 381.735C274.11 381.972 274.067 382.162 273.908 382.457L270.372 388.235L270.296 388.121V382.876C270.3 382.64 270.301 382.407 270.296 382.229C270.273 381.339 270.518 381.319 271.209 381.317L271.361 380.481H266.571L266.419 381.317C267.14 381.337 267.456 381.546 267.445 382.191V383.37L264.366 388.349L264.252 388.425V382.838C264.252 382.641 264.254 382.332 264.252 382.115C264.249 381.811 264.183 381.319 265.051 381.317L265.279 380.481H260.603ZM277.595 380.481L277.443 381.317C277.835 381.297 278.236 381.445 278.279 381.887C278.298 382.08 278.184 382.362 278.089 382.723L275.466 392.493C275.311 393.142 274.531 393.489 273.489 393.481L273.337 394.317H278.925L279.115 393.481C278.128 393.461 278.19 393.188 278.203 392.835C278.211 392.614 278.318 392.411 278.393 392.151L281.054 382.343C281.328 381.426 281.988 381.337 282.993 381.317L283.183 380.481H277.595ZM283.943 380.481L283.753 381.317C284.585 381.38 285.767 381.371 285.464 382.343C285.397 382.556 285.47 382.458 285.387 382.799L282.841 392.303C282.642 393.185 282.025 393.461 281.282 393.481L281.054 394.317H286.984L287.212 393.481C285.915 393.478 285.391 393.304 285.654 392.303C285.71 392.089 285.816 391.712 285.882 391.39L287.098 387.209H287.364C288.523 387.205 288.851 387.349 288.885 387.969C288.906 388.368 288.895 388.691 288.923 388.92H289.569L290.557 384.852L290.025 384.776C289.477 386.177 288.308 386.197 287.896 386.183H287.364L288.2 382.838C288.564 381.602 288.682 381.67 289.607 381.659C291.218 381.64 292.174 381.904 292.04 384.168H292.572L293.56 380.481H283.943ZM294.321 380.481L293.294 384.168H293.902C294.199 383.138 294.207 382.965 294.815 382.419C295.438 381.874 296.109 381.659 297.172 381.659L294.397 391.809C294.204 393.466 293.25 393.461 292.04 393.481L291.85 394.317H298.122L298.274 393.557C297.471 393.632 296.977 393.104 297.134 392.493C297.194 392.258 297.304 391.909 297.4 391.504L299.984 381.659C301.953 381.658 302.348 382.448 302.227 384.168H302.797L303.786 380.481H294.321ZM270.562 392.759C270.233 392.758 269.887 393.169 269.802 393.671C269.717 394.173 269.929 394.582 270.258 394.584C270.587 394.585 270.934 394.173 271.019 393.671C271.103 393.169 270.891 392.76 270.562 392.759ZM280.294 392.759C279.964 392.758 279.618 393.169 279.533 393.671C279.449 394.173 279.66 394.582 279.99 394.584C280.319 394.585 280.665 394.173 280.75 393.671C280.835 393.169 280.623 392.76 280.294 392.759ZM288.657 392.759C288.327 392.758 287.981 393.169 287.896 393.671C287.812 394.173 287.985 394.582 288.314 394.584C288.644 394.585 288.99 394.173 289.075 393.671C289.16 393.169 288.986 392.76 288.657 392.759ZM258.702 392.797C258.373 392.795 258.065 393.207 257.98 393.709C257.896 394.211 258.069 394.62 258.398 394.622C258.728 394.623 259.074 394.211 259.159 393.709C259.243 393.207 259.032 392.798 258.702 392.797ZM299.832 392.797C299.503 392.796 299.157 393.207 299.072 393.709C298.987 394.211 299.199 394.62 299.528 394.622C299.858 394.623 300.204 394.211 300.289 393.709C300.373 393.207 300.162 392.798 299.832 392.797Z" fill="#3C60A7" stroke="#3C60A7" stroke-width="0.096317"/>
<path d="M247.579 377.453H305.461M247.579 397.553H305.461M253.742 407.982H299.251M253.742 367.024H299.251M276.449 377.453V356.879M276.449 397.553V418.08M277.291 356.914C277.291 356.914 289.759 363.645 292.224 377.393M275.674 356.925C275.674 356.925 262.965 363.567 260.396 377.295M275.623 417.985C275.623 417.985 263.06 411.323 260.595 397.575M277.394 417.987C277.394 417.987 289.913 411.414 292.482 397.685M276.496 356.858C259.585 356.858 245.875 370.568 245.875 387.479C245.875 404.391 259.585 418.101 276.496 418.101C293.408 418.101 307.118 404.391 307.118 387.479C307.118 370.568 293.408 356.858 276.496 356.858Z" stroke="#3C60A7" stroke-width="0.866853"/>
</g>
<defs>
<clipPath id="clip0_9578_45308">
<rect width="162.218" height="52.5" fill="white" transform="translate(256.934 135.75)"/>
</clipPath>
<clipPath id="clip1_9578_45308">
<rect width="63" height="63" fill="white" transform="translate(245 356)"/>
</clipPath>
</defs>
</svg>
