<svg width="560" height="560" viewBox="0 0 560 560" fill="none" xmlns="http://www.w3.org/2000/svg">
<rect width="560" height="560" rx="32" fill="#F0F2F6"/>
<path d="M197.781 209.425H170.629V256.591H197.781V209.425Z" fill="#FF5F00"/>
<path d="M172.358 233C172.358 223.417 177.013 214.917 184.167 209.417C178.909 205.417 172.272 203 165.031 203C147.878 203 134 216.417 134 233C134 249.583 147.878 263 165.031 263C172.272 263 178.909 260.583 184.167 256.583C177.013 251.167 172.358 242.583 172.358 233Z" fill="#EB001B"/>
<path d="M234.433 233C234.433 249.583 220.555 263 203.402 263C196.161 263 189.524 260.583 184.266 256.583C191.506 251.083 196.075 242.583 196.075 233C196.075 223.417 191.42 214.917 184.266 209.417C189.524 205.417 196.161 203 203.402 203C220.555 203 234.433 216.5 234.433 233Z" fill="#F79E1B"/>
<g clip-path="url(#clip0_9579_45442)">
<path d="M327.219 258.501H314.078L322.297 207.68H335.437L327.219 258.501Z" fill="#00579F"/>
<path d="M374.868 208.914C372.276 207.885 368.165 206.75 363.082 206.75C350.105 206.75 340.967 213.67 340.91 223.564C340.803 230.863 347.453 234.917 352.427 237.351C357.511 239.838 359.24 241.461 359.24 243.678C359.188 247.083 355.131 248.652 351.348 248.652C346.102 248.652 343.29 247.843 339.018 245.949L337.288 245.137L335.449 256.545C338.531 257.949 344.21 259.195 350.105 259.25C363.893 259.25 372.87 252.437 372.976 241.894C373.028 236.109 369.517 231.676 361.946 228.053C357.35 225.728 354.535 224.16 354.535 221.781C354.589 219.618 356.916 217.402 362.104 217.402C366.376 217.294 369.515 218.321 371.892 219.348L373.081 219.888L374.868 208.914Z" fill="#00579F"/>
<path d="M392.343 240.497C393.425 237.577 397.589 226.277 397.589 226.277C397.535 226.386 398.669 223.304 399.318 221.412L400.236 225.791C400.236 225.791 402.725 237.956 403.265 240.497C401.212 240.497 394.938 240.497 392.343 240.497ZM408.563 207.68H398.399C395.264 207.68 392.883 208.598 391.531 211.896L372.012 258.5H385.8C385.8 258.5 388.07 252.228 388.558 250.877C390.071 250.877 403.484 250.877 405.43 250.877C405.807 252.661 406.998 258.5 406.998 258.5H419.165L408.563 207.68Z" fill="#00579F"/>
<path d="M303.104 207.68L290.234 242.335L288.828 235.307C286.449 227.197 278.987 218.385 270.66 214.004L282.448 258.447H296.344L316.999 207.68H303.104Z" fill="#00579F"/>
<path d="M278.292 207.68H257.15L256.934 208.707C273.426 212.924 284.348 223.09 288.836 235.309L284.24 211.952C283.483 208.706 281.158 207.787 278.292 207.68Z" fill="#FAA61A"/>
</g>
<path d="M231.213 341.583H218.83C218.83 339.32 218.594 337.805 218.123 337.017C217.379 335.865 215.349 335.299 212.031 335.299C208.804 335.299 206.646 335.622 205.613 336.289C204.561 336.956 204.036 338.391 204.036 340.613C204.036 342.614 204.507 343.948 205.432 344.574C206.102 345.019 206.973 345.281 208.079 345.362L210.581 345.564C215.929 345.968 219.283 346.231 220.607 346.393C224.831 346.878 227.913 348.131 229.817 350.151C231.321 351.748 232.21 353.809 232.5 356.375C232.663 357.911 232.754 359.649 232.754 361.568C232.754 366.014 232.373 369.247 231.612 371.308C230.234 375.087 227.133 377.471 222.311 378.482C220.298 378.906 217.198 379.108 213.046 379.108C206.121 379.108 201.28 378.643 198.542 377.714C195.188 376.582 192.976 374.279 191.925 370.823C191.29 368.924 191 365.731 191 361.245H203.383C203.383 361.75 203.383 362.134 203.383 362.397C203.383 364.781 203.999 366.337 205.232 367.024C206.084 367.489 207.118 367.752 208.332 367.772H212.883C215.204 367.772 216.69 367.63 217.325 367.368C218.467 366.863 219.211 366.074 219.573 364.963C219.754 364.276 219.863 363.387 219.863 362.316C219.863 359.891 219.065 358.416 217.488 357.891C216.89 357.688 214.134 357.385 209.203 357.022C205.25 356.698 202.495 356.395 200.953 356.112C196.892 355.264 194.191 353.526 192.849 350.899C191.653 348.615 191.054 345.221 191.054 340.674C191.054 337.219 191.381 334.45 192.015 332.369C192.65 330.288 193.683 328.691 195.116 327.62C197.201 325.963 199.884 324.973 203.129 324.69C205.83 324.428 208.84 324.286 212.14 324.286C217.343 324.286 221.042 324.609 223.254 325.276C228.638 326.893 231.34 331.419 231.34 338.835C231.321 339.462 231.285 340.371 231.213 341.583Z" fill="#10298E"/>
<path d="M285.652 379.125V324H305.052H308.097H310.454C313.863 324 316.455 324.303 318.232 324.93C322.312 326.344 325.049 329.274 326.445 333.679C327.17 335.983 327.533 339.479 327.533 344.126C327.533 349.724 327.134 353.725 326.336 356.19C324.741 361.019 321.478 363.808 316.528 364.535C315.948 364.637 313.464 364.738 309.113 364.818L306.901 364.899H298.96V379.125H285.652ZM298.96 352.108H307.263C309.892 352.007 311.488 351.785 312.068 351.421C312.848 350.936 313.391 349.966 313.645 348.531C313.808 347.561 313.899 346.127 313.899 344.227C313.899 341.904 313.736 340.166 313.391 339.034C312.92 337.458 311.76 336.488 309.947 336.144C309.584 336.084 308.732 336.064 307.372 336.064H298.96V352.108Z" fill="#10298E"/>
<path d="M355.968 369.587H338.164L335.771 379.105H321.992L336.859 324H356.929L371.977 379.125H358.488L355.968 369.587ZM353.321 358.857L347.084 334.952L341.029 358.837H353.321V358.857Z" fill="#10298E"/>
<path d="M267.294 331.776C272.788 331.776 277.683 334.585 280.91 339.01L283.775 332.16C279.297 327.431 273.187 324.521 266.442 324.521C255.963 324.521 246.989 331.574 243.308 341.576H237.706L234.406 349.477H241.604C241.55 350.205 241.513 350.932 241.513 351.68C241.513 352.589 241.55 353.478 241.64 354.367H238.032L234.733 362.268H243.489C247.279 372.008 256.126 378.838 266.46 378.838C271.664 378.838 276.486 377.1 280.493 374.13V364.431C277.266 368.512 272.57 371.099 267.312 371.099C261.184 371.099 255.782 367.583 252.645 362.228H270.957L274.256 354.327H249.908C249.781 353.377 249.708 352.407 249.708 351.417C249.708 350.75 249.744 350.083 249.799 349.437H276.287L279.587 341.536H252.101C255.147 335.716 260.804 331.776 267.294 331.776Z" fill="#FFBE00"/>
<path d="M267.296 331.971C272.536 331.971 277.431 334.578 280.749 339.124L280.967 339.428L281.112 339.084L283.976 332.234L284.049 332.072L283.94 331.951C279.226 326.98 273.026 324.252 266.463 324.252C261.35 324.252 256.418 325.909 252.23 329.081C248.133 332.153 244.978 336.437 243.129 341.468L243.328 341.327H237.726H237.581L237.527 341.468L234.227 349.369L234.082 349.713H234.408H241.606L241.388 349.45C241.334 350.279 241.298 351.006 241.298 351.673C241.298 352.562 241.334 353.471 241.425 354.381L241.642 354.118H238.034H237.907L237.853 354.26L234.517 362.12L234.372 362.464H234.698H243.455L243.256 362.322C247.208 372.486 256.291 379.033 266.426 379.033C271.503 379.033 276.398 377.397 280.568 374.285L280.658 374.224V374.103V364.403V363.777L280.296 364.242C276.996 368.425 272.246 370.829 267.278 370.829C261.422 370.829 256.001 367.556 252.774 362.08L252.593 362.443H270.959H271.104L271.158 362.302L274.458 354.401L274.603 354.057H274.277H249.91L250.127 354.26C250 353.31 249.928 352.34 249.928 351.39C249.928 350.743 249.964 350.077 250.018 349.43L249.801 349.652H276.289H276.434L276.488 349.511L279.788 341.61L279.933 341.266H279.589H252.103L252.285 341.63C255.385 335.689 261.132 331.971 267.296 331.971ZM252.103 341.772H279.607L279.407 341.428L276.108 349.329L276.307 349.188H249.819H249.62L249.601 349.41C249.547 350.077 249.511 350.743 249.511 351.41C249.511 352.38 249.583 353.37 249.71 354.361L249.746 354.563H249.928H274.277L274.077 354.219L270.777 362.12L270.977 361.979H252.611H252.212L252.43 362.342C255.729 367.96 261.295 371.314 267.278 371.314C272.373 371.314 277.232 368.849 280.622 364.565L280.241 364.403V374.083L280.332 373.881C276.217 376.932 271.412 378.548 266.426 378.548C256.473 378.548 247.535 372.102 243.655 362.12L243.6 361.979H243.455H234.698L234.898 362.322L238.198 354.421L237.998 354.563H241.606H241.842L241.824 354.3C241.751 353.411 241.697 352.502 241.697 351.633C241.697 350.966 241.733 350.238 241.787 349.43L241.805 349.167H241.57H234.372L234.572 349.511L237.871 341.61L237.672 341.751H243.274H243.419L243.473 341.61C245.286 336.679 248.387 332.476 252.412 329.445C256.545 326.353 261.386 324.717 266.408 324.717C272.844 324.717 278.954 327.404 283.596 332.294L283.541 332.011L280.677 338.862L281.039 338.821C277.649 334.174 272.627 331.506 267.26 331.506C260.951 331.506 255.077 335.305 251.886 341.408L251.705 341.772H252.103Z" fill="#10298E"/>
<g clip-path="url(#clip1_9579_45442)">
<path d="M255.243 453.91C253.1 453.956 251.239 455.534 251.252 458.054C251.259 459.517 252.389 460.673 253.495 461.893C255.201 463.776 255.702 463.444 255.623 465.352C255.594 466.051 254.436 467.142 253.19 467.139C251.346 467.136 250.056 465.365 250.568 463.224H250.035L248.629 468.317H249.161C249.317 467.794 250.368 467.841 250.796 467.823C251.601 467.789 252.061 468.438 253.723 468.431C255.996 468.423 258.23 466.936 258.208 464.174C258.197 462.741 257.317 461.767 256.155 460.639C254.368 458.904 253.671 458.075 253.989 456.685C254.251 455.536 255.073 455.214 255.889 455.203C257.419 455.183 258.078 456.796 258.284 458.472H258.778L260.033 454.215H259.501C259.384 454.718 258.769 454.743 258.284 454.709C258.066 454.693 257.943 454.737 257.41 454.557C256.842 454.364 255.946 453.896 255.243 453.91ZM260.603 454.481L260.451 455.317C261.291 455.321 261.594 455.302 261.591 456.876V468.317C261.591 468.317 261.813 468.82 262.124 468.317C262.434 467.815 267.483 459.46 267.483 459.46V459.726L267.445 468.317C267.445 468.317 267.767 468.82 268.092 468.317C268.416 467.815 275.39 456.305 275.39 456.305C275.708 455.734 275.95 455.337 276.759 455.317L276.949 454.481H272.653L272.501 455.317C273.441 455.319 274.068 455.171 274.098 455.735C274.11 455.972 274.067 456.162 273.908 456.457L270.372 462.235L270.296 462.121V456.876C270.3 456.64 270.301 456.407 270.296 456.229C270.273 455.339 270.518 455.319 271.209 455.317L271.361 454.481H266.571L266.419 455.317C267.14 455.337 267.456 455.546 267.445 456.191V457.37L264.366 462.349L264.252 462.425V456.838C264.252 456.641 264.254 456.332 264.252 456.115C264.249 455.811 264.183 455.319 265.051 455.317L265.279 454.481H260.603ZM277.595 454.481L277.443 455.317C277.835 455.297 278.236 455.445 278.279 455.887C278.298 456.08 278.184 456.362 278.089 456.723L275.466 466.493C275.311 467.142 274.531 467.489 273.489 467.481L273.337 468.317H278.925L279.115 467.481C278.128 467.461 278.19 467.188 278.203 466.835C278.211 466.614 278.318 466.411 278.393 466.151L281.054 456.343C281.328 455.426 281.988 455.337 282.993 455.317L283.183 454.481H277.595ZM283.943 454.481L283.753 455.317C284.585 455.38 285.767 455.371 285.464 456.343C285.397 456.556 285.47 456.458 285.387 456.799L282.841 466.303C282.642 467.185 282.025 467.461 281.282 467.481L281.054 468.317H286.984L287.212 467.481C285.915 467.478 285.391 467.304 285.654 466.303C285.71 466.089 285.816 465.712 285.882 465.39L287.098 461.209H287.364C288.523 461.205 288.851 461.349 288.885 461.969C288.906 462.368 288.895 462.691 288.923 462.92H289.569L290.557 458.852L290.025 458.776C289.477 460.177 288.308 460.197 287.896 460.183H287.364L288.2 456.838C288.564 455.602 288.682 455.67 289.607 455.659C291.218 455.64 292.174 455.904 292.04 458.168H292.572L293.56 454.481H283.943ZM294.321 454.481L293.294 458.168H293.902C294.199 457.138 294.207 456.965 294.815 456.419C295.438 455.874 296.109 455.659 297.172 455.659L294.397 465.809C294.204 467.466 293.25 467.461 292.04 467.481L291.85 468.317H298.122L298.274 467.557C297.471 467.632 296.977 467.104 297.134 466.493C297.194 466.258 297.304 465.909 297.4 465.504L299.984 455.659C301.953 455.658 302.348 456.448 302.227 458.168H302.797L303.786 454.481H294.321ZM270.562 466.759C270.233 466.758 269.887 467.169 269.802 467.671C269.717 468.173 269.929 468.582 270.258 468.584C270.587 468.585 270.934 468.173 271.019 467.671C271.103 467.169 270.891 466.76 270.562 466.759ZM280.294 466.759C279.964 466.758 279.618 467.169 279.533 467.671C279.449 468.173 279.66 468.582 279.99 468.584C280.319 468.585 280.665 468.173 280.75 467.671C280.835 467.169 280.623 466.76 280.294 466.759ZM288.657 466.759C288.327 466.758 287.981 467.169 287.896 467.671C287.812 468.173 287.985 468.582 288.314 468.584C288.644 468.585 288.99 468.173 289.075 467.671C289.16 467.169 288.986 466.76 288.657 466.759ZM258.702 466.797C258.373 466.795 258.065 467.207 257.98 467.709C257.896 468.211 258.069 468.62 258.398 468.622C258.728 468.623 259.074 468.211 259.159 467.709C259.243 467.207 259.032 466.798 258.702 466.797ZM299.832 466.797C299.503 466.796 299.157 467.207 299.072 467.709C298.987 468.211 299.199 468.62 299.528 468.622C299.858 468.623 300.204 468.211 300.289 467.709C300.373 467.207 300.162 466.798 299.832 466.797Z" fill="#3C60A7" stroke="#3C60A7" stroke-width="0.096317"/>
<path d="M247.579 451.453H305.461M247.579 471.553H305.461M253.742 481.982H299.251M253.742 441.024H299.251M276.449 451.453V430.879M276.449 471.553V492.08M277.291 430.914C277.291 430.914 289.759 437.645 292.224 451.393M275.674 430.925C275.674 430.925 262.965 437.567 260.396 451.295M275.623 491.985C275.623 491.985 263.06 485.323 260.595 471.575M277.394 491.987C277.394 491.987 289.913 485.414 292.482 471.685M276.496 430.858C259.585 430.858 245.875 444.568 245.875 461.479C245.875 478.391 259.585 492.101 276.496 492.101C293.408 492.101 307.118 478.391 307.118 461.479C307.118 444.568 293.408 430.858 276.496 430.858Z" stroke="#3C60A7" stroke-width="0.866853"/>
</g>
<path d="M115.738 125H105.941V97.3636H115.819C118.599 97.3636 120.992 97.9169 122.998 99.0234C125.004 100.121 126.547 101.7 127.627 103.76C128.715 105.82 129.259 108.285 129.259 111.155C129.259 114.034 128.715 116.508 127.627 118.577C126.547 120.646 124.995 122.234 122.971 123.34C120.956 124.447 118.545 125 115.738 125ZM111.784 119.994H115.495C117.222 119.994 118.675 119.688 119.854 119.076C121.041 118.455 121.932 117.497 122.526 116.202C123.128 114.897 123.43 113.215 123.43 111.155C123.43 109.113 123.128 107.444 122.526 106.148C121.932 104.853 121.046 103.899 119.867 103.288C118.689 102.676 117.236 102.37 115.509 102.37H111.784V119.994ZM142.166 125.405C140.034 125.405 138.198 124.973 136.66 124.109C135.131 123.237 133.952 122.004 133.125 120.412C132.297 118.811 131.883 116.917 131.883 114.731C131.883 112.599 132.297 110.728 133.125 109.117C133.952 107.507 135.117 106.252 136.62 105.352C138.131 104.453 139.903 104.003 141.936 104.003C143.304 104.003 144.577 104.223 145.755 104.664C146.943 105.096 147.977 105.748 148.859 106.621C149.75 107.493 150.442 108.591 150.937 109.913C151.432 111.227 151.679 112.765 151.679 114.528V116.107H134.177V112.545H146.268C146.268 111.717 146.088 110.984 145.728 110.345C145.368 109.706 144.869 109.207 144.23 108.847C143.601 108.478 142.867 108.294 142.031 108.294C141.158 108.294 140.385 108.496 139.71 108.901C139.044 109.297 138.522 109.832 138.144 110.507C137.767 111.173 137.573 111.915 137.564 112.734V116.121C137.564 117.146 137.753 118.032 138.131 118.779C138.518 119.526 139.062 120.102 139.764 120.506C140.465 120.911 141.298 121.114 142.26 121.114C142.899 121.114 143.484 121.024 144.014 120.844C144.545 120.664 145 120.394 145.377 120.034C145.755 119.674 146.043 119.233 146.241 118.712L151.558 119.062C151.288 120.34 150.735 121.455 149.898 122.409C149.07 123.354 148 124.091 146.686 124.622C145.382 125.144 143.875 125.405 142.166 125.405ZM162.308 125.337C160.734 125.337 159.308 124.933 158.031 124.123C156.762 123.304 155.755 122.103 155.008 120.52C154.27 118.928 153.901 116.975 153.901 114.663C153.901 112.288 154.284 110.314 155.049 108.739C155.813 107.156 156.83 105.973 158.098 105.19C159.376 104.399 160.775 104.003 162.295 104.003C163.455 104.003 164.423 104.201 165.196 104.597C165.979 104.983 166.609 105.469 167.085 106.054C167.571 106.63 167.94 107.196 168.192 107.754H168.367V97.3636H174.102V125H168.435V121.68H168.192C167.922 122.256 167.54 122.827 167.045 123.394C166.559 123.952 165.925 124.415 165.142 124.784C164.369 125.153 163.424 125.337 162.308 125.337ZM164.13 120.763C165.057 120.763 165.839 120.511 166.478 120.007C167.126 119.494 167.621 118.779 167.963 117.862C168.313 116.944 168.489 115.869 168.489 114.636C168.489 113.404 168.318 112.333 167.976 111.425C167.634 110.516 167.139 109.814 166.492 109.32C165.844 108.825 165.057 108.577 164.13 108.577C163.186 108.577 162.389 108.834 161.742 109.347C161.094 109.859 160.604 110.57 160.271 111.479C159.938 112.387 159.772 113.44 159.772 114.636C159.772 115.842 159.938 116.908 160.271 117.835C160.613 118.752 161.103 119.472 161.742 119.994C162.389 120.506 163.186 120.763 164.13 120.763ZM178.069 125V104.273H183.817V125H178.069ZM180.957 101.601C180.102 101.601 179.369 101.317 178.757 100.751C178.154 100.175 177.853 99.4867 177.853 98.6861C177.853 97.8944 178.154 97.2152 178.757 96.6484C179.369 96.0727 180.102 95.7848 180.957 95.7848C181.811 95.7848 182.54 96.0727 183.143 96.6484C183.754 97.2152 184.06 97.8944 184.06 98.6861C184.06 99.4867 183.754 100.175 183.143 100.751C182.54 101.317 181.811 101.601 180.957 101.601ZM197.027 125.405C194.904 125.405 193.078 124.955 191.549 124.055C190.028 123.147 188.859 121.887 188.04 120.277C187.231 118.667 186.826 116.813 186.826 114.717C186.826 112.594 187.235 110.732 188.054 109.131C188.881 107.52 190.055 106.265 191.576 105.366C193.096 104.457 194.904 104.003 197 104.003C198.809 104.003 200.392 104.331 201.75 104.988C203.109 105.645 204.184 106.567 204.976 107.754C205.767 108.942 206.204 110.336 206.285 111.938H200.86C200.707 110.903 200.302 110.071 199.645 109.441C198.998 108.802 198.147 108.483 197.095 108.483C196.204 108.483 195.426 108.726 194.76 109.212C194.104 109.688 193.591 110.386 193.222 111.303C192.853 112.221 192.669 113.332 192.669 114.636C192.669 115.959 192.849 117.083 193.209 118.01C193.577 118.937 194.095 119.643 194.76 120.129C195.426 120.614 196.204 120.857 197.095 120.857C197.752 120.857 198.341 120.722 198.863 120.452C199.393 120.183 199.83 119.791 200.172 119.278C200.522 118.757 200.752 118.131 200.86 117.403H206.285C206.195 118.986 205.763 120.38 204.989 121.586C204.224 122.782 203.167 123.718 201.818 124.393C200.468 125.067 198.872 125.405 197.027 125.405ZM215.116 125.391C213.793 125.391 212.615 125.162 211.58 124.703C210.546 124.235 209.727 123.547 209.124 122.638C208.53 121.721 208.234 120.578 208.234 119.211C208.234 118.059 208.445 117.092 208.868 116.31C209.291 115.527 209.866 114.897 210.595 114.42C211.324 113.944 212.151 113.584 213.078 113.341C214.014 113.098 214.994 112.927 216.02 112.828C217.225 112.702 218.197 112.585 218.935 112.477C219.672 112.36 220.207 112.189 220.54 111.964C220.873 111.74 221.04 111.407 221.04 110.966V110.885C221.04 110.03 220.77 109.369 220.23 108.901C219.699 108.433 218.944 108.2 217.963 108.2C216.928 108.2 216.105 108.429 215.493 108.888C214.882 109.338 214.477 109.904 214.279 110.588L208.962 110.156C209.232 108.897 209.763 107.808 210.555 106.891C211.346 105.964 212.367 105.253 213.618 104.759C214.877 104.255 216.335 104.003 217.99 104.003C219.141 104.003 220.243 104.138 221.296 104.408C222.358 104.678 223.298 105.096 224.116 105.663C224.944 106.229 225.596 106.958 226.073 107.849C226.55 108.73 226.788 109.787 226.788 111.02V125H221.337V122.126H221.175C220.842 122.773 220.396 123.345 219.839 123.839C219.281 124.325 218.611 124.708 217.828 124.987C217.045 125.256 216.141 125.391 215.116 125.391ZM216.762 121.424C217.608 121.424 218.354 121.258 219.002 120.925C219.65 120.583 220.158 120.124 220.527 119.548C220.896 118.973 221.08 118.32 221.08 117.592V115.392C220.9 115.509 220.653 115.617 220.338 115.716C220.032 115.806 219.686 115.891 219.299 115.972C218.912 116.044 218.525 116.112 218.138 116.175C217.752 116.229 217.401 116.278 217.086 116.323C216.411 116.422 215.822 116.58 215.318 116.795C214.814 117.011 214.423 117.304 214.144 117.673C213.865 118.032 213.726 118.482 213.726 119.022C213.726 119.805 214.009 120.403 214.576 120.817C215.152 121.222 215.88 121.424 216.762 121.424ZM241.513 104.273V108.591H229.031V104.273H241.513ZM231.865 99.3068H237.613V118.631C237.613 119.161 237.694 119.575 237.856 119.872C238.018 120.16 238.243 120.362 238.531 120.479C238.828 120.596 239.169 120.655 239.556 120.655C239.826 120.655 240.096 120.632 240.366 120.587C240.636 120.533 240.843 120.493 240.987 120.466L241.891 124.744C241.603 124.834 241.198 124.937 240.676 125.054C240.155 125.18 239.52 125.256 238.774 125.283C237.388 125.337 236.174 125.153 235.13 124.73C234.096 124.307 233.29 123.651 232.715 122.76C232.139 121.869 231.856 120.745 231.865 119.386V99.3068ZM253.721 125.405C251.589 125.405 249.754 124.973 248.215 124.109C246.686 123.237 245.507 122.004 244.68 120.412C243.852 118.811 243.438 116.917 243.438 114.731C243.438 112.599 243.852 110.728 244.68 109.117C245.507 107.507 246.672 106.252 248.175 105.352C249.686 104.453 251.458 104.003 253.492 104.003C254.859 104.003 256.132 104.223 257.31 104.664C258.498 105.096 259.533 105.748 260.414 106.621C261.305 107.493 261.997 108.591 262.492 109.913C262.987 111.227 263.234 112.765 263.234 114.528V116.107H245.732V112.545H257.823C257.823 111.717 257.643 110.984 257.283 110.345C256.924 109.706 256.424 109.207 255.786 108.847C255.156 108.478 254.423 108.294 253.586 108.294C252.713 108.294 251.94 108.496 251.265 108.901C250.599 109.297 250.078 109.832 249.7 110.507C249.322 111.173 249.128 111.915 249.119 112.734V116.121C249.119 117.146 249.308 118.032 249.686 118.779C250.073 119.526 250.617 120.102 251.319 120.506C252.021 120.911 252.853 121.114 253.815 121.114C254.454 121.114 255.039 121.024 255.57 120.844C256.1 120.664 256.555 120.394 256.933 120.034C257.31 119.674 257.598 119.233 257.796 118.712L263.113 119.062C262.843 120.34 262.29 121.455 261.453 122.409C260.626 123.354 259.555 124.091 258.242 124.622C256.937 125.144 255.43 125.405 253.721 125.405ZM273.864 125.337C272.289 125.337 270.863 124.933 269.586 124.123C268.318 123.304 267.31 122.103 266.563 120.52C265.826 118.928 265.457 116.975 265.457 114.663C265.457 112.288 265.839 110.314 266.604 108.739C267.368 107.156 268.385 105.973 269.653 105.19C270.931 104.399 272.33 104.003 273.85 104.003C275.011 104.003 275.978 104.201 276.751 104.597C277.534 104.983 278.164 105.469 278.641 106.054C279.126 106.63 279.495 107.196 279.747 107.754H279.923V97.3636H285.658V125H279.99V121.68H279.747C279.477 122.256 279.095 122.827 278.6 123.394C278.114 123.952 277.48 124.415 276.697 124.784C275.924 125.153 274.979 125.337 273.864 125.337ZM275.685 120.763C276.612 120.763 277.395 120.511 278.033 120.007C278.681 119.494 279.176 118.779 279.518 117.862C279.869 116.944 280.044 115.869 280.044 114.636C280.044 113.404 279.873 112.333 279.531 111.425C279.189 110.516 278.695 109.814 278.047 109.32C277.399 108.825 276.612 108.577 275.685 108.577C274.741 108.577 273.945 108.834 273.297 109.347C272.649 109.859 272.159 110.57 271.826 111.479C271.493 112.387 271.327 113.44 271.327 114.636C271.327 115.842 271.493 116.908 271.826 117.835C272.168 118.752 272.658 119.472 273.297 119.994C273.945 120.506 274.741 120.763 275.685 120.763ZM303.61 97.3636V125H297.767V97.3636H303.61ZM307.657 125V97.3636H318.723C320.756 97.3636 322.452 97.665 323.81 98.2678C325.169 98.8705 326.19 99.7071 326.873 100.778C327.557 101.839 327.899 103.063 327.899 104.448C327.899 105.528 327.683 106.477 327.251 107.295C326.819 108.105 326.226 108.771 325.47 109.293C324.723 109.805 323.869 110.17 322.906 110.386V110.656C323.959 110.701 324.944 110.997 325.861 111.546C326.788 112.095 327.539 112.864 328.115 113.854C328.691 114.834 328.978 116.004 328.978 117.362C328.978 118.829 328.614 120.138 327.885 121.289C327.166 122.432 326.1 123.336 324.687 124.001C323.275 124.667 321.534 125 319.465 125H307.657ZM313.5 120.223H318.264C319.892 120.223 321.08 119.913 321.826 119.292C322.573 118.662 322.946 117.826 322.946 116.782C322.946 116.017 322.762 115.343 322.393 114.758C322.024 114.173 321.498 113.714 320.814 113.381C320.14 113.049 319.334 112.882 318.399 112.882H313.5V120.223ZM313.5 108.928H317.832C318.633 108.928 319.343 108.789 319.964 108.51C320.594 108.222 321.089 107.817 321.449 107.295C321.817 106.774 322.002 106.148 322.002 105.42C322.002 104.421 321.646 103.616 320.936 103.004C320.234 102.393 319.236 102.087 317.94 102.087H313.5V108.928ZM336.784 125H330.523L340.063 97.3636H347.593L357.12 125H350.858L343.936 103.679H343.72L336.784 125ZM336.393 114.137H351.182V118.698H336.393V114.137ZM382.802 97.3636V125H377.755L365.732 107.606H365.529V125H359.686V97.3636H364.814L376.743 114.744H376.986V97.3636H382.802ZM404.243 125.405C402.11 125.405 400.275 124.973 398.737 124.109C397.208 123.237 396.029 122.004 395.201 120.412C394.374 118.811 393.96 116.917 393.96 114.731C393.96 112.599 394.374 110.728 395.201 109.117C396.029 107.507 397.194 106.252 398.696 105.352C400.208 104.453 401.98 104.003 404.013 104.003C405.381 104.003 406.654 104.223 407.832 104.664C409.02 105.096 410.054 105.748 410.936 106.621C411.826 107.493 412.519 108.591 413.014 109.913C413.509 111.227 413.756 112.765 413.756 114.528V116.107H396.254V112.545H408.345C408.345 111.717 408.165 110.984 407.805 110.345C407.445 109.706 406.946 109.207 406.307 108.847C405.677 108.478 404.944 108.294 404.108 108.294C403.235 108.294 402.461 108.496 401.787 108.901C401.121 109.297 400.599 109.832 400.221 110.507C399.843 111.173 399.65 111.915 399.641 112.734V116.121C399.641 117.146 399.83 118.032 400.208 118.779C400.595 119.526 401.139 120.102 401.841 120.506C402.542 120.911 403.374 121.114 404.337 121.114C404.976 121.114 405.561 121.024 406.091 120.844C406.622 120.664 407.076 120.394 407.454 120.034C407.832 119.674 408.12 119.233 408.318 118.712L413.635 119.062C413.365 120.34 412.811 121.455 411.975 122.409C411.147 123.354 410.077 124.091 408.763 124.622C407.459 125.144 405.952 125.405 404.243 125.405ZM430.039 116.175V104.273H435.788V125H430.269V121.235H430.053C429.585 122.45 428.807 123.426 427.718 124.163C426.639 124.901 425.321 125.27 423.765 125.27C422.379 125.27 421.16 124.955 420.108 124.325C419.055 123.696 418.232 122.8 417.638 121.64C417.053 120.479 416.756 119.089 416.747 117.47V104.273H422.496V116.445C422.505 117.668 422.833 118.635 423.481 119.346C424.129 120.057 424.997 120.412 426.086 120.412C426.778 120.412 427.426 120.254 428.029 119.94C428.631 119.616 429.117 119.139 429.486 118.509C429.864 117.879 430.048 117.101 430.039 116.175ZM439.626 125V104.273H445.199V107.889H445.415C445.793 106.603 446.427 105.631 447.318 104.974C448.209 104.309 449.234 103.976 450.395 103.976C450.682 103.976 450.993 103.994 451.326 104.03C451.659 104.066 451.951 104.115 452.203 104.178V109.279C451.933 109.198 451.56 109.126 451.083 109.063C450.606 109 450.17 108.969 449.774 108.969C448.928 108.969 448.173 109.153 447.507 109.522C446.85 109.882 446.328 110.386 445.941 111.033C445.564 111.681 445.375 112.428 445.375 113.273V125H439.626ZM462.815 125.405C460.719 125.405 458.906 124.96 457.377 124.069C455.857 123.169 454.683 121.919 453.855 120.317C453.027 118.707 452.613 116.84 452.613 114.717C452.613 112.576 453.027 110.705 453.855 109.104C454.683 107.493 455.857 106.243 457.377 105.352C458.906 104.453 460.719 104.003 462.815 104.003C464.911 104.003 466.72 104.453 468.24 105.352C469.769 106.243 470.948 107.493 471.775 109.104C472.603 110.705 473.017 112.576 473.017 114.717C473.017 116.84 472.603 118.707 471.775 120.317C470.948 121.919 469.769 123.169 468.24 124.069C466.72 124.96 464.911 125.405 462.815 125.405ZM462.842 120.952C463.796 120.952 464.592 120.682 465.231 120.142C465.869 119.593 466.351 118.847 466.675 117.902C467.007 116.957 467.174 115.882 467.174 114.677C467.174 113.471 467.007 112.396 466.675 111.452C466.351 110.507 465.869 109.76 465.231 109.212C464.592 108.663 463.796 108.388 462.842 108.388C461.88 108.388 461.07 108.663 460.413 109.212C459.765 109.76 459.275 110.507 458.942 111.452C458.618 112.396 458.457 113.471 458.457 114.677C458.457 115.882 458.618 116.957 458.942 117.902C459.275 118.847 459.765 119.593 460.413 120.142C461.07 120.682 461.88 120.952 462.842 120.952Z" fill="url(#paint0_linear_9579_45442)"/>
<defs>
<linearGradient id="paint0_linear_9579_45442" x1="90" y1="45" x2="360.217" y2="308.851" gradientUnits="userSpaceOnUse">
<stop stop-color="#111584"/>
<stop offset="1" stop-color="#685BC7"/>
</linearGradient>
<clipPath id="clip0_9579_45442">
<rect width="162.218" height="52.5" fill="white" transform="translate(256.934 206.75)"/>
</clipPath>
<clipPath id="clip1_9579_45442">
<rect width="63" height="63" fill="white" transform="translate(245 430)"/>
</clipPath>
</defs>
</svg>
