<svg width="120" height="40" viewBox="0 0 120 40" fill="none" xmlns="http://www.w3.org/2000/svg">
<g id="Logo">
<g clip-path="url(#clip0_19350_105081)">
<g id="layer1">
<path id="rect80" d="M120 0H0V40H120V0Z" fill="#E60012"/>
<path id="path29" d="M22.1929 32.6135C14.1643 32.6108 8.79964 26.9211 8.79964 20.0226C8.79964 13.124 14.1765 7.36908 22.1806 7.38676H97.8186C105.823 7.36908 111.2 13.124 111.2 20.0226C111.2 26.9211 105.835 32.6108 97.8064 32.6135H22.1929ZM22.2174 10.49C15.8614 10.5022 11.96 14.7504 11.96 20.0062C11.96 25.2607 15.8369 29.5443 22.2174 29.5212H97.7819C104.162 29.5429 108.041 25.2607 108.041 20.0062C108.041 14.7518 104.139 10.5036 97.7833 10.4913L22.2174 10.49ZM101.847 14.9258C102.424 14.9258 102.711 15.1216 102.711 15.5092C102.711 15.7757 102.546 15.977 102.269 16.0463L102.722 16.9506H102.174L101.787 16.1211H101.546V16.9506H101.052V14.9258H101.847ZM101.802 14.1344C100.793 14.1344 99.974 14.953 99.974 15.962C99.974 16.971 100.793 17.7897 101.802 17.7897C102.811 17.7897 103.629 16.971 103.629 15.962C103.629 14.953 102.811 14.1344 101.802 14.1344ZM103.28 15.9634C103.28 16.7793 102.618 17.4416 101.802 17.4416C100.986 17.4416 100.323 16.7793 100.323 15.9634C100.323 15.1475 100.986 14.4852 101.802 14.4852C102.618 14.4852 103.28 15.1461 103.28 15.9634ZM101.546 15.8247H101.787C102.068 15.8247 102.204 15.739 102.204 15.5377C102.204 15.327 102.059 15.2359 101.762 15.2359H101.546V15.8247ZM60.239 20.7732C60.2335 20.081 60.2485 19.6187 60.4756 19.2243C60.7544 18.7375 61.267 18.5063 61.7321 18.5036H61.7307C62.1958 18.5063 62.7084 18.7375 62.9872 19.2243C63.2143 19.62 63.2238 20.0824 63.2184 20.7746L60.239 20.7732ZM63.2062 23.1543C63.2062 23.1543 63.2089 23.1897 63.2089 23.633C63.2089 25.0772 62.2584 25.3981 61.7307 25.3981C61.2031 25.3981 60.2363 25.0772 60.2363 23.633C60.2363 23.2006 60.239 22.0025 60.239 22.0025C60.239 22.0025 66.9662 22.0052 66.9662 22.0011C66.9662 19.552 64.6014 17.5231 61.6967 17.5231C58.7921 17.5231 56.4382 19.5085 56.4382 21.9576C56.4382 24.4067 58.7921 26.3907 61.6967 26.3907C64.1064 26.3907 66.1421 25.0159 66.7636 23.1516L63.2062 23.1543ZM74.4427 17.655C75.7781 17.617 78.4869 18.4914 78.4679 21.6177C78.4651 22.1725 78.4665 25.9148 78.4665 25.9148H74.9186C74.9186 25.9148 74.9186 21.222 74.9186 20.7283C74.9186 20.0402 74.2604 19.2746 73.2868 19.2746C72.3145 19.2746 71.591 20.0402 71.591 20.7283C71.591 21.0656 71.5951 25.9148 71.5951 25.9148H68.05L68.0527 18.0181L71.5965 18.0154C71.5965 18.0154 71.5924 18.6505 71.5965 18.8463C72.2791 18.1949 73.2637 17.689 74.4427 17.655ZM45.4206 17.655C46.756 17.617 49.4648 18.4914 49.4458 21.6177C49.4431 22.1725 49.4444 25.9148 49.4444 25.9148H45.8965C45.8965 25.9148 45.8965 21.222 45.8965 20.7283C45.8965 20.0402 45.2383 19.2746 44.2647 19.2746C43.2924 19.2746 42.5689 20.0402 42.5689 20.7283C42.5689 21.0656 42.573 25.9148 42.573 25.9148H39.0279L39.0265 18.0181L42.5743 18.0154C42.5743 18.0154 42.5703 18.6505 42.5743 18.8463C43.257 18.1949 44.2403 17.689 45.4206 17.655ZM86.1647 14.0419H89.6894V25.9175H86.1592C86.1592 25.9175 86.1578 25.5341 86.1578 25.4606C84.7912 26.3187 83.2491 26.3173 82.0483 25.7571C81.726 25.6075 79.606 24.5903 79.606 21.842C79.606 19.7574 81.5724 17.481 84.1466 17.7067C84.9938 17.7815 85.5962 18.0902 86.1673 18.4111C86.1646 16.5835 86.1647 14.0419 86.1647 14.0419ZM86.1905 21.9291C86.1905 21.9291 86.1905 20.9391 86.1905 20.5175C86.1905 19.2964 85.3474 18.985 84.7926 18.985C84.2241 18.985 83.3919 19.2964 83.3919 20.5175C83.3919 20.9228 83.3933 21.925 83.3933 21.925C83.3933 21.925 83.3919 22.9095 83.3919 23.3297C83.3919 24.5495 84.2241 24.8691 84.7912 24.8691C85.3474 24.8691 86.1919 24.5495 86.1919 23.3297C86.1919 22.8225 86.1905 21.9291 86.1905 21.9291ZM97.5059 21.906C97.5059 21.906 97.5045 23.0999 97.5045 23.5786C97.5045 24.8378 96.7606 25.3573 96.0453 25.3573C95.3287 25.3573 94.5821 24.8378 94.5821 23.5786C94.5821 23.0999 94.5835 21.876 94.5835 21.876C94.5835 21.876 94.5863 20.7079 94.5863 20.2293C94.5863 18.9755 95.3342 18.4601 96.0454 18.4601C96.7579 18.4601 97.5045 18.9755 97.5045 20.2293C97.5045 20.7079 97.5031 21.5932 97.5072 21.91L97.5059 21.906ZM96.0712 17.481C93.1883 17.481 90.8521 19.4664 90.8521 21.9155C90.8521 24.3646 93.1897 26.35 96.0712 26.35C98.9541 26.35 101.29 24.3646 101.29 21.9155C101.29 19.4664 98.9541 17.481 96.0712 17.481ZM33.4811 16.4665V14.0392H37.0602V16.4665H33.4811ZM33.4892 25.9175V18.0195L37.0602 18.0209V25.9176L33.4892 25.9175ZM51.4053 25.9175L51.4067 18.0358H49.4649V16.8636L51.4081 16.8622L51.4054 15.263H54.9791V16.8609H56.9128V18.0358H54.9791L54.9818 25.9175L51.4053 25.9175ZM18.9564 25.9175L18.9578 14.0419H22.658L27.7765 22.3234L27.7737 14.0419H31.4454V25.9175H27.7792L22.6335 17.636V25.9175H18.9564Z" fill="white"/>
</g>
</g>
</g>
<defs>
<clipPath id="clip0_19350_105081">
<rect width="120" height="40" rx="5" fill="white"/>
</clipPath>
</defs>
</svg>
