<svg width="560" height="560" viewBox="0 0 560 560" fill="none" xmlns="http://www.w3.org/2000/svg">
<rect x="17.5" y="212.5" width="239" height="103" rx="11.5" fill="url(#paint0_linear_9689_5546)"/>
<rect x="17.5" y="212.5" width="239" height="103" rx="11.5" stroke="#DDDFE3"/>
<rect x="33" y="236" width="56" height="56" rx="28" fill="white"/>
<path d="M75.4853 249.517C75.1919 249.224 74.8256 249.014 74.4242 248.909C74.0228 248.805 73.6008 248.809 73.2016 248.922H73.1797L45.1884 257.415C44.7328 257.546 44.3279 257.813 44.0276 258.18C43.7273 258.547 43.546 258.996 43.5076 259.469C43.4693 259.942 43.5759 260.415 43.8131 260.825C44.0503 261.236 44.4069 261.564 44.8355 261.767L57.3218 267.68L63.2353 280.167C63.422 280.567 63.7192 280.905 64.0918 281.141C64.4645 281.378 64.8969 281.502 65.3382 281.501C65.4053 281.501 65.4724 281.498 65.5395 281.492C66.0104 281.454 66.4584 281.273 66.8233 280.973C67.1882 280.673 67.4527 280.268 67.5812 279.814L76.0687 251.822C76.0687 251.815 76.0687 251.808 76.0687 251.801C76.1829 251.402 76.1891 250.981 76.0865 250.58C75.984 250.178 75.7765 249.811 75.4853 249.517ZM65.3514 279.146L65.3441 279.166L59.6041 267.049L66.4932 260.158C66.7028 259.938 66.8179 259.644 66.814 259.34C66.8101 259.036 66.6875 258.745 66.4724 258.53C66.2572 258.315 65.9666 258.192 65.6624 258.188C65.3581 258.184 65.0644 258.299 64.8439 258.509L57.9532 265.398L45.8345 259.658H45.8549L73.8345 251.168L65.3514 279.146Z" fill="url(#paint1_linear_9689_5546)"/>
<path d="M121.918 261.656H118.185C118.116 261.173 117.977 260.744 117.767 260.369C117.557 259.989 117.287 259.665 116.957 259.398C116.628 259.131 116.247 258.926 115.815 258.784C115.389 258.642 114.926 258.571 114.426 258.571C113.523 258.571 112.736 258.795 112.065 259.244C111.395 259.687 110.875 260.335 110.506 261.187C110.136 262.034 109.952 263.062 109.952 264.273C109.952 265.517 110.136 266.562 110.506 267.409C110.881 268.256 111.403 268.895 112.074 269.327C112.744 269.759 113.52 269.974 114.401 269.974C114.895 269.974 115.352 269.909 115.773 269.778C116.199 269.648 116.577 269.457 116.906 269.207C117.236 268.952 117.509 268.642 117.724 268.278C117.946 267.915 118.099 267.5 118.185 267.034L121.918 267.051C121.821 267.852 121.58 268.625 121.193 269.369C120.812 270.108 120.298 270.77 119.651 271.355C119.009 271.935 118.241 272.395 117.349 272.736C116.463 273.071 115.46 273.239 114.341 273.239C112.784 273.239 111.392 272.886 110.165 272.182C108.943 271.477 107.977 270.457 107.267 269.122C106.562 267.787 106.21 266.17 106.21 264.273C106.21 262.369 106.568 260.75 107.284 259.415C108 258.08 108.972 257.062 110.199 256.364C111.426 255.659 112.807 255.307 114.341 255.307C115.352 255.307 116.29 255.449 117.153 255.733C118.023 256.017 118.793 256.432 119.463 256.977C120.134 257.517 120.679 258.179 121.099 258.963C121.526 259.747 121.798 260.645 121.918 261.656ZM124.496 273V259.909H128.016V262.193H128.152C128.391 261.381 128.791 260.767 129.354 260.352C129.916 259.932 130.564 259.722 131.297 259.722C131.479 259.722 131.675 259.733 131.885 259.756C132.095 259.778 132.28 259.81 132.439 259.849V263.071C132.268 263.02 132.033 262.974 131.732 262.935C131.43 262.895 131.155 262.875 130.905 262.875C130.371 262.875 129.893 262.991 129.473 263.224C129.058 263.452 128.729 263.77 128.484 264.179C128.246 264.588 128.126 265.06 128.126 265.594V273H124.496ZM136.956 277.909C136.496 277.909 136.064 277.872 135.661 277.798C135.263 277.73 134.933 277.642 134.672 277.534L135.49 274.824C135.916 274.955 136.3 275.026 136.641 275.037C136.987 275.048 137.286 274.969 137.536 274.798C137.791 274.628 137.999 274.338 138.158 273.929L138.371 273.375L133.675 259.909H137.493L140.203 269.523H140.339L143.075 259.909H146.919L141.831 274.415C141.587 275.119 141.254 275.733 140.834 276.256C140.419 276.784 139.893 277.19 139.257 277.474C138.621 277.764 137.854 277.909 136.956 277.909ZM148.777 277.909V259.909H152.357V262.108H152.518C152.678 261.756 152.908 261.398 153.209 261.034C153.516 260.665 153.913 260.358 154.402 260.114C154.896 259.864 155.51 259.739 156.243 259.739C157.197 259.739 158.078 259.989 158.885 260.489C159.692 260.983 160.337 261.73 160.82 262.73C161.303 263.724 161.544 264.972 161.544 266.472C161.544 267.932 161.308 269.165 160.837 270.17C160.371 271.17 159.734 271.929 158.928 272.446C158.126 272.957 157.229 273.213 156.234 273.213C155.53 273.213 154.93 273.097 154.436 272.864C153.947 272.631 153.547 272.338 153.234 271.986C152.922 271.628 152.683 271.267 152.518 270.903H152.408V277.909H148.777ZM152.331 266.455C152.331 267.233 152.439 267.912 152.655 268.491C152.871 269.071 153.183 269.523 153.592 269.847C154.001 270.165 154.499 270.324 155.084 270.324C155.675 270.324 156.175 270.162 156.584 269.838C156.993 269.509 157.303 269.054 157.513 268.474C157.729 267.889 157.837 267.216 157.837 266.455C157.837 265.699 157.732 265.034 157.521 264.46C157.311 263.886 157.001 263.437 156.592 263.114C156.183 262.79 155.68 262.628 155.084 262.628C154.493 262.628 153.993 262.784 153.584 263.097C153.18 263.409 152.871 263.852 152.655 264.426C152.439 265 152.331 265.676 152.331 266.455ZM170.928 259.909V262.636H163.044V259.909H170.928ZM164.834 256.773H168.464V268.977C168.464 269.312 168.516 269.574 168.618 269.761C168.72 269.943 168.862 270.071 169.044 270.145C169.232 270.219 169.447 270.256 169.692 270.256C169.862 270.256 170.033 270.241 170.203 270.213C170.374 270.179 170.504 270.153 170.595 270.136L171.166 272.838C170.984 272.895 170.729 272.96 170.399 273.034C170.07 273.114 169.669 273.162 169.197 273.179C168.322 273.213 167.555 273.097 166.896 272.83C166.243 272.562 165.734 272.148 165.371 271.585C165.007 271.023 164.828 270.312 164.834 269.455V256.773ZM179.067 273.256C177.743 273.256 176.598 272.974 175.632 272.412C174.672 271.844 173.93 271.054 173.408 270.043C172.885 269.026 172.624 267.847 172.624 266.506C172.624 265.153 172.885 263.972 173.408 262.96C173.93 261.943 174.672 261.153 175.632 260.591C176.598 260.023 177.743 259.739 179.067 259.739C180.391 259.739 181.533 260.023 182.493 260.591C183.459 261.153 184.203 261.943 184.726 262.96C185.249 263.972 185.51 265.153 185.51 266.506C185.51 267.847 185.249 269.026 184.726 270.043C184.203 271.054 183.459 271.844 182.493 272.412C181.533 272.974 180.391 273.256 179.067 273.256ZM179.084 270.443C179.686 270.443 180.189 270.273 180.592 269.932C180.996 269.585 181.3 269.114 181.504 268.517C181.714 267.92 181.82 267.241 181.82 266.48C181.82 265.719 181.714 265.04 181.504 264.443C181.3 263.847 180.996 263.375 180.592 263.028C180.189 262.682 179.686 262.509 179.084 262.509C178.476 262.509 177.964 262.682 177.55 263.028C177.141 263.375 176.831 263.847 176.621 264.443C176.416 265.04 176.314 265.719 176.314 266.48C176.314 267.241 176.416 267.92 176.621 268.517C176.831 269.114 177.141 269.585 177.55 269.932C177.964 270.273 178.476 270.443 179.084 270.443Z" fill="white"/>
<rect x="275.5" y="212.5" width="239" height="103" rx="11.5" fill="url(#paint2_linear_9689_5546)"/>
<rect x="275.5" y="212.5" width="239" height="103" rx="11.5" stroke="#DDDFE3"/>
<rect x="291" y="236" width="56" height="56" rx="28" fill="white"/>
<path d="M333.485 249.517C333.192 249.224 332.826 249.014 332.424 248.909C332.023 248.805 331.601 248.809 331.202 248.922H331.18L303.188 257.415C302.733 257.546 302.328 257.813 302.028 258.18C301.727 258.547 301.546 258.996 301.508 259.469C301.469 259.942 301.576 260.415 301.813 260.825C302.05 261.236 302.407 261.564 302.836 261.767L315.322 267.68L321.235 280.167C321.422 280.567 321.719 280.905 322.092 281.141C322.464 281.378 322.897 281.502 323.338 281.501C323.405 281.501 323.472 281.498 323.539 281.492C324.01 281.454 324.458 281.273 324.823 280.973C325.188 280.673 325.453 280.268 325.581 279.814L334.069 251.822C334.069 251.815 334.069 251.808 334.069 251.801C334.183 251.402 334.189 250.981 334.087 250.58C333.984 250.178 333.777 249.811 333.485 249.517ZM323.351 279.146L323.344 279.166L317.604 267.049L324.493 260.158C324.703 259.938 324.818 259.644 324.814 259.34C324.81 259.036 324.688 258.745 324.472 258.53C324.257 258.315 323.967 258.192 323.662 258.188C323.358 258.184 323.064 258.299 322.844 258.509L315.953 265.398L303.834 259.658H303.855L331.834 251.168L323.351 279.146Z" fill="url(#paint3_linear_9689_5546)"/>
<path d="M373.986 260.565C373.918 259.878 373.625 259.344 373.108 258.963C372.591 258.582 371.889 258.392 371.003 258.392C370.401 258.392 369.892 258.477 369.477 258.648C369.063 258.812 368.744 259.043 368.523 259.338C368.307 259.634 368.199 259.969 368.199 260.344C368.188 260.656 368.253 260.929 368.395 261.162C368.543 261.395 368.744 261.597 369 261.767C369.256 261.932 369.551 262.077 369.886 262.202C370.222 262.321 370.58 262.423 370.96 262.509L372.528 262.884C373.29 263.054 373.989 263.281 374.625 263.565C375.261 263.849 375.813 264.199 376.278 264.614C376.744 265.028 377.105 265.517 377.361 266.08C377.622 266.642 377.756 267.287 377.761 268.014C377.756 269.082 377.483 270.009 376.943 270.793C376.409 271.571 375.636 272.176 374.625 272.608C373.619 273.034 372.406 273.247 370.986 273.247C369.577 273.247 368.349 273.031 367.304 272.599C366.264 272.168 365.452 271.528 364.866 270.682C364.287 269.83 363.983 268.776 363.955 267.52H367.526C367.565 268.105 367.733 268.594 368.028 268.986C368.33 269.372 368.73 269.665 369.23 269.864C369.736 270.057 370.307 270.153 370.943 270.153C371.568 270.153 372.111 270.062 372.571 269.881C373.037 269.699 373.398 269.446 373.653 269.122C373.909 268.798 374.037 268.426 374.037 268.006C374.037 267.614 373.92 267.284 373.688 267.017C373.46 266.75 373.125 266.523 372.682 266.335C372.244 266.148 371.707 265.977 371.071 265.824L369.17 265.347C367.699 264.989 366.537 264.429 365.685 263.668C364.832 262.906 364.409 261.881 364.415 260.591C364.409 259.534 364.69 258.611 365.259 257.821C365.832 257.031 366.619 256.415 367.619 255.972C368.619 255.528 369.756 255.307 371.028 255.307C372.324 255.307 373.455 255.528 374.42 255.972C375.392 256.415 376.148 257.031 376.688 257.821C377.227 258.611 377.506 259.526 377.523 260.565H373.986ZM380.244 273V255.545H392.005V258.588H383.934V262.747H391.4V265.79H383.934V269.957H392.039V273H380.244ZM394.939 273V255.545H401.825C403.149 255.545 404.277 255.798 405.209 256.304C406.141 256.804 406.851 257.5 407.339 258.392C407.834 259.278 408.081 260.301 408.081 261.46C408.081 262.619 407.831 263.642 407.331 264.528C406.831 265.415 406.107 266.105 405.158 266.599C404.214 267.094 403.072 267.341 401.732 267.341H397.342V264.384H401.135C401.845 264.384 402.43 264.261 402.891 264.017C403.357 263.767 403.703 263.423 403.93 262.986C404.163 262.543 404.28 262.034 404.28 261.46C404.28 260.881 404.163 260.375 403.93 259.943C403.703 259.506 403.357 259.168 402.891 258.929C402.425 258.685 401.834 258.562 401.118 258.562H398.629V273H394.939ZM411.471 273H407.516L413.542 255.545H418.298L424.315 273H420.36L415.988 259.534H415.852L411.471 273ZM411.224 266.139H420.565V269.02H411.224V266.139Z" fill="white"/>
<rect x="275.723" y="90.5" width="239" height="103" rx="11.5" fill="url(#paint4_linear_9689_5546)"/>
<rect x="275.723" y="90.5" width="239" height="103" rx="11.5" stroke="#DDDFE3"/>
<rect x="291.223" y="114" width="56" height="56" rx="28" fill="white"/>
<path d="M335.22 138.843L323.553 127.176C323.39 127.013 323.182 126.902 322.956 126.857C322.73 126.811 322.495 126.834 322.282 126.923C322.069 127.011 321.886 127.16 321.758 127.352C321.63 127.544 321.561 127.769 321.561 128V133.884C317.778 134.208 313.6 136.06 310.163 138.976C306.024 142.487 303.447 147.012 302.906 151.717C302.864 152.083 302.938 152.453 303.118 152.774C303.298 153.095 303.575 153.351 303.909 153.506C304.243 153.661 304.617 153.706 304.979 153.636C305.34 153.565 305.67 153.383 305.922 153.114C307.526 151.406 313.234 146.006 321.561 145.531V151.333C321.561 151.564 321.63 151.79 321.758 151.982C321.886 152.173 322.069 152.323 322.282 152.411C322.495 152.499 322.73 152.522 322.956 152.477C323.182 152.432 323.39 152.321 323.553 152.157L335.22 140.491C335.438 140.272 335.561 139.976 335.561 139.667C335.561 139.358 335.438 139.062 335.22 138.843ZM323.894 148.517V144.333C323.894 144.024 323.772 143.727 323.553 143.508C323.334 143.29 323.037 143.167 322.728 143.167C318.633 143.167 314.644 144.236 310.873 146.346C308.952 147.425 307.163 148.723 305.54 150.213C306.386 146.737 308.518 143.431 311.672 140.755C315.058 137.883 319.191 136.167 322.728 136.167C323.037 136.167 323.334 136.044 323.553 135.825C323.772 135.606 323.894 135.31 323.894 135V130.818L332.745 139.667L323.894 148.517Z" fill="url(#paint5_linear_9689_5546)"/>
<path d="M364.075 136.588V133.545H378.41V136.588H373.066V151H369.419V136.588H364.075ZM379.343 151V137.909H382.863V140.193H383C383.238 139.381 383.639 138.767 384.201 138.352C384.764 137.932 385.412 137.722 386.145 137.722C386.326 137.722 386.522 137.733 386.733 137.756C386.943 137.778 387.127 137.81 387.287 137.849V141.071C387.116 141.02 386.88 140.974 386.579 140.935C386.278 140.895 386.002 140.875 385.752 140.875C385.218 140.875 384.741 140.991 384.321 141.224C383.906 141.452 383.576 141.77 383.332 142.179C383.093 142.588 382.974 143.06 382.974 143.594V151H379.343ZM392.522 151.247C391.686 151.247 390.942 151.102 390.289 150.812C389.635 150.517 389.118 150.082 388.738 149.509C388.363 148.929 388.175 148.207 388.175 147.344C388.175 146.616 388.309 146.006 388.576 145.511C388.843 145.017 389.206 144.619 389.667 144.318C390.127 144.017 390.65 143.79 391.235 143.636C391.826 143.483 392.445 143.375 393.093 143.312C393.854 143.233 394.468 143.159 394.934 143.091C395.4 143.017 395.738 142.909 395.948 142.767C396.158 142.625 396.263 142.415 396.263 142.136V142.085C396.263 141.545 396.093 141.128 395.752 140.832C395.417 140.537 394.939 140.389 394.32 140.389C393.667 140.389 393.147 140.534 392.76 140.824C392.374 141.108 392.118 141.466 391.993 141.898L388.635 141.625C388.806 140.83 389.141 140.142 389.641 139.562C390.141 138.977 390.786 138.528 391.576 138.216C392.371 137.898 393.292 137.739 394.337 137.739C395.064 137.739 395.76 137.824 396.425 137.994C397.096 138.165 397.689 138.429 398.206 138.787C398.729 139.145 399.141 139.605 399.442 140.168C399.743 140.724 399.894 141.392 399.894 142.17V151H396.451V149.185H396.348C396.138 149.594 395.857 149.955 395.505 150.267C395.152 150.574 394.729 150.815 394.235 150.991C393.74 151.162 393.169 151.247 392.522 151.247ZM393.561 148.741C394.096 148.741 394.567 148.636 394.976 148.426C395.385 148.21 395.706 147.92 395.939 147.557C396.172 147.193 396.289 146.781 396.289 146.321V144.932C396.175 145.006 396.019 145.074 395.82 145.136C395.627 145.193 395.408 145.247 395.164 145.298C394.919 145.344 394.675 145.386 394.431 145.426C394.186 145.46 393.965 145.491 393.766 145.52C393.34 145.582 392.968 145.682 392.65 145.818C392.331 145.955 392.084 146.139 391.908 146.372C391.732 146.599 391.644 146.884 391.644 147.224C391.644 147.719 391.823 148.097 392.181 148.358C392.544 148.614 393.005 148.741 393.561 148.741ZM406.341 143.432V151H402.711V137.909H406.171V140.219H406.324C406.614 139.457 407.1 138.855 407.782 138.412C408.463 137.963 409.29 137.739 410.262 137.739C411.171 137.739 411.963 137.937 412.64 138.335C413.316 138.733 413.841 139.301 414.216 140.04C414.591 140.773 414.779 141.648 414.779 142.665V151H411.148V143.312C411.154 142.511 410.949 141.886 410.534 141.437C410.12 140.983 409.549 140.756 408.821 140.756C408.333 140.756 407.901 140.861 407.526 141.071C407.157 141.281 406.867 141.588 406.657 141.991C406.452 142.389 406.347 142.869 406.341 143.432ZM428.532 141.642L425.208 141.847C425.152 141.562 425.029 141.307 424.842 141.08C424.654 140.847 424.407 140.662 424.1 140.526C423.799 140.384 423.439 140.312 423.018 140.312C422.456 140.312 421.981 140.432 421.595 140.67C421.208 140.903 421.015 141.216 421.015 141.608C421.015 141.92 421.14 142.185 421.39 142.401C421.64 142.616 422.069 142.79 422.677 142.92L425.047 143.398C426.319 143.659 427.268 144.08 427.893 144.659C428.518 145.239 428.831 146 428.831 146.943C428.831 147.801 428.578 148.554 428.072 149.202C427.572 149.849 426.885 150.355 426.01 150.719C425.14 151.077 424.137 151.256 423.001 151.256C421.268 151.256 419.887 150.895 418.859 150.173C417.836 149.446 417.237 148.457 417.061 147.207L420.632 147.02C420.74 147.548 421.001 147.952 421.416 148.23C421.831 148.503 422.362 148.639 423.01 148.639C423.646 148.639 424.157 148.517 424.544 148.273C424.936 148.023 425.135 147.702 425.14 147.31C425.135 146.98 424.995 146.71 424.723 146.5C424.45 146.284 424.029 146.119 423.461 146.006L421.194 145.554C419.916 145.298 418.964 144.855 418.339 144.224C417.72 143.594 417.41 142.79 417.41 141.812C417.41 140.972 417.637 140.247 418.092 139.639C418.552 139.031 419.197 138.562 420.027 138.233C420.862 137.903 421.839 137.739 422.958 137.739C424.612 137.739 425.913 138.088 426.862 138.787C427.816 139.486 428.373 140.437 428.532 141.642ZM438.157 137.909V140.636H430.077V137.909H438.157ZM431.926 151V136.963C431.926 136.014 432.111 135.227 432.48 134.602C432.855 133.977 433.367 133.509 434.015 133.196C434.662 132.884 435.398 132.727 436.222 132.727C436.779 132.727 437.287 132.77 437.748 132.855C438.213 132.94 438.56 133.017 438.787 133.085L438.14 135.812C437.998 135.767 437.821 135.724 437.611 135.685C437.407 135.645 437.196 135.625 436.98 135.625C436.446 135.625 436.074 135.75 435.864 136C435.654 136.244 435.549 136.588 435.549 137.031V151H431.926ZM445.872 151.256C444.525 151.256 443.366 150.983 442.395 150.437C441.429 149.886 440.684 149.108 440.162 148.102C439.639 147.091 439.377 145.895 439.377 144.514C439.377 143.168 439.639 141.986 440.162 140.969C440.684 139.952 441.42 139.159 442.369 138.591C443.324 138.023 444.443 137.739 445.727 137.739C446.591 137.739 447.395 137.878 448.139 138.156C448.889 138.429 449.542 138.841 450.099 139.392C450.662 139.943 451.099 140.636 451.412 141.472C451.724 142.301 451.88 143.273 451.88 144.386V145.384H440.826V143.134H448.463C448.463 142.611 448.349 142.148 448.122 141.744C447.895 141.341 447.579 141.026 447.176 140.798C446.778 140.565 446.315 140.449 445.787 140.449C445.235 140.449 444.747 140.577 444.321 140.832C443.9 141.082 443.571 141.42 443.332 141.847C443.093 142.267 442.971 142.736 442.966 143.253V145.392C442.966 146.04 443.085 146.599 443.324 147.071C443.568 147.543 443.912 147.906 444.355 148.162C444.798 148.418 445.324 148.545 445.931 148.545C446.335 148.545 446.704 148.489 447.039 148.375C447.375 148.261 447.662 148.091 447.9 147.864C448.139 147.636 448.321 147.358 448.446 147.028L451.804 147.25C451.633 148.057 451.284 148.761 450.755 149.364C450.233 149.96 449.556 150.426 448.727 150.761C447.903 151.091 446.951 151.256 445.872 151.256ZM454.25 151V137.909H457.77V140.193H457.906C458.145 139.381 458.545 138.767 459.108 138.352C459.67 137.932 460.318 137.722 461.051 137.722C461.233 137.722 461.429 137.733 461.639 137.756C461.849 137.778 462.034 137.81 462.193 137.849V141.071C462.022 141.02 461.787 140.974 461.485 140.935C461.184 140.895 460.909 140.875 460.659 140.875C460.125 140.875 459.647 140.991 459.227 141.224C458.812 141.452 458.483 141.77 458.238 142.179C458 142.588 457.88 143.06 457.88 143.594V151H454.25ZM474.962 141.642L471.638 141.847C471.581 141.562 471.459 141.307 471.272 141.08C471.084 140.847 470.837 140.662 470.53 140.526C470.229 140.384 469.868 140.312 469.448 140.312C468.885 140.312 468.411 140.432 468.024 140.67C467.638 140.903 467.445 141.216 467.445 141.608C467.445 141.92 467.57 142.185 467.82 142.401C468.07 142.616 468.499 142.79 469.107 142.92L471.476 143.398C472.749 143.659 473.698 144.08 474.323 144.659C474.948 145.239 475.26 146 475.26 146.943C475.26 147.801 475.007 148.554 474.502 149.202C474.002 149.849 473.314 150.355 472.439 150.719C471.57 151.077 470.567 151.256 469.431 151.256C467.698 151.256 466.317 150.895 465.289 150.173C464.266 149.446 463.667 148.457 463.49 147.207L467.061 147.02C467.169 147.548 467.431 147.952 467.846 148.23C468.26 148.503 468.792 148.639 469.439 148.639C470.076 148.639 470.587 148.517 470.973 148.273C471.365 148.023 471.564 147.702 471.57 147.31C471.564 146.98 471.425 146.71 471.152 146.5C470.88 146.284 470.459 146.119 469.891 146.006L467.624 145.554C466.346 145.298 465.394 144.855 464.769 144.224C464.149 143.594 463.84 142.79 463.84 141.812C463.84 140.972 464.067 140.247 464.522 139.639C464.982 139.031 465.627 138.562 466.456 138.233C467.292 137.903 468.269 137.739 469.388 137.739C471.042 137.739 472.343 138.088 473.292 138.787C474.246 139.486 474.803 140.437 474.962 141.642Z" fill="white"/>
<rect x="17.7227" y="90.0684" width="239" height="103" rx="11.5" fill="url(#paint6_linear_9689_5546)"/>
<rect x="17.7227" y="90.0684" width="239" height="103" rx="11.5" stroke="#DDDFE3"/>
<rect x="33.2227" y="113.568" width="56" height="56" rx="28" fill="white"/>
<path d="M77.2199 138.411L65.5532 126.745C65.3901 126.581 65.1823 126.47 64.956 126.425C64.7297 126.38 64.4951 126.403 64.2819 126.491C64.0686 126.579 63.8863 126.729 63.758 126.92C63.6297 127.112 63.5612 127.338 63.5611 127.568V133.453C59.7782 133.777 55.6001 135.629 52.1628 138.544C48.024 142.056 45.4472 146.581 44.9061 151.285C44.8638 151.651 44.938 152.021 45.118 152.342C45.2981 152.663 45.5749 152.919 45.9089 153.074C46.243 153.229 46.6174 153.274 46.9788 153.204C47.3403 153.134 47.6703 152.951 47.9219 152.682C49.5261 150.975 55.234 145.575 63.5611 145.099V150.902C63.5612 151.133 63.6297 151.358 63.758 151.55C63.8863 151.742 64.0686 151.891 64.2819 151.979C64.4951 152.068 64.7297 152.091 64.956 152.045C65.1823 152 65.3901 151.889 65.5532 151.726L77.2199 140.059C77.438 139.84 77.5606 139.544 77.5606 139.235C77.5606 138.926 77.438 138.63 77.2199 138.411ZM65.8944 148.086V143.902C65.8944 143.592 65.7715 143.296 65.5527 143.077C65.3339 142.858 65.0372 142.735 64.7278 142.735C60.6328 142.735 56.6442 143.804 52.873 145.914C50.9523 146.994 49.1627 148.292 47.5399 149.782C48.3857 146.305 50.5178 142.999 53.6722 140.323C57.0584 137.452 61.1913 135.735 64.7278 135.735C65.0372 135.735 65.3339 135.612 65.5527 135.393C65.7715 135.175 65.8944 134.878 65.8944 134.568V130.386L74.7451 139.235L65.8944 148.086Z" fill="url(#paint7_linear_9689_5546)"/>
<path d="M110.43 133.114V150.568H106.74V133.114H110.43ZM113.466 150.568V133.114H120.455C121.739 133.114 122.81 133.304 123.668 133.685C124.526 134.066 125.171 134.594 125.603 135.27C126.034 135.941 126.25 136.713 126.25 137.588C126.25 138.27 126.114 138.869 125.841 139.387C125.569 139.898 125.194 140.318 124.716 140.648C124.245 140.972 123.705 141.202 123.097 141.338V141.509C123.762 141.537 124.384 141.725 124.963 142.071C125.549 142.418 126.023 142.904 126.387 143.529C126.75 144.148 126.932 144.887 126.932 145.744C126.932 146.671 126.702 147.497 126.242 148.225C125.787 148.946 125.114 149.517 124.222 149.938C123.33 150.358 122.23 150.568 120.924 150.568H113.466ZM117.157 147.551H120.165C121.194 147.551 121.944 147.355 122.415 146.963C122.887 146.566 123.123 146.037 123.123 145.378C123.123 144.895 123.006 144.469 122.773 144.1C122.54 143.73 122.208 143.441 121.776 143.23C121.35 143.02 120.841 142.915 120.25 142.915H117.157V147.551ZM117.157 140.418H119.892C120.398 140.418 120.847 140.33 121.239 140.154C121.637 139.972 121.949 139.716 122.176 139.387C122.409 139.057 122.526 138.662 122.526 138.202C122.526 137.571 122.301 137.063 121.853 136.676C121.409 136.29 120.779 136.097 119.961 136.097H117.157V140.418ZM132.342 150.568H128.387L134.413 133.114H139.169L145.186 150.568H141.231L136.859 137.102H136.723L132.342 150.568ZM132.095 143.708H141.436V146.588H132.095V143.708ZM161.886 133.114V150.568H158.699L151.105 139.583H150.977V150.568H147.287V133.114H150.525L158.059 144.091H158.213V133.114H161.886Z" fill="white"/>
<rect x="17.5" y="334.5" width="239" height="103" rx="11.5" fill="url(#paint8_linear_9689_5546)"/>
<rect x="17.5" y="334.5" width="239" height="103" rx="11.5" stroke="#DDDFE3"/>
<rect x="33" y="358" width="56" height="56" rx="28" fill="white"/>
<path d="M75.4853 371.517C75.1919 371.224 74.8256 371.014 74.4242 370.909C74.0228 370.805 73.6008 370.809 73.2016 370.922H73.1797L45.1884 379.415C44.7328 379.546 44.3279 379.813 44.0276 380.18C43.7273 380.547 43.546 380.996 43.5076 381.469C43.4693 381.942 43.5759 382.415 43.8131 382.825C44.0503 383.236 44.4069 383.564 44.8355 383.767L57.3218 389.68L63.2353 402.167C63.422 402.567 63.7192 402.905 64.0918 403.141C64.4645 403.378 64.8969 403.502 65.3382 403.501C65.4053 403.501 65.4724 403.498 65.5395 403.492C66.0104 403.454 66.4584 403.273 66.8233 402.973C67.1882 402.673 67.4527 402.268 67.5812 401.814L76.0687 373.822C76.0687 373.815 76.0687 373.808 76.0687 373.801C76.1829 373.402 76.1891 372.981 76.0866 372.58C75.984 372.178 75.7765 371.811 75.4853 371.517ZM65.3514 401.146L65.3441 401.166L59.6041 389.049L66.4932 382.158C66.7028 381.938 66.8179 381.644 66.814 381.34C66.8101 381.036 66.6875 380.745 66.4724 380.53C66.2572 380.315 65.9666 380.192 65.6624 380.188C65.3581 380.184 65.0644 380.299 64.8439 380.509L57.9532 387.398L45.8345 381.658H45.8549L73.8345 373.168L65.3514 401.146Z" fill="url(#paint9_linear_9689_5546)"/>
<path d="M122.557 386.273C122.557 388.176 122.196 389.795 121.474 391.131C120.759 392.466 119.781 393.486 118.543 394.19C117.31 394.889 115.923 395.239 114.384 395.239C112.832 395.239 111.44 394.886 110.207 394.182C108.974 393.477 108 392.457 107.284 391.122C106.568 389.787 106.21 388.17 106.21 386.273C106.21 384.369 106.568 382.75 107.284 381.415C108 380.08 108.974 379.062 110.207 378.364C111.44 377.659 112.832 377.307 114.384 377.307C115.923 377.307 117.31 377.659 118.543 378.364C119.781 379.062 120.759 380.08 121.474 381.415C122.196 382.75 122.557 384.369 122.557 386.273ZM118.815 386.273C118.815 385.04 118.631 384 118.261 383.153C117.898 382.307 117.384 381.665 116.719 381.227C116.054 380.79 115.276 380.571 114.384 380.571C113.491 380.571 112.713 380.79 112.048 381.227C111.384 381.665 110.866 382.307 110.497 383.153C110.134 384 109.952 385.04 109.952 386.273C109.952 387.506 110.134 388.545 110.497 389.392C110.866 390.239 111.384 390.881 112.048 391.318C112.713 391.756 113.491 391.974 114.384 391.974C115.276 391.974 116.054 391.756 116.719 391.318C117.384 390.881 117.898 390.239 118.261 389.392C118.631 388.545 118.815 387.506 118.815 386.273ZM128.853 387.432V395H125.222V381.909H128.683V384.219H128.836C129.126 383.457 129.612 382.855 130.293 382.412C130.975 381.963 131.802 381.739 132.773 381.739C133.683 381.739 134.475 381.938 135.151 382.335C135.827 382.733 136.353 383.301 136.728 384.04C137.103 384.773 137.29 385.648 137.29 386.665V395H133.66V387.312C133.665 386.511 133.461 385.886 133.046 385.438C132.631 384.983 132.06 384.756 131.333 384.756C130.844 384.756 130.413 384.861 130.038 385.071C129.668 385.281 129.379 385.588 129.168 385.991C128.964 386.389 128.859 386.869 128.853 387.432ZM147.754 376.727L142.129 397.625H139.001L144.626 376.727H147.754ZM155.418 395.256C154.094 395.256 152.95 394.974 151.984 394.412C151.023 393.844 150.282 393.054 149.759 392.043C149.237 391.026 148.975 389.847 148.975 388.506C148.975 387.153 149.237 385.972 149.759 384.96C150.282 383.943 151.023 383.153 151.984 382.591C152.95 382.023 154.094 381.739 155.418 381.739C156.742 381.739 157.884 382.023 158.844 382.591C159.81 383.153 160.555 383.943 161.077 384.96C161.6 385.972 161.862 387.153 161.862 388.506C161.862 389.847 161.6 391.026 161.077 392.043C160.555 393.054 159.81 393.844 158.844 394.412C157.884 394.974 156.742 395.256 155.418 395.256ZM155.435 392.443C156.038 392.443 156.54 392.273 156.944 391.932C157.347 391.585 157.651 391.114 157.856 390.517C158.066 389.92 158.171 389.241 158.171 388.48C158.171 387.719 158.066 387.04 157.856 386.443C157.651 385.847 157.347 385.375 156.944 385.028C156.54 384.682 156.038 384.509 155.435 384.509C154.827 384.509 154.316 384.682 153.901 385.028C153.492 385.375 153.183 385.847 152.972 386.443C152.768 387.04 152.665 387.719 152.665 388.48C152.665 389.241 152.768 389.92 152.972 390.517C153.183 391.114 153.492 391.585 153.901 391.932C154.316 392.273 154.827 392.443 155.435 392.443ZM171.262 381.909V384.636H163.183V381.909H171.262ZM165.032 395V380.963C165.032 380.014 165.217 379.227 165.586 378.602C165.961 377.977 166.472 377.509 167.12 377.196C167.768 376.884 168.504 376.727 169.327 376.727C169.884 376.727 170.393 376.77 170.853 376.855C171.319 376.94 171.665 377.017 171.893 377.085L171.245 379.812C171.103 379.767 170.927 379.724 170.717 379.685C170.512 379.645 170.302 379.625 170.086 379.625C169.552 379.625 169.18 379.75 168.969 380C168.759 380.244 168.654 380.588 168.654 381.031V395H165.032ZM180.52 381.909V384.636H172.44V381.909H180.52ZM174.29 395V380.963C174.29 380.014 174.474 379.227 174.844 378.602C175.219 377.977 175.73 377.509 176.378 377.196C177.026 376.884 177.761 376.727 178.585 376.727C179.142 376.727 179.651 376.77 180.111 376.855C180.577 376.94 180.923 377.017 181.151 377.085L180.503 379.812C180.361 379.767 180.185 379.724 179.974 379.685C179.77 379.645 179.56 379.625 179.344 379.625C178.81 379.625 178.438 379.75 178.227 380C178.017 380.244 177.912 380.588 177.912 381.031V395H174.29ZM188.293 395V381.909H191.812V384.193H191.949C192.188 383.381 192.588 382.767 193.151 382.352C193.713 381.932 194.361 381.722 195.094 381.722C195.276 381.722 195.472 381.733 195.682 381.756C195.892 381.778 196.077 381.81 196.236 381.849V385.071C196.065 385.02 195.83 384.974 195.528 384.935C195.227 384.895 194.952 384.875 194.702 384.875C194.168 384.875 193.69 384.991 193.27 385.224C192.855 385.452 192.526 385.77 192.281 386.179C192.043 386.588 191.923 387.06 191.923 387.594V395H188.293ZM201.471 395.247C200.636 395.247 199.891 395.102 199.238 394.812C198.585 394.517 198.067 394.082 197.687 393.509C197.312 392.929 197.124 392.207 197.124 391.344C197.124 390.616 197.258 390.006 197.525 389.511C197.792 389.017 198.156 388.619 198.616 388.318C199.076 388.017 199.599 387.79 200.184 387.636C200.775 387.483 201.394 387.375 202.042 387.312C202.803 387.233 203.417 387.159 203.883 387.091C204.349 387.017 204.687 386.909 204.897 386.767C205.107 386.625 205.212 386.415 205.212 386.136V386.085C205.212 385.545 205.042 385.128 204.701 384.832C204.366 384.537 203.888 384.389 203.269 384.389C202.616 384.389 202.096 384.534 201.71 384.824C201.323 385.108 201.067 385.466 200.942 385.898L197.585 385.625C197.755 384.83 198.09 384.142 198.59 383.562C199.09 382.977 199.735 382.528 200.525 382.216C201.32 381.898 202.241 381.739 203.286 381.739C204.013 381.739 204.71 381.824 205.374 381.994C206.045 382.165 206.638 382.429 207.156 382.787C207.678 383.145 208.09 383.605 208.391 384.168C208.692 384.724 208.843 385.392 208.843 386.17V395H205.4V393.185H205.298C205.087 393.594 204.806 393.955 204.454 394.267C204.102 394.574 203.678 394.815 203.184 394.991C202.69 395.162 202.119 395.247 201.471 395.247ZM202.511 392.741C203.045 392.741 203.516 392.636 203.925 392.426C204.335 392.21 204.656 391.92 204.888 391.557C205.121 391.193 205.238 390.781 205.238 390.321V388.932C205.124 389.006 204.968 389.074 204.769 389.136C204.576 389.193 204.357 389.247 204.113 389.298C203.869 389.344 203.624 389.386 203.38 389.426C203.136 389.46 202.914 389.491 202.715 389.52C202.289 389.582 201.917 389.682 201.599 389.818C201.281 389.955 201.033 390.139 200.857 390.372C200.681 390.599 200.593 390.884 200.593 391.224C200.593 391.719 200.772 392.097 201.13 392.358C201.494 392.614 201.954 392.741 202.511 392.741ZM211.66 395V381.909H215.12V384.219H215.273C215.546 383.452 216.001 382.847 216.637 382.403C217.273 381.96 218.035 381.739 218.921 381.739C219.819 381.739 220.583 381.963 221.214 382.412C221.844 382.855 222.265 383.457 222.475 384.219H222.612C222.879 383.469 223.362 382.869 224.06 382.42C224.765 381.966 225.597 381.739 226.558 381.739C227.779 381.739 228.771 382.128 229.532 382.906C230.299 383.679 230.683 384.776 230.683 386.196V395H227.06V386.912C227.06 386.185 226.867 385.639 226.481 385.276C226.094 384.912 225.612 384.73 225.032 384.73C224.373 384.73 223.859 384.94 223.489 385.361C223.12 385.776 222.935 386.324 222.935 387.006V395H219.415V386.835C219.415 386.193 219.231 385.682 218.862 385.301C218.498 384.92 218.018 384.73 217.421 384.73C217.018 384.73 216.654 384.832 216.33 385.037C216.012 385.236 215.759 385.517 215.572 385.881C215.384 386.239 215.29 386.659 215.29 387.142V395H211.66ZM233.55 399.909V381.909H237.13V384.108H237.292C237.451 383.756 237.681 383.398 237.982 383.034C238.289 382.665 238.687 382.358 239.175 382.114C239.67 381.864 240.283 381.739 241.016 381.739C241.971 381.739 242.852 381.989 243.658 382.489C244.465 382.983 245.11 383.73 245.593 384.73C246.076 385.724 246.317 386.972 246.317 388.472C246.317 389.932 246.082 391.165 245.61 392.17C245.144 393.17 244.508 393.929 243.701 394.446C242.9 394.957 242.002 395.213 241.008 395.213C240.303 395.213 239.704 395.097 239.21 394.864C238.721 394.631 238.32 394.338 238.008 393.986C237.695 393.628 237.457 393.267 237.292 392.903H237.181V399.909H233.55ZM237.104 388.455C237.104 389.233 237.212 389.912 237.428 390.491C237.644 391.071 237.957 391.523 238.366 391.847C238.775 392.165 239.272 392.324 239.857 392.324C240.448 392.324 240.948 392.162 241.357 391.838C241.766 391.509 242.076 391.054 242.286 390.474C242.502 389.889 242.61 389.216 242.61 388.455C242.61 387.699 242.505 387.034 242.295 386.46C242.085 385.886 241.775 385.437 241.366 385.114C240.957 384.79 240.454 384.628 239.857 384.628C239.266 384.628 238.766 384.784 238.357 385.097C237.954 385.409 237.644 385.852 237.428 386.426C237.212 387 237.104 387.676 237.104 388.455Z" fill="white"/>
<rect x="275.5" y="335.5" width="239" height="103" rx="11.5" fill="url(#paint10_linear_9689_5546)"/>
<rect x="275.5" y="335.5" width="239" height="103" rx="11.5" stroke="#DDDFE3"/>
<rect x="291" y="359" width="56" height="56" rx="28" fill="white"/>
<path d="M334.997 383.843L323.331 372.176C323.167 372.013 322.96 371.902 322.733 371.857C322.507 371.811 322.272 371.834 322.059 371.923C321.846 372.011 321.664 372.16 321.535 372.352C321.407 372.544 321.339 372.769 321.338 373V378.884C317.556 379.208 313.377 381.06 309.94 383.976C305.801 387.487 303.224 392.012 302.683 396.717C302.641 397.083 302.715 397.453 302.895 397.774C303.075 398.095 303.352 398.351 303.686 398.506C304.02 398.661 304.395 398.706 304.756 398.636C305.118 398.565 305.448 398.383 305.699 398.114C307.303 396.406 313.011 391.006 321.338 390.531V396.333C321.339 396.564 321.407 396.79 321.535 396.982C321.664 397.173 321.846 397.323 322.059 397.411C322.272 397.499 322.507 397.522 322.733 397.477C322.96 397.432 323.167 397.321 323.331 397.157L334.997 385.491C335.215 385.272 335.338 384.976 335.338 384.667C335.338 384.358 335.215 384.062 334.997 383.843ZM323.672 393.517V389.333C323.672 389.024 323.549 388.727 323.33 388.508C323.111 388.29 322.815 388.167 322.505 388.167C318.41 388.167 314.422 389.236 310.65 391.346C308.73 392.425 306.94 393.723 305.317 395.213C306.163 391.737 308.295 388.431 311.449 385.755C314.836 382.883 318.969 381.167 322.505 381.167C322.815 381.167 323.111 381.044 323.33 380.825C323.549 380.606 323.672 380.31 323.672 380V375.818L332.522 384.667L323.672 393.517Z" fill="url(#paint11_linear_9689_5546)"/>
<path d="M364.517 396V378.545H376.278V381.588H368.207V385.747H375.673V388.79H368.207V392.957H376.312V396H364.517ZM382.178 382.909L384.582 387.486L387.045 382.909H390.769L386.977 389.455L390.871 396H387.164L384.582 391.474L382.042 396H378.292L382.178 389.455L378.428 382.909H382.178ZM398.371 396.256C397.031 396.256 395.877 395.972 394.911 395.403C393.951 394.83 393.212 394.034 392.695 393.017C392.184 392 391.928 390.83 391.928 389.506C391.928 388.165 392.187 386.989 392.704 385.977C393.227 384.96 393.968 384.168 394.928 383.599C395.888 383.026 397.031 382.739 398.354 382.739C399.496 382.739 400.496 382.946 401.354 383.361C402.212 383.776 402.891 384.358 403.391 385.108C403.891 385.858 404.167 386.739 404.218 387.75H400.792C400.695 387.097 400.44 386.571 400.025 386.173C399.616 385.77 399.079 385.568 398.414 385.568C397.852 385.568 397.36 385.722 396.94 386.028C396.525 386.33 396.201 386.77 395.968 387.349C395.735 387.929 395.619 388.631 395.619 389.455C395.619 390.29 395.732 391 395.96 391.585C396.192 392.17 396.519 392.616 396.94 392.923C397.36 393.23 397.852 393.384 398.414 393.384C398.829 393.384 399.201 393.298 399.531 393.128C399.866 392.957 400.141 392.71 400.357 392.386C400.579 392.057 400.724 391.662 400.792 391.202H404.218C404.161 392.202 403.888 393.082 403.4 393.844C402.917 394.599 402.249 395.19 401.397 395.616C400.545 396.043 399.536 396.256 398.371 396.256ZM410.173 388.432V396H406.543V378.545H410.071V385.219H410.224C410.52 384.446 410.997 383.841 411.656 383.403C412.315 382.96 413.142 382.739 414.136 382.739C415.045 382.739 415.838 382.938 416.514 383.335C417.196 383.727 417.724 384.293 418.099 385.031C418.48 385.764 418.668 386.642 418.662 387.665V396H415.031V388.312C415.037 387.506 414.832 386.878 414.418 386.429C414.009 385.98 413.435 385.756 412.696 385.756C412.202 385.756 411.764 385.861 411.384 386.071C411.009 386.281 410.713 386.588 410.497 386.991C410.287 387.389 410.179 387.869 410.173 388.432ZM425.252 396.247C424.417 396.247 423.673 396.102 423.019 395.812C422.366 395.517 421.849 395.082 421.468 394.509C421.093 393.929 420.906 393.207 420.906 392.344C420.906 391.616 421.039 391.006 421.306 390.511C421.573 390.017 421.937 389.619 422.397 389.318C422.857 389.017 423.38 388.79 423.965 388.636C424.556 388.483 425.175 388.375 425.823 388.312C426.585 388.233 427.198 388.159 427.664 388.091C428.13 388.017 428.468 387.909 428.678 387.767C428.888 387.625 428.994 387.415 428.994 387.136V387.085C428.994 386.545 428.823 386.128 428.482 385.832C428.147 385.537 427.67 385.389 427.05 385.389C426.397 385.389 425.877 385.534 425.491 385.824C425.104 386.108 424.849 386.466 424.724 386.898L421.366 386.625C421.536 385.83 421.871 385.142 422.371 384.562C422.871 383.977 423.516 383.528 424.306 383.216C425.102 382.898 426.022 382.739 427.067 382.739C427.795 382.739 428.491 382.824 429.156 382.994C429.826 383.165 430.42 383.429 430.937 383.787C431.46 384.145 431.871 384.605 432.173 385.168C432.474 385.724 432.624 386.392 432.624 387.17V396H429.181V394.185H429.079C428.869 394.594 428.587 394.955 428.235 395.267C427.883 395.574 427.46 395.815 426.965 395.991C426.471 396.162 425.9 396.247 425.252 396.247ZM426.292 393.741C426.826 393.741 427.298 393.636 427.707 393.426C428.116 393.21 428.437 392.92 428.67 392.557C428.903 392.193 429.019 391.781 429.019 391.321V389.932C428.906 390.006 428.749 390.074 428.55 390.136C428.357 390.193 428.138 390.247 427.894 390.298C427.65 390.344 427.406 390.386 427.161 390.426C426.917 390.46 426.695 390.491 426.496 390.52C426.07 390.582 425.698 390.682 425.38 390.818C425.062 390.955 424.815 391.139 424.638 391.372C424.462 391.599 424.374 391.884 424.374 392.224C424.374 392.719 424.553 393.097 424.911 393.358C425.275 393.614 425.735 393.741 426.292 393.741ZM439.072 388.432V396H435.441V382.909H438.901V385.219H439.055C439.344 384.457 439.83 383.855 440.512 383.412C441.194 382.963 442.021 382.739 442.992 382.739C443.901 382.739 444.694 382.938 445.37 383.335C446.046 383.733 446.572 384.301 446.947 385.04C447.322 385.773 447.509 386.648 447.509 387.665V396H443.879V388.312C443.884 387.511 443.68 386.886 443.265 386.438C442.85 385.983 442.279 385.756 441.552 385.756C441.063 385.756 440.631 385.861 440.256 386.071C439.887 386.281 439.597 386.588 439.387 386.991C439.183 387.389 439.077 387.869 439.072 388.432ZM456.268 401.182C455.092 401.182 454.084 401.02 453.243 400.696C452.408 400.378 451.743 399.943 451.249 399.392C450.754 398.841 450.433 398.222 450.286 397.534L453.643 397.082C453.746 397.344 453.908 397.588 454.129 397.815C454.351 398.043 454.643 398.224 455.007 398.361C455.376 398.503 455.825 398.574 456.354 398.574C457.143 398.574 457.794 398.381 458.305 397.994C458.822 397.614 459.081 396.974 459.081 396.077V393.682H458.928C458.768 394.045 458.53 394.389 458.212 394.713C457.893 395.037 457.484 395.301 456.984 395.506C456.484 395.71 455.888 395.812 455.195 395.812C454.212 395.812 453.317 395.585 452.51 395.131C451.709 394.67 451.07 393.969 450.592 393.026C450.121 392.077 449.885 390.878 449.885 389.429C449.885 387.946 450.126 386.707 450.609 385.713C451.092 384.719 451.734 383.974 452.536 383.48C453.342 382.986 454.226 382.739 455.186 382.739C455.919 382.739 456.533 382.864 457.027 383.114C457.521 383.358 457.919 383.665 458.22 384.034C458.527 384.398 458.763 384.756 458.928 385.108H459.064V382.909H462.669V396.128C462.669 397.241 462.396 398.173 461.851 398.923C461.305 399.673 460.55 400.236 459.584 400.611C458.624 400.991 457.518 401.182 456.268 401.182ZM456.345 393.085C456.93 393.085 457.425 392.94 457.828 392.651C458.237 392.355 458.55 391.935 458.766 391.389C458.987 390.838 459.098 390.179 459.098 389.412C459.098 388.645 458.99 387.98 458.774 387.418C458.558 386.849 458.246 386.409 457.837 386.097C457.428 385.784 456.93 385.628 456.345 385.628C455.749 385.628 455.246 385.79 454.837 386.114C454.428 386.432 454.118 386.875 453.908 387.443C453.697 388.011 453.592 388.668 453.592 389.412C453.592 390.168 453.697 390.821 453.908 391.372C454.124 391.918 454.433 392.341 454.837 392.642C455.246 392.937 455.749 393.085 456.345 393.085ZM471.524 396.256C470.178 396.256 469.018 395.983 468.047 395.438C467.081 394.886 466.337 394.108 465.814 393.102C465.291 392.091 465.03 390.895 465.03 389.514C465.03 388.168 465.291 386.986 465.814 385.969C466.337 384.952 467.072 384.159 468.021 383.591C468.976 383.023 470.095 382.739 471.379 382.739C472.243 382.739 473.047 382.878 473.791 383.156C474.541 383.429 475.195 383.841 475.751 384.392C476.314 384.943 476.751 385.636 477.064 386.472C477.376 387.301 477.533 388.273 477.533 389.386V390.384H466.479V388.134H474.115C474.115 387.611 474.001 387.148 473.774 386.744C473.547 386.341 473.232 386.026 472.828 385.798C472.43 385.565 471.967 385.449 471.439 385.449C470.888 385.449 470.399 385.577 469.973 385.832C469.553 386.082 469.223 386.42 468.984 386.847C468.746 387.267 468.624 387.736 468.618 388.253V390.392C468.618 391.04 468.737 391.599 468.976 392.071C469.22 392.543 469.564 392.906 470.007 393.162C470.45 393.418 470.976 393.545 471.584 393.545C471.987 393.545 472.357 393.489 472.692 393.375C473.027 393.261 473.314 393.091 473.553 392.864C473.791 392.636 473.973 392.358 474.098 392.028L477.456 392.25C477.286 393.057 476.936 393.761 476.408 394.364C475.885 394.96 475.209 395.426 474.379 395.761C473.555 396.091 472.604 396.256 471.524 396.256Z" fill="white"/>
<defs>
<linearGradient id="paint0_linear_9689_5546" x1="17" y1="212" x2="220.128" y2="364.955" gradientUnits="userSpaceOnUse">
<stop stop-color="#111584"/>
<stop offset="1" stop-color="#8178EB"/>
</linearGradient>
<linearGradient id="paint1_linear_9689_5546" x1="43.5" y1="248.834" x2="82.6484" y2="261.605" gradientUnits="userSpaceOnUse">
<stop stop-color="#111584"/>
<stop offset="1" stop-color="#8178EB"/>
</linearGradient>
<linearGradient id="paint2_linear_9689_5546" x1="275" y1="212" x2="478.128" y2="364.955" gradientUnits="userSpaceOnUse">
<stop stop-color="#111584"/>
<stop offset="1" stop-color="#8178EB"/>
</linearGradient>
<linearGradient id="paint3_linear_9689_5546" x1="301.5" y1="248.834" x2="340.648" y2="261.605" gradientUnits="userSpaceOnUse">
<stop stop-color="#111584"/>
<stop offset="1" stop-color="#8178EB"/>
</linearGradient>
<linearGradient id="paint4_linear_9689_5546" x1="275.223" y1="90" x2="478.351" y2="242.955" gradientUnits="userSpaceOnUse">
<stop stop-color="#111584"/>
<stop offset="1" stop-color="#8178EB"/>
</linearGradient>
<linearGradient id="paint5_linear_9689_5546" x1="302.895" y1="126.834" x2="340.314" y2="141.698" gradientUnits="userSpaceOnUse">
<stop stop-color="#111584"/>
<stop offset="1" stop-color="#8178EB"/>
</linearGradient>
<linearGradient id="paint6_linear_9689_5546" x1="17.2227" y1="89.5684" x2="220.351" y2="242.523" gradientUnits="userSpaceOnUse">
<stop stop-color="#111584"/>
<stop offset="1" stop-color="#8178EB"/>
</linearGradient>
<linearGradient id="paint7_linear_9689_5546" x1="44.8945" y1="126.402" x2="82.3141" y2="141.266" gradientUnits="userSpaceOnUse">
<stop stop-color="#111584"/>
<stop offset="1" stop-color="#8178EB"/>
</linearGradient>
<linearGradient id="paint8_linear_9689_5546" x1="17" y1="334" x2="220.128" y2="486.955" gradientUnits="userSpaceOnUse">
<stop stop-color="#111584"/>
<stop offset="1" stop-color="#8178EB"/>
</linearGradient>
<linearGradient id="paint9_linear_9689_5546" x1="43.5" y1="370.834" x2="82.6484" y2="383.605" gradientUnits="userSpaceOnUse">
<stop stop-color="#111584"/>
<stop offset="1" stop-color="#8178EB"/>
</linearGradient>
<linearGradient id="paint10_linear_9689_5546" x1="275" y1="335" x2="478.128" y2="487.955" gradientUnits="userSpaceOnUse">
<stop stop-color="#111584"/>
<stop offset="1" stop-color="#8178EB"/>
</linearGradient>
<linearGradient id="paint11_linear_9689_5546" x1="302.672" y1="371.834" x2="340.091" y2="386.698" gradientUnits="userSpaceOnUse">
<stop stop-color="#111584"/>
<stop offset="1" stop-color="#8178EB"/>
</linearGradient>
</defs>
</svg>
