<svg width="96" height="96" viewBox="0 0 96 96" fill="none" xmlns="http://www.w3.org/2000/svg">
<path d="M48 9C40.2865 9 32.7463 11.2873 26.3328 15.5727C19.9193 19.8581 14.9205 25.949 11.9687 33.0753C9.0169 40.2017 8.24457 48.0433 9.74939 55.6085C11.2542 63.1738 14.9686 70.1229 20.4229 75.5772C25.8771 81.0314 32.8262 84.7458 40.3915 86.2506C47.9568 87.7554 55.7984 86.9831 62.9247 84.0313C70.051 81.0795 76.142 76.0808 80.4273 69.6672C84.7127 63.2537 87 55.7135 87 48C86.9891 37.6599 82.8767 27.7464 75.5651 20.4349C68.2536 13.1233 58.3401 9.01092 48 9ZM65.1225 41.1225L44.1225 62.1225C43.8439 62.4014 43.513 62.6227 43.1488 62.7737C42.7846 62.9247 42.3943 63.0024 42 63.0024C41.6058 63.0024 41.2154 62.9247 40.8512 62.7737C40.487 62.6227 40.1561 62.4014 39.8775 62.1225L30.8775 53.1225C30.3146 52.5596 29.9983 51.7961 29.9983 51C29.9984 50.2039 30.3146 49.4404 30.8775 48.8775C31.4404 48.3146 32.2039 47.9983 33 47.9983C33.7961 47.9983 34.5596 48.3146 35.1225 48.8775L42 55.7588L60.8775 36.8775C61.1562 36.5988 61.4871 36.3777 61.8513 36.2268C62.2155 36.076 62.6058 35.9983 63 35.9983C63.3942 35.9983 63.7845 36.076 64.1487 36.2268C64.5129 36.3777 64.8438 36.5988 65.1225 36.8775C65.4012 37.1562 65.6223 37.4871 65.7732 37.8513C65.924 38.2155 66.0017 38.6058 66.0017 39C66.0017 39.3942 65.924 39.7845 65.7732 40.1487C65.6223 40.5129 65.4012 40.8438 65.1225 41.1225Z" fill="#00BB31"/>
</svg>
